<?xml version="1.0" standalone="no"?>
<!DOCTYPE svg PUBLIC "-//W3C//DTD SVG 20010904//EN" "http://www.w3.org/TR/2001/REC-SVG-20010904/DTD/svg10.dtd">
<!-- Created using Krita: https://krita.org -->
<svg xmlns="http://www.w3.org/2000/svg" 
    xmlns:xlink="http://www.w3.org/1999/xlink"
    xmlns:krita="http://krita.org/namespaces/svg/krita"
    xmlns:sodipodi="http://sodipodi.sourceforge.net/DTD/sodipodi-0.dtd"
    width="72pt"
    height="72pt"
    viewBox="0 0 72 72">
<defs/>
<path id="shape0" transform="matrix(0.856120403057181 -0.516776407616697 0.516776407616697 0.856120403057181 3.30995346659641 16.1762301730092)" fill="none" stroke="#070707" stroke-width="0.48" stroke-linecap="square" stroke-linejoin="bevel" d="M0 0L11.1 2.8123e-08L14.46 3.54L17.52 2.8123e-08L29.04 0L29.04 63.84L0 63.84Z"/><path id="shape1" transform="translate(14.9340950597984, 2.88499563655197)" fill="none" stroke="#070707" stroke-width="0.48" stroke-linecap="square" stroke-linejoin="bevel" d="M10.352 0L0 32.2441L2.71529 36.911L14.6795 0.678823"/><path id="shape2" transform="matrix(0.955543637608473 -0.294849718714437 0.294849718714437 0.955543637608473 14.4656608452566 8.67717843635428)" fill="none" stroke="#070707" stroke-width="0.48" stroke-linecap="square" stroke-linejoin="bevel" d="M0 2.33605L0 0L4.0071 1.01524e-08M16.4545 1.2326L17.52 2.8123e-08L29.04 0L29.04 51.5584M29.0825 59.4193L29.04 63.84L10.5003 63.84M1.99915 63.809L0 63.84C0 61.2544 2.1191e-16 58.6688 5.55553e-16 56.0832"/><path id="shape3" transform="matrix(0.970431782592126 0.241375548337196 -0.241375548337196 0.970431782592126 36.0500754749603 0.349664061166244)" fill="none" stroke="#070707" stroke-width="0.48" stroke-linecap="square" stroke-linejoin="bevel" d="M3.04004 0L0 10.1505L3.2704 13.3559L7.36753 0.678823"/><path id="shape4" transform="matrix(0.943682546151456 -0.110627291617588 0.116725739969795 0.894378945505422 27.2646286949594 44.5658847594117)" fill="none" stroke="#070707" stroke-width="0.48" stroke-linecap="square" stroke-linejoin="bevel" d="M9.05289 0.0600182C6.92245 -0.241994 5.37001 0.48425 4.13911 4.82361C2.66724 8.61429 -0.678067 9.09498 0.121839 13.4871C0.806628 14.7278 2.32439 17.2689 7.12219 14.8024C8.94735 14.3784 8.17763 14.3385 10.389 14.5902C14.3241 17.5092 17.2854 15.3994 17.3251 13.949C18.8746 11.4451 14.9825 8.77165 13.9104 5.12913C13.1229 0.548703 11.1879 -0.0911031 9.06594 0.076747"/><ellipse id="shape5" transform="matrix(0.912030993783492 -0.254946035200916 0.269000209406384 0.864381058879334 25.5130880311274 43.6519962827016)" rx="2.28" ry="3.6" cx="2.28" cy="3.6" fill="none" stroke="#070707" stroke-width="0.48" stroke-linecap="square" stroke-linejoin="bevel"/><ellipse id="shape0" transform="matrix(0.923183757706326 -0.215899432462637 0.227801120725019 0.874951135943337 29.7518619449156 37.1088583433359)" rx="2.28" ry="3.6" cx="2.28" cy="3.6" fill="none" stroke="#070707" stroke-width="0.48" stroke-linecap="square" stroke-linejoin="bevel"/><ellipse id="shape01" transform="matrix(0.938033530927217 0.147602448474399 -0.155739192089094 0.889025068505149 37.5333125390368 36.0000011530812)" rx="2.28" ry="3.6" cx="2.28" cy="3.6" fill="none" stroke="#070707" stroke-width="0.48" stroke-linecap="square" stroke-linejoin="bevel"/><ellipse id="shape02" transform="matrix(0.941965311959233 0.123072904024745 -0.129857430137392 0.892751429862274 42.1915501463385 41.9306200555984)" rx="2.28" ry="3.6" cx="2.28" cy="3.6" fill="none" stroke="#070707" stroke-width="0.48" stroke-linecap="square" stroke-linejoin="bevel"/><path id="shape6" transform="matrix(0.241237235970815 -0.560124567591854 0.524253559760543 0.214314432839194 31.3701525589327 32.5183262963604)" fill="none" stroke="#070707" stroke-width="0.48" stroke-linecap="square" stroke-linejoin="bevel" d="M8.99047 0.0796749C6.98649 -0.267153 5.32232 0.384814 4.09142 4.72417C2.61955 8.51485 -0.676552 8.94457 0.123354 13.3367C0.808143 14.5774 2.3259 17.1185 7.12371 14.652C8.94886 14.228 8.17915 14.1881 10.3905 14.4398C14.3256 17.3588 17.2869 15.249 17.3266 13.7986C18.8761 11.2947 14.984 8.62125 13.9119 4.97873C13.1244 0.398302 11.543 -0.00999512 9.07532 0.0796749"/><ellipse id="shape7" transform="matrix(0.152548280996865 -0.587568767827455 0.556566456863274 0.12013804733251 30.2345329556978 33.1753309500895)" rx="2.28" ry="3.6" cx="2.28" cy="3.6" fill="none" stroke="#070707" stroke-width="0.48" stroke-linecap="square" stroke-linejoin="bevel"/><ellipse id="shape03" transform="matrix(0.177370939422627 -0.581585535761396 0.549160024168758 0.14638460971541 28.0261058125065 28.7710996068468)" rx="2.28" ry="3.6" cx="2.28" cy="3.6" fill="none" stroke="#070707" stroke-width="0.48" stroke-linecap="square" stroke-linejoin="bevel"/><ellipse id="shape04" transform="matrix(0.380031405197258 -0.476330624402863 0.434296342789681 0.364388975717403 29.9082418043342 24.0909912779361)" rx="2.28" ry="3.6" cx="2.28" cy="3.6" fill="none" stroke="#070707" stroke-width="0.48" stroke-linecap="square" stroke-linejoin="bevel"/><ellipse id="shape05" transform="matrix(0.367931814146649 -0.486181217282191 0.444593479974068 0.351138168432894 34.6254263563163 23.3488252802324)" rx="2.28" ry="3.6" cx="2.28" cy="3.6" fill="none" stroke="#070707" stroke-width="0.48" stroke-linecap="square" stroke-linejoin="bevel"/><path id="shape06" transform="matrix(-0.0856935029913071 0.391456352209295 -0.364019636580281 -0.073439035790717 14.2982794931219 14.9144793616405)" fill="none" stroke="#070707" stroke-width="0.48" stroke-linecap="square" stroke-linejoin="bevel" d="M8.99047 0.0796749C6.98649 -0.267153 5.32232 0.384814 4.09142 4.72417C2.61955 8.51485 -0.676552 8.94457 0.123354 13.3367C0.808143 14.5774 2.3259 17.1185 7.12371 14.652C8.94886 14.228 8.17915 14.1881 10.3905 14.4398C14.3256 17.3588 17.2869 15.249 17.3266 13.7986C18.8761 11.2947 14.984 8.62125 13.9119 4.97873C13.1244 0.398302 11.543 -0.00999516 9.07532 0.0796749"/><ellipse id="shape1" transform="matrix(-0.0252059853581518 0.398191749804268 -0.373119726861345 -0.00864280340457995 14.947554701788 14.3497429807054)" rx="2.28" ry="3.6" cx="2.28" cy="3.6" fill="none" stroke="#070707" stroke-width="0.48" stroke-linecap="square" stroke-linejoin="bevel"/><ellipse id="shape07" transform="matrix(-0.041924623157911 0.397402739383277 -0.371612689846233 -0.0265032538727495 16.9158482983055 16.9194456598356)" rx="2.28" ry="3.6" cx="2.28" cy="3.6" fill="none" stroke="#070707" stroke-width="0.48" stroke-linecap="square" stroke-linejoin="bevel"/><ellipse id="shape01" transform="matrix(-0.185426395314299 0.35454834524403 -0.324762555111315 -0.18145751739703 16.285767636168 20.1737189631907)" rx="2.28" ry="3.6" cx="2.28" cy="3.6" fill="none" stroke="#070707" stroke-width="0.48" stroke-linecap="square" stroke-linejoin="bevel"/><ellipse id="shape02" transform="matrix(-0.176415866938926 0.359409246687488 -0.329744002483552 -0.171628532391054 13.3420175645773 21.2368874799087)" rx="2.28" ry="3.6" cx="2.28" cy="3.6" fill="none" stroke="#070707" stroke-width="0.48" stroke-linecap="square" stroke-linejoin="bevel"/><rect id="shape8" transform="matrix(0.432343893925058 -0.258142449914791 0.271942825972082 0.455457133627434 47.1723660026029 52.2637706280404)" fill="none" stroke="#070707" stroke-width="0.48" stroke-linecap="square" stroke-linejoin="bevel" width="16.9200009419072" height="16.7400003827028"/><rect id="shape9" transform="matrix(0.432343893925058 -0.258142449914791 0.271942825972082 0.455457133627434 47.7150171286593 52.3475326732566)" fill="none" stroke="#070707" stroke-width="0.48" stroke-linecap="square" stroke-linejoin="bevel" width="3.12" height="3.12"/><rect id="shape08" transform="matrix(0.432343884592352 -0.258142444342451 0.271942820101842 0.455457123795799 52.9639640976496 49.3123754543086)" fill="none" stroke="#070707" stroke-width="0.48" stroke-linecap="square" stroke-linejoin="bevel" width="3.12" height="3.12"/><rect id="shape09" transform="matrix(0.432343884592352 -0.258142444342451 0.271942820101842 0.455457123795799 51.0458437605675 57.9457139819445)" fill="none" stroke="#070707" stroke-width="0.48" stroke-linecap="square" stroke-linejoin="bevel" width="3.12" height="3.12"/><rect id="shape010" transform="matrix(0.432343884592352 -0.258142444342451 0.271942820101842 0.455457123795799 54.5646023015299 54.1148134060687)" fill="none" stroke="#070707" stroke-width="0.48" stroke-linecap="square" stroke-linejoin="bevel" width="1.93997913069012" height="1.90002255652523"/><path id="shape10" transform="matrix(0.432343893925058 -0.258142449914791 0.271942825972082 0.455457133627434 55.2330388177188 54.271750632784)" fill="none" stroke="#070707" stroke-width="0.48" stroke-linecap="square" stroke-linejoin="miter" stroke-miterlimit="2" d="M0 0.12L0 0"/><path id="shape11" transform="matrix(0.432343893925058 -0.258142449914791 0.271942825972082 0.455457133627434 53.9632205336383 54.3256057400212)" fill="none" stroke="#070707" stroke-width="0.48" stroke-linecap="square" stroke-linejoin="miter" stroke-miterlimit="2" d="M1.44 0.06L0 0"/><path id="shape12" transform="matrix(0.432343893925058 -0.258142449914791 0.271942825972082 0.455457133627434 54.3234578510341 54.2217254586664)" fill="none" stroke="#070707" stroke-width="0.48" stroke-linecap="square" stroke-linejoin="miter" stroke-miterlimit="2" d="M0 0L0 1.74"/><path id="shape13" transform="matrix(0.432343893925058 -0.258142449914791 0.271942825972082 0.455457133627434 54.5573095516212 55.3795365665921)" fill="none" stroke="#070707" stroke-width="0.48" stroke-linecap="square" stroke-linejoin="miter" stroke-miterlimit="2" d="M1.14 0.06L0 0"/><path id="shape14" transform="matrix(0.432343893925058 -0.258142449914791 0.271942825972082 0.455457133627434 54.2548166195052 55.2265209942386)" fill="none" stroke="#070707" stroke-width="0.48" stroke-linecap="square" stroke-linejoin="miter" stroke-miterlimit="2" d="M0 0.36L0 0"/><path id="shape15" transform="matrix(0.432343893925058 -0.258142449914791 0.271942825972082 0.455457133627434 55.1865783302586 55.0779545844817)" fill="none" stroke="#070707" stroke-width="0.48" stroke-linecap="square" stroke-linejoin="miter" stroke-miterlimit="2" d="M0.06 0L0 0.66"/><path id="shape16" transform="matrix(0.432343893925058 -0.258142449914791 0.271942825972082 0.455457133627434 55.7832129327352 54.7217179863676)" fill="none" stroke="#070707" stroke-width="0.48" stroke-linecap="square" stroke-linejoin="miter" stroke-miterlimit="2" d="M0 0L0 0.36"/><path id="shape17" transform="matrix(0.432343893925058 -0.258142449914791 0.271942825972082 0.455457133627434 56.078183981071 54.5085279840991)" fill="none" stroke="#070707" stroke-width="0.48" stroke-linecap="square" stroke-linejoin="miter" stroke-miterlimit="2" d="M0.06 0L0 1.32"/><path id="shape18" transform="matrix(0.432343893925058 -0.258142449914791 0.271942825972082 0.455457133627434 55.9781823885769 54.7535849650053)" fill="none" stroke="#070707" stroke-width="0.48" stroke-linecap="square" stroke-linejoin="miter" stroke-miterlimit="2" d="M0 0L2.52 0.06"/><path id="shape19" transform="matrix(0.432343893925058 -0.258142449914791 0.271942825972082 0.455457133627434 56.0878080456137 54.4657120070155)" fill="none" stroke="#070707" stroke-width="0.48" stroke-linecap="square" stroke-linejoin="miter" stroke-miterlimit="2" d="M0 0L2.52 0"/><path id="shape20" transform="matrix(0.432343893925058 -0.258142449914791 0.271942825972082 0.455457133627434 56.5145844388095 53.7660577090832)" fill="none" stroke="#070707" stroke-width="0.48" stroke-linecap="square" stroke-linejoin="miter" stroke-miterlimit="2" d="M0 0.6L0.06 0"/><path id="shape21" transform="matrix(0.432343893925058 -0.258142449914791 0.271942825972082 0.455457133627434 57.9278769469943 55.0722547513811)" fill="none" stroke="#070707" stroke-width="0.48" stroke-linecap="square" stroke-linejoin="miter" stroke-miterlimit="2" d="M0.54 0L0 0"/><path id="shape22" transform="matrix(0.432343893925058 -0.258142449914791 0.271942825972082 0.455457133627434 57.4483898956887 55.506823971365)" fill="none" stroke="#070707" stroke-width="0.48" stroke-linecap="square" stroke-linejoin="miter" stroke-miterlimit="2" d="M0.06 0.9L0 0"/><path id="shape23" transform="matrix(0.432343893925058 -0.258142449914791 0.271942825972082 0.455457133627434 57.4906471009265 55.5186628529605)" fill="none" stroke="#070707" stroke-width="0.48" stroke-linecap="square" stroke-linejoin="miter" stroke-miterlimit="2" d="M0 0L0.54 0"/><path id="shape24" transform="matrix(0.432343893925058 -0.258142449914791 0.271942825972082 0.455457133627434 56.3107629075831 56.3714228620347)" fill="none" stroke="#070707" stroke-width="0.48" stroke-linecap="square" stroke-linejoin="miter" stroke-miterlimit="2" d="M2.46 0L0 0"/><path id="shape25" transform="matrix(0.432343893925058 -0.258142449914791 0.271942825972082 0.455457133627434 56.3438394420285 55.4249318168975)" fill="none" stroke="#070707" stroke-width="0.48" stroke-linecap="square" stroke-linejoin="miter" stroke-miterlimit="2" d="M0 0L0 0.3"/><path id="shape26" transform="matrix(0.432343893925058 -0.258142449914791 0.271942825972082 0.455457133627434 56.7597189886023 55.4731772264287)" fill="none" stroke="#070707" stroke-width="0.48" stroke-linecap="square" stroke-linejoin="miter" stroke-miterlimit="2" d="M0 0L0.42 0"/><path id="shape27" transform="matrix(0.432343893925058 -0.258142449914791 0.271942825972082 0.455457133627434 49.4512672536891 55.3143831345467)" fill="none" stroke="#070707" stroke-width="0.48" stroke-linecap="square" stroke-linejoin="miter" stroke-miterlimit="2" d="M0 0L0 4.62"/><path id="shape28" transform="matrix(0.432343893925058 -0.258142449914791 0.271942825972082 0.455457133627434 49.4035903247258 54.5273171161485)" fill="none" stroke="#070707" stroke-width="0.48" stroke-linecap="square" stroke-linejoin="miter" stroke-miterlimit="2" d="M0.06 1.08L0 0"/><path id="shape29" transform="matrix(0.432343893925058 -0.258142449914791 0.271942825972082 0.455457133627434 49.5282597700309 54.9718553178779)" fill="none" stroke="#070707" stroke-width="0.48" stroke-linecap="square" stroke-linejoin="miter" stroke-miterlimit="2" d="M0.24 0L0 0"/><rect id="shape011" transform="matrix(0.432343900455625 -0.25814245381404 0.271942830079786 0.455457140507127 53.5214530263819 49.4366906272067)" fill="#070707" fill-rule="evenodd" stroke="#070707" stroke-width="0.48" stroke-linecap="square" stroke-linejoin="bevel" width="1.47596752950239" height="1.58403414284542"/><rect id="shape012" transform="matrix(0.432343880380041 -0.258142441827378 0.271942817452313 0.455457119358297 48.2569972217466 52.5043921402382)" fill="#070707" fill-rule="evenodd" stroke="#070707" stroke-width="0.48" stroke-linecap="square" stroke-linejoin="bevel" width="1.47596752950239" height="1.58403414284542"/><rect id="shape013" transform="matrix(0.432343880380041 -0.258142441827378 0.271942817452313 0.455457119358297 51.5855775726526 58.0791877254981)" fill="#070707" fill-rule="evenodd" stroke="#070707" stroke-width="0.48" stroke-linecap="square" stroke-linejoin="bevel" width="1.47596752950239" height="1.58403414284542"/><path id="shape30" transform="matrix(0.432343893925058 -0.258142449914791 0.271942825972082 0.455457133627434 51.5943298904611 52.7744415716181)" fill="none" stroke="#070707" stroke-width="0.48" stroke-linecap="square" stroke-linejoin="miter" stroke-miterlimit="2" d="M0 0L0 1.44"/><path id="shape31" transform="matrix(0.432343893925058 -0.258142449914791 0.271942825972082 0.455457133627434 52.430293324426 52.0528892767939)" fill="none" stroke="#070707" stroke-width="0.48" stroke-linecap="square" stroke-linejoin="miter" stroke-miterlimit="2" d="M0 0L0.42 0"/><path id="shape32" transform="matrix(0.432343893925058 -0.258142449914791 0.271942825972082 0.455457133627434 52.9409463034341 51.729455144939)" fill="none" stroke="#070707" stroke-width="0.48" stroke-linecap="square" stroke-linejoin="miter" stroke-miterlimit="2" d="M0 0L0.03 0.84"/><path id="shape33" transform="matrix(0.432343893925058 -0.258142449914791 0.271942825972082 0.455457133627434 52.7698153206417 52.0911211573937)" fill="none" stroke="#070707" stroke-width="0.48" stroke-linecap="square" stroke-linejoin="miter" stroke-miterlimit="2" d="M0 0.03L0.51 0"/><path id="shape34" transform="matrix(0.432343893925058 -0.258142449914791 0.271942825972082 0.455457133627434 53.1152018420973 51.903433760787)" fill="none" stroke="#070707" stroke-width="0.48" stroke-linecap="square" stroke-linejoin="miter" stroke-miterlimit="2" d="M0 0L1.92 0"/><path id="shape35" transform="matrix(0.432343893925058 -0.258142449914791 0.271942825972082 0.455457133627434 53.7771026928261 51.6565068923934)" fill="none" stroke="#070707" stroke-width="0.48" stroke-linecap="square" stroke-linejoin="miter" stroke-miterlimit="2" d="M0.03 0L0 0.48"/><path id="shape36" transform="matrix(0.432343893925058 -0.258142449914791 0.271942825972082 0.455457133627434 54.0754199791291 51.4783886022539)" fill="none" stroke="#070707" stroke-width="0.48" stroke-linecap="square" stroke-linejoin="miter" stroke-miterlimit="2" d="M0.03 0L0 2.22"/><path id="shape37" transform="matrix(0.432343893925058 -0.258142449914791 0.271942825972082 0.455457133627434 53.9630844658536 51.3786479968358)" fill="none" stroke="#070707" stroke-width="0.48" stroke-linecap="square" stroke-linejoin="miter" stroke-miterlimit="2" d="M0 0L0.96 0"/><path id="shape38" transform="matrix(0.432343893925058 -0.258142449914791 0.271942825972082 0.455457133627434 54.9716159204696 51.3881269697566)" fill="none" stroke="#070707" stroke-width="0.48" stroke-linecap="square" stroke-linejoin="miter" stroke-miterlimit="2" d="M0 0L0 0.3"/><path id="shape39" transform="matrix(0.432343893925058 -0.258142449914791 0.271942825972082 0.455457133627434 55.3655374563734 51.1343907777568)" fill="none" stroke="#070707" stroke-width="0.48" stroke-linecap="square" stroke-linejoin="miter" stroke-miterlimit="2" d="M0 0L0.15 0"/><path id="shape40" transform="matrix(0.432343893925058 -0.258142449914791 0.271942825972082 0.455457133627434 55.2222562801962 50.4229427006234)" fill="none" stroke="#070707" stroke-width="0.48" stroke-linecap="square" stroke-linejoin="miter" stroke-miterlimit="2" d="M0 0L0.03 0.9"/><path id="shape41" transform="matrix(0.432343893925058 -0.258142449914791 0.271942825972082 0.455457133627434 56.2895258051606 52.269368921673)" fill="none" stroke="#070707" stroke-width="0.48" stroke-linecap="square" stroke-linejoin="miter" stroke-miterlimit="2" d="M0.03 0L0 0.57"/><path id="shape42" transform="matrix(0.432343893925058 -0.258142449914791 0.271942825972082 0.455457133627434 56.4526915004675 52.5426432013866)" fill="none" stroke="#070707" stroke-width="0.48" stroke-linecap="square" stroke-linejoin="miter" stroke-miterlimit="2" d="M0 0L0.45 0"/><path id="shape43" transform="matrix(0.432343893925058 -0.258142449914791 0.271942825972082 0.455457133627434 56.5112652731204 52.5818095103605)" fill="none" stroke="#070707" stroke-width="0.48" stroke-linecap="square" stroke-linejoin="miter" stroke-miterlimit="2" d="M0.03 0L0 0.69"/><path id="shape44" transform="matrix(0.432343893925058 -0.258142449914791 0.271942825972082 0.455457133627434 56.7043542457616 52.5221250970214)" fill="none" stroke="#070707" stroke-width="0.48" stroke-linecap="square" stroke-linejoin="miter" stroke-miterlimit="2" d="M0 0L0 0.57"/><path id="shape45" transform="matrix(0.432343893925058 -0.258142449914791 0.271942825972082 0.455457133627434 50.1099076406987 51.5848537235362)" fill="none" stroke="#070707" stroke-width="0.48" stroke-linecap="square" stroke-linejoin="miter" stroke-miterlimit="2" d="M0.06 0L0 0.84"/><path id="shape46" transform="matrix(0.432343893925058 -0.258142449914791 0.271942825972082 0.455457133627434 50.3203642757637 51.3479859612227)" fill="none" stroke="#070707" stroke-width="0.48" stroke-linecap="square" stroke-linejoin="miter" stroke-miterlimit="2" d="M0 0L0.6 0.06"/><path id="shape47" transform="matrix(0.432343893925058 -0.258142449914791 0.271942825972082 0.455457133627434 50.7400047638312 51.5793341576111)" fill="none" stroke="#070707" stroke-width="0.48" stroke-linecap="square" stroke-linejoin="miter" stroke-miterlimit="2" d="M0 0L0 0.36"/><path id="shape48" transform="matrix(0.432343893925058 -0.258142449914791 0.271942825972082 0.455457133627434 50.1283263812103 51.2031596010019)" fill="none" stroke="#070707" stroke-width="0.48" stroke-linecap="square" stroke-linejoin="miter" stroke-miterlimit="2" d="M0 0.3L0 0"/><path id="shape49" transform="matrix(0.432343893925058 -0.258142449914791 0.271942825972082 0.455457133627434 51.1015148708354 50.7703701530648)" fill="none" stroke="#070707" stroke-width="0.48" stroke-linecap="square" stroke-linejoin="miter" stroke-miterlimit="2" d="M0 0L1.26 0"/><path id="shape50" transform="matrix(0.432343893925058 -0.258142449914791 0.271942825972082 0.455457133627434 52.2110990389053 50.3302813729274)" fill="none" stroke="#070707" stroke-width="0.48" stroke-linecap="square" stroke-linejoin="miter" stroke-miterlimit="2" d="M0 0L0 0.24"/><path id="shape51" transform="matrix(0.432343893925058 -0.258142449914791 0.271942825972082 0.455457133627434 51.4906243890218 50.5380419399891)" fill="none" stroke="#070707" stroke-width="0.48" stroke-linecap="square" stroke-linejoin="miter" stroke-miterlimit="2" d="M0.06 0L0 1.62"/><path id="shape52" transform="matrix(0.432343893925058 -0.258142449914791 0.271942825972082 0.455457133627434 49.614876014778 54.5865116288203)" fill="none" stroke="#070707" stroke-width="0.48" stroke-linecap="square" stroke-linejoin="miter" stroke-miterlimit="2" d="M0 0L1.62 0"/><path id="shape53" transform="matrix(0.432343893925058 -0.258142449914791 0.271942825972082 0.455457133627434 50.3173753178942 53.7592992937731)" fill="none" stroke="#070707" stroke-width="0.48" stroke-linecap="square" stroke-linejoin="miter" stroke-miterlimit="2" d="M0 0L1.44 0"/><path id="shape54" transform="matrix(0.432343893925058 -0.258142449914791 0.271942825972082 0.455457133627434 51.2683841199907 53.5251011808724)" fill="none" stroke="#070707" stroke-width="0.48" stroke-linecap="square" stroke-linejoin="miter" stroke-miterlimit="2" d="M0 0L0.06 0.36"/><path id="shape55" transform="matrix(0.432343893925058 -0.258142449914791 0.271942825972082 0.455457133627434 50.2742887248994 53.4513982428305)" fill="none" stroke="#070707" stroke-width="0.48" stroke-linecap="square" stroke-linejoin="miter" stroke-miterlimit="2" d="M0 0.3L0 0"/><path id="shape56" transform="matrix(0.432343893925058 -0.258142449914791 0.271942825972082 0.455457133627434 54.2314221764347 53.831841948028)" fill="none" stroke="#070707" stroke-width="0.48" stroke-linecap="square" stroke-linejoin="miter" stroke-miterlimit="2" d="M0 0L2.7 0.06"/><path id="shape57" transform="matrix(0.432343893925058 -0.258142449914791 0.271942825972082 0.455457133627434 54.5736841546093 53.1085098965117)" fill="none" stroke="#070707" stroke-width="0.48" stroke-linecap="square" stroke-linejoin="miter" stroke-miterlimit="2" d="M0.06 0L0 0.42"/><path id="shape58" transform="matrix(0.432343893925058 -0.258142449914791 0.271942825972082 0.455457133627434 54.6025563478538 52.9800619669669)" fill="none" stroke="#070707" stroke-width="0.48" stroke-linecap="square" stroke-linejoin="miter" stroke-miterlimit="2" d="M0 0L0.54 0"/><path id="shape59" transform="matrix(0.432343893925058 -0.258142449914791 0.271942825972082 0.455457133627434 54.8456461231806 52.7978490626065)" fill="none" stroke="#070707" stroke-width="0.48" stroke-linecap="square" stroke-linejoin="miter" stroke-miterlimit="2" d="M0 0.6L0 0"/><path id="shape60" transform="matrix(0.432343893925058 -0.258142449914791 0.271942825972082 0.455457133627434 54.8418851761636 52.6147462751085)" fill="none" stroke="#070707" stroke-width="0.48" stroke-linecap="square" stroke-linejoin="miter" stroke-miterlimit="2" d="M0 0L0.78 0"/><path id="shape61" transform="matrix(0.432343893925058 -0.258142449914791 0.271942825972082 0.455457133627434 55.4845379224097 52.453451350662)" fill="none" stroke="#070707" stroke-width="0.48" stroke-linecap="square" stroke-linejoin="miter" stroke-miterlimit="2" d="M0.06 0L0 0.66"/><path id="shape62" transform="matrix(0.432343893925058 -0.258142449914791 0.271942825972082 0.455457133627434 55.6652929759119 52.0489693483889)" fill="none" stroke="#070707" stroke-width="0.48" stroke-linecap="square" stroke-linejoin="miter" stroke-miterlimit="2" d="M0 0L0.24 0"/><path id="shape63" transform="matrix(0.432343893925058 -0.258142449914791 0.271942825972082 0.455457133627434 55.8037908247374 51.6326484646776)" fill="none" stroke="#070707" stroke-width="0.48" stroke-linecap="square" stroke-linejoin="miter" stroke-miterlimit="2" d="M0 0L0.36 0"/><path id="shape64" transform="matrix(0.432343893925058 -0.258142449914791 0.271942825972082 0.455457133627434 56.0183944013933 52.8760915498861)" fill="none" stroke="#070707" stroke-width="0.48" stroke-linecap="square" stroke-linejoin="miter" stroke-miterlimit="2" d="M0 0L0 0.18"/><path id="shape65" transform="matrix(0.432343893925058 -0.258142449914791 0.271942825972082 0.455457133627434 54.6531074357124 55.9525225434494)" fill="none" stroke="#070707" stroke-width="0.48" stroke-linecap="square" stroke-linejoin="miter" stroke-miterlimit="2" d="M0 0L0 0.3"/><path id="shape66" transform="matrix(0.432343893925058 -0.258142449914791 0.271942825972082 0.455457133627434 55.0727479237799 56.1838707398377)" fill="none" stroke="#070707" stroke-width="0.48" stroke-linecap="square" stroke-linejoin="miter" stroke-miterlimit="2" d="M0.06 0L0 0.3"/><path id="shape67" transform="matrix(0.432343893925058 -0.258142449914791 0.271942825972082 0.455457133627434 54.1321925744164 56.6713150457279)" fill="none" stroke="#070707" stroke-width="0.48" stroke-linecap="square" stroke-linejoin="miter" stroke-miterlimit="2" d="M0.96 0L0 0"/><path id="shape68" transform="matrix(0.432343893925058 -0.258142449914791 0.271942825972082 0.455457133627434 53.4761548167383 56.6923231591914)" fill="none" stroke="#070707" stroke-width="0.48" stroke-linecap="square" stroke-linejoin="miter" stroke-miterlimit="2" d="M0.54 0L0 0"/><path id="shape69" transform="matrix(0.432343893925058 -0.258142449914791 0.271942825972082 0.455457133627434 53.2222255941046 55.3240818105382)" fill="none" stroke="#070707" stroke-width="0.48" stroke-linecap="square" stroke-linejoin="miter" stroke-miterlimit="2" d="M0 1.8L0 0"/><path id="shape70" transform="matrix(0.432343893925058 -0.258142449914791 0.271942825972082 0.455457133627434 53.5996088774954 55.5435911254883)" fill="none" stroke="#070707" stroke-width="0.48" stroke-linecap="square" stroke-linejoin="miter" stroke-miterlimit="2" d="M0 0L0.24 0.06"/><path id="shape71" transform="matrix(0.432343893925058 -0.258142449914791 0.271942825972082 0.455457133627434 52.6678482042288 55.6921572853591)" fill="none" stroke="#070707" stroke-width="0.48" stroke-linecap="square" stroke-linejoin="miter" stroke-miterlimit="2" d="M0.96 0.06L0 0"/><path id="shape72" transform="matrix(0.432343893925058 -0.258142449914791 0.271942825972082 0.455457133627434 53.0222224117727 55.8141957658411)" fill="none" stroke="#070707" stroke-width="0.48" stroke-linecap="square" stroke-linejoin="miter" stroke-miterlimit="2" d="M0.48 0L0 0"/><path id="shape73" transform="matrix(0.432343893925058 -0.258142449914791 0.271942825972082 0.455457133627434 52.213086410945 54.5179677225044)" fill="none" stroke="#070707" stroke-width="0.48" stroke-linecap="square" stroke-linejoin="miter" stroke-miterlimit="2" d="M0 1.92L0 0"/><path id="shape74" transform="matrix(0.432343893925058 -0.258142449914791 0.271942825972082 0.455457133627434 51.8959356789981 54.9297490569778)" fill="none" stroke="#070707" stroke-width="0.48" stroke-linecap="square" stroke-linejoin="miter" stroke-miterlimit="2" d="M0.06 0L0 0.96"/><path id="shape75" transform="matrix(0.432343893925058 -0.258142449914791 0.271942825972082 0.455457133627434 51.9775185296524 55.0663862018606)" fill="none" stroke="#070707" stroke-width="0.48" stroke-linecap="square" stroke-linejoin="miter" stroke-miterlimit="2" d="M0 0L0.48 0"/><path id="shape76" transform="matrix(0.432343893925058 -0.258142449914791 0.271942825972082 0.455457133627434 52.7637028538037 53.9667894601854)" fill="none" stroke="#070707" stroke-width="0.48" stroke-linecap="square" stroke-linejoin="miter" stroke-miterlimit="2" d="M0 0L0.06 0.24"/><path id="shape77" transform="matrix(0.432343893925058 -0.258142449914791 0.271942825972082 0.455457133627434 53.1490514249731 53.5513584596118)" fill="none" stroke="#070707" stroke-width="0.48" stroke-linecap="square" stroke-linejoin="miter" stroke-miterlimit="2" d="M0 0L0.6 0"/><path id="shape78" transform="matrix(0.432343893925058 -0.258142449914791 0.271942825972082 0.455457133627434 53.6084609527626 52.906359028925)" fill="none" stroke="#070707" stroke-width="0.48" stroke-linecap="square" stroke-linejoin="miter" stroke-miterlimit="2" d="M0 0L0.42 0"/><path id="shape79" transform="matrix(0.432343893925058 -0.258142449914791 0.271942825972082 0.455457133627434 53.8302004288789 53.2187996291054)" fill="none" stroke="#070707" stroke-width="0.48" stroke-linecap="square" stroke-linejoin="miter" stroke-miterlimit="2" d="M0 0L0 0.48"/><path id="shape80" transform="matrix(0.432343893925058 -0.258142449914791 0.271942825972082 0.455457133627434 53.1791964002804 52.7178268090516)" fill="none" stroke="#070707" stroke-width="0.48" stroke-linecap="square" stroke-linejoin="miter" stroke-miterlimit="2" d="M0.12 1.32L0 0"/><path id="shape81" transform="matrix(0.432343893925058 -0.258142449914791 0.271942825972082 0.455457133627434 50.2437003558479 55.2860757839104)" fill="none" stroke="#070707" stroke-width="0.48" stroke-linecap="square" stroke-linejoin="miter" stroke-miterlimit="2" d="M0 0L0 0.6"/><path id="shape82" transform="matrix(0.432343893925058 -0.258142449914791 0.271942825972082 0.455457133627434 50.4549863792311 55.3452701911013)" fill="none" stroke="#070707" stroke-width="0.48" stroke-linecap="square" stroke-linejoin="miter" stroke-miterlimit="2" d="M0 0L0.6 0"/><path id="shape83" transform="matrix(0.432343893925058 -0.258142449914791 0.271942825972082 0.455457133627434 50.8039408631215 54.6920815450766)" fill="none" stroke="#070707" stroke-width="0.48" stroke-linecap="square" stroke-linejoin="miter" stroke-miterlimit="2" d="M0 0.18L0 0"/><path id="shape84" transform="matrix(0.432343893925058 -0.258142449914791 0.271942825972082 0.455457133627434 50.69221303716 55.3889760507538)" fill="none" stroke="#070707" stroke-width="0.48" stroke-linecap="square" stroke-linejoin="miter" stroke-miterlimit="2" d="M0.06 0L0 1.26"/><path id="shape85" transform="matrix(0.432343893925058 -0.258142449914791 0.271942825972082 0.455457133627434 51.6390174984951 55.972821040875)" fill="none" stroke="#070707" stroke-width="0.48" stroke-linecap="square" stroke-linejoin="miter" stroke-miterlimit="2" d="M0 0L0 1.38"/><path id="shape86" transform="matrix(0.432343893925058 -0.258142449914791 0.271942825972082 0.455457133627434 51.2775073914908 56.7817850454211)" fill="none" stroke="#070707" stroke-width="0.48" stroke-linecap="square" stroke-linejoin="miter" stroke-miterlimit="2" d="M0 0L1.14 0"/><path id="shape87" transform="matrix(0.432343893925058 -0.258142449914791 0.271942825972082 0.455457133627434 50.9862972940896 57.1780778323563)" fill="none" stroke="#070707" stroke-width="0.48" stroke-linecap="square" stroke-linejoin="miter" stroke-miterlimit="2" d="M0 0L2.46 0.06"/><path id="shape88" transform="matrix(0.432343893925058 -0.258142449914791 0.271942825972082 0.455457133627434 51.9645195127943 56.2233074509018)" fill="none" stroke="#070707" stroke-width="0.48" stroke-linecap="square" stroke-linejoin="miter" stroke-miterlimit="2" d="M0 0L0.3 0"/><path id="shape89" transform="matrix(0.432343893925058 -0.258142449914791 0.271942825972082 0.455457133627434 53.5008226692214 57.3819183326684)" fill="none" stroke="#070707" stroke-width="0.48" stroke-linecap="square" stroke-linejoin="miter" stroke-miterlimit="2" d="M0.06 0L0 0.3"/><path id="shape90" transform="matrix(0.432343893925058 -0.258142449914791 0.271942825972082 0.455457133627434 54.1844598380819 57.9375460106753)" fill="none" stroke="#070707" stroke-width="0.48" stroke-linecap="square" stroke-linejoin="miter" stroke-miterlimit="2" d="M0 0L0.54 0"/><path id="shape91" transform="matrix(0.432343893925058 -0.258142449914791 0.271942825972082 0.455457133627434 51.6918429542458 51.6411982142148)" fill="none" stroke="#070707" stroke-width="0.48" stroke-linecap="square" stroke-linejoin="miter" stroke-miterlimit="2" d="M0 0L0.06 1.08"/><path id="shape92" transform="matrix(0.432343893925058 -0.258142449914791 0.271942825972082 0.455457133627434 51.8608717729523 51.6885537399675)" fill="none" stroke="#070707" stroke-width="0.48" stroke-linecap="square" stroke-linejoin="miter" stroke-miterlimit="2" d="M0 0.06L1.56 0"/><path id="shape93" transform="matrix(0.432343893925058 -0.258142449914791 0.271942825972082 0.455457133627434 52.5537470116537 50.9041573814353)" fill="none" stroke="#070707" stroke-width="0.48" stroke-linecap="square" stroke-linejoin="miter" stroke-miterlimit="2" d="M0 0.06L0.78 0"/><path id="shape94" transform="matrix(0.432343893925058 -0.258142449914791 0.271942825972082 0.455457133627434 51.1960393391774 52.0484399994505)" fill="none" stroke="#070707" stroke-width="0.48" stroke-linecap="square" stroke-linejoin="miter" stroke-miterlimit="2" d="M0.9 0L0 0"/><path id="shape95" transform="matrix(0.432343893925058 -0.258142449914791 0.271942825972082 0.455457133627434 51.2709296841158 52.1149337388418)" fill="none" stroke="#070707" stroke-width="0.48" stroke-linecap="square" stroke-linejoin="miter" stroke-miterlimit="2" d="M0 0L0.06 0.24"/><path id="shape96" transform="matrix(0.432343893925058 -0.258142449914791 0.271942825972082 0.455457133627434 51.3189926070197 54.1992078068109)" fill="none" stroke="#070707" stroke-width="0.48" stroke-linecap="square" stroke-linejoin="miter" stroke-miterlimit="2" d="M0 0L0 0.24"/><path id="shape97" transform="matrix(0.432343893925058 -0.258142449914791 0.271942825972082 0.455457133627434 50.4052646796907 52.6688717841233)" fill="none" stroke="#070707" stroke-width="0.48" stroke-linecap="square" stroke-linejoin="miter" stroke-miterlimit="2" d="M0 0L0 0.3"/><path id="shape98" transform="matrix(0.432343893925058 -0.258142449914791 0.271942825972082 0.455457133627434 50.9960361568455 52.5385539547534)" fill="none" stroke="#070707" stroke-width="0.48" stroke-linecap="square" stroke-linejoin="miter" stroke-miterlimit="2" d="M0 0L0.12 0.66"/><path id="shape99" transform="matrix(0.432343893925058 -0.258142449914791 0.271942825972082 0.455457133627434 52.5854933644267 52.9611040204279)" fill="none" stroke="#070707" stroke-width="0.48" stroke-linecap="square" stroke-linejoin="miter" stroke-miterlimit="2" d="M0 0L0.06 0.3"/><path id="shape100" transform="matrix(0.432343893925058 -0.258142449914791 0.271942825972082 0.455457133627434 53.4711784868291 54.9159501421649)" fill="none" stroke="#070707" stroke-width="0.48" stroke-linecap="square" stroke-linejoin="miter" stroke-miterlimit="2" d="M0 0L0.42 0.06"/><path id="shape101" transform="matrix(0.432343893925058 -0.258142449914791 0.271942825972082 0.455457133627434 52.7105488026497 54.7028502762774)" fill="none" stroke="#070707" stroke-width="0.48" stroke-linecap="square" stroke-linejoin="miter" stroke-miterlimit="2" d="M0 0L0.12 0.42"/><path id="shape102" transform="matrix(0.432343893925058 -0.258142449914791 0.271942825972082 0.455457133627434 51.0687669322326 55.3124231961996)" fill="none" stroke="#070707" stroke-width="0.48" stroke-linecap="square" stroke-linejoin="miter" stroke-miterlimit="2" d="M0 0L0 0.06"/><path id="shape103" transform="matrix(0.432343893925058 -0.258142449914791 0.271942825972082 0.455457133627434 50.6139477397784 56.4365875838888)" fill="none" stroke="#070707" stroke-width="0.48" stroke-linecap="square" stroke-linejoin="miter" stroke-miterlimit="2" d="M0 0L0 0.12"/><path id="shape104" transform="matrix(0.432343893925058 -0.258142449914791 0.271942825972082 0.455457133627434 54.462284924051 57.4009664127572)" fill="none" stroke="#070707" stroke-width="0.48" stroke-linecap="square" stroke-linejoin="miter" stroke-miterlimit="2" d="M0 0L1.08 0"/><path id="shape105" transform="matrix(0.432343893925058 -0.258142449914791 0.271942825972082 0.455457133627434 55.1894520796505 57.263349251187)" fill="none" stroke="#070707" stroke-width="0.48" stroke-linecap="square" stroke-linejoin="miter" stroke-miterlimit="2" d="M0 0L0.36 0.06"/><path id="shape106" transform="matrix(0.432343893925058 -0.258142449914791 0.271942825972082 0.455457133627434 56.1927855445828 55.9970281526896)" fill="none" stroke="#070707" stroke-width="0.48" stroke-linecap="square" stroke-linejoin="miter" stroke-miterlimit="2" d="M0 0.24L0 0"/><path id="shape107" transform="matrix(0.432343893925058 -0.258142449914791 0.271942825972082 0.455457133627434 55.3961477676984 56.8433787013755)" fill="none" stroke="#070707" stroke-width="0.48" stroke-linecap="square" stroke-linejoin="miter" stroke-miterlimit="2" d="M0 0L1.26 0"/><path id="shape108" transform="matrix(0.432343893925058 -0.258142449914791 0.271942825972082 0.455457133627434 54.3865651907944 57.0384105038615)" fill="none" stroke="#070707" stroke-width="0.48" stroke-linecap="square" stroke-linejoin="miter" stroke-miterlimit="2" d="M0 0.3L0.06 0"/><path id="shape109" transform="matrix(0.432343893925058 -0.258142449914791 0.271942825972082 0.455457133627434 52.8259801764579 56.4874125086421)" fill="none" stroke="#070707" stroke-width="0.48" stroke-linecap="square" stroke-linejoin="miter" stroke-miterlimit="2" d="M0 0.18L0 0"/><path id="shape110" transform="matrix(0.432343893925058 -0.258142449914791 0.271942825972082 0.455457133627434 57.5785360219855 54.4282354356253)" fill="none" stroke="#070707" stroke-width="0.48" stroke-linecap="square" stroke-linejoin="miter" stroke-miterlimit="2" d="M0 0.36L0 0"/><path id="shape111" transform="matrix(0.432343893925058 -0.258142449914791 0.271942825972082 0.455457133627434 55.474527863421 51.1990592671527)" fill="none" stroke="#070707" stroke-width="0.48" stroke-linecap="square" stroke-linejoin="miter" stroke-miterlimit="2" d="M0.06 0L0 0.6"/><path id="shape112" transform="matrix(0.432343893925058 -0.258142449914791 0.271942825972082 0.455457133627434 50.9980809280557 54.4278863537864)" fill="none" stroke="#070707" stroke-width="0.48" stroke-linecap="square" stroke-linejoin="miter" stroke-miterlimit="2" d="M0.6 0L0 0"/><path id="shape113" transform="matrix(0.432343893925058 -0.258142449914791 0.271942825972082 0.455457133627434 51.8273518452019 53.6361906630538)" fill="none" stroke="#070707" stroke-width="0.48" stroke-linecap="square" stroke-linejoin="miter" stroke-miterlimit="2" d="M0 0L0 0.72"/><path id="shape114" transform="matrix(0.432343893925058 -0.258142449914791 0.271942825972082 0.455457133627434 51.9102074779187 53.0677440869214)" fill="none" stroke="#070707" stroke-width="0.48" stroke-linecap="square" stroke-linejoin="miter" stroke-miterlimit="2" d="M0 0.06L0.3 0"/><path id="shape115" transform="matrix(0.432343893925058 -0.258142449914791 0.271942825972082 0.455457133627434 50.8102473742637 53.4650168905439)" fill="none" stroke="#070707" stroke-width="0.48" stroke-linecap="square" stroke-linejoin="miter" stroke-miterlimit="2" d="M0.06 0L0 0.54"/><path id="shape116" transform="matrix(0.432343893925058 -0.258142449914791 0.271942825972082 0.455457133627434 52.4106014283223 53.1396672586881)" fill="none" stroke="#070707" stroke-width="0.48" stroke-linecap="square" stroke-linejoin="miter" stroke-miterlimit="2" d="M0.18 0L0 0.42"/><path id="shape117" transform="matrix(0.432343893925058 -0.258142449914791 0.271942825972082 0.455457133627434 52.9164151023795 53.9868175569616)" fill="none" stroke="#070707" stroke-width="0.48" stroke-linecap="square" stroke-linejoin="miter" stroke-miterlimit="2" d="M0 0L0 0.6"/><path id="shape118" transform="matrix(0.432343893925058 -0.258142449914791 0.271942825972082 0.455457133627434 53.1180770613478 54.0888279406675)" fill="none" stroke="#070707" stroke-width="0.48" stroke-linecap="square" stroke-linejoin="miter" stroke-miterlimit="2" d="M0 0L1.14 0"/><path id="shape119" transform="matrix(0.432343893925058 -0.258142449914791 0.271942825972082 0.455457133627434 55.3589242921014 56.3095588864199)" fill="none" stroke="#070707" stroke-width="0.48" stroke-linecap="square" stroke-linejoin="miter" stroke-miterlimit="2" d="M0.12 0L0 0.6"/><path id="shape120" transform="matrix(0.432343893925058 -0.258142449914791 0.271942825972082 0.455457133627434 55.4626868302844 56.2476046962665)" fill="none" stroke="#070707" stroke-width="0.48" stroke-linecap="square" stroke-linejoin="miter" stroke-miterlimit="2" d="M0 0.06L0.42 0"/><path id="shape121" transform="matrix(0.432343893925058 -0.258142449914791 0.271942825972082 0.455457133627434 55.8555572954879 56.1983792706886)" fill="none" stroke="#070707" stroke-width="0.48" stroke-linecap="square" stroke-linejoin="miter" stroke-miterlimit="2" d="M0 0.42L0 0"/><path id="shape122" transform="matrix(0.432343893925058 -0.258142449914791 0.271942825972082 0.455457133627434 51.1604172410463 54.4050984740477)" fill="none" stroke="#070707" stroke-width="0.48" stroke-linecap="square" stroke-linejoin="miter" stroke-miterlimit="2" d="M0.06 0L0 0.78"/><path id="shape123" transform="matrix(0.432343893925058 -0.258142449914791 0.271942825972082 0.455457133627434 50.852061185196 54.4780016625018)" fill="none" stroke="#070707" stroke-width="0.48" stroke-linecap="square" stroke-linejoin="miter" stroke-miterlimit="2" d="M0.24 0.06L0 0"/><path id="shape124" transform="matrix(0.432343893925058 -0.258142449914791 0.271942825972082 0.455457133627434 51.7182269825359 50.6245637761567)" fill="none" stroke="#070707" stroke-width="0.48" stroke-linecap="square" stroke-linejoin="miter" stroke-miterlimit="2" d="M0 0L1.02 0.06"/><path id="shape125" transform="matrix(0.432343893925058 -0.258142449914791 0.271942825972082 0.455457133627434 52.4437353614989 49.8948222755775)" fill="none" stroke="#070707" stroke-width="0.48" stroke-linecap="square" stroke-linejoin="miter" stroke-miterlimit="2" d="M0.06 0L0 0.66"/><path id="shape126" transform="matrix(0.432343893925058 -0.258142449914791 0.271942825972082 0.455457133627434 51.7780735394059 49.958646365556)" fill="none" stroke="#070707" stroke-width="0.48" stroke-linecap="square" stroke-linejoin="miter" stroke-miterlimit="2" d="M0 0L1.38 0.06"/><path id="shape127" transform="matrix(0.432343893925058 -0.258142449914791 0.271942825972082 0.455457133627434 50.5425471456242 50.6592806708834)" fill="none" stroke="#070707" stroke-width="0.48" stroke-linecap="square" stroke-linejoin="miter" stroke-miterlimit="2" d="M0 0L0.24 0"/><path id="shape128" transform="matrix(0.432343893925058 -0.258142449914791 0.271942825972082 0.455457133627434 58.0228443625362 55.3491788054905)" fill="none" stroke="#070707" stroke-width="0.48" stroke-linecap="square" stroke-linejoin="miter" stroke-miterlimit="2" d="M0 0L0 0.3"/><path id="shape129" transform="translate(33.6300008023922, 64.3200015346377)" fill="none" stroke="#070707" stroke-width="0.48" stroke-linecap="square" stroke-linejoin="bevel" d="M3.03 4.8L8.07 1.92L0 0Z"/>
</svg>
