<?xml version="1.0" standalone="no"?>
<!DOCTYPE svg PUBLIC "-//W3C//DTD SVG 20010904//EN" "http://www.w3.org/TR/2001/REC-SVG-20010904/DTD/svg10.dtd">
<!-- Created using Krita: https://krita.org -->
<svg xmlns="http://www.w3.org/2000/svg" 
    xmlns:xlink="http://www.w3.org/1999/xlink"
    xmlns:krita="http://krita.org/namespaces/svg/krita"
    xmlns:sodipodi="http://sodipodi.sourceforge.net/DTD/sodipodi-0.dtd"
    width="72pt"
    height="72pt"
    viewBox="0 0 72 72">
<defs/>
<path id="shape0" transform="translate(7.92000058247211, 5.04000037066407)" fill="none" stroke="#070707" stroke-width="1.2" stroke-linecap="square" stroke-linejoin="bevel" d="M4.80792 1.40881L0 11.4L43.92 11.4L50.4 0L54.96 57.72L47.64 62.16L50.28 1.8M0.12 11.52L7.32 12.12L3.96 60.84L47.28 62.04"/><path id="shape1" transform="translate(12.8127751923057, 5.51543302980044)" fill="none" stroke="#070707" stroke-width="1.2" stroke-linecap="square" stroke-linejoin="miter" stroke-miterlimit="2" d="M0 0.59397L45.0568 0"/><rect id="shape2" transform="matrix(0.999750282706864 0.0223466379473096 -0.0223466379473096 0.999750282706864 20.3392956846348 26.8912267090242)" fill="none" stroke="#070707" stroke-width="1.2" stroke-linecap="square" stroke-linejoin="bevel" width="26.3472835437664" height="17.2429295097842" rx="1.11727265363005" ry="1.39845113741358"/><path id="shape3" transform="translate(56.5968256230547, 43.1052285105124)" fill="none" stroke="#070707" stroke-width="1.2" stroke-linecap="square" stroke-linejoin="bevel" d="M5.56318 19.1748L0.163179 20.2548L0 0"/><path id="shape4" transform="translate(56.1599996833369, 63.359999642739)" fill="none" stroke="#070707" stroke-width="1.2" stroke-linecap="square" stroke-linejoin="miter" stroke-miterlimit="2" d="M0.6 0L0 2.64"/><path id="shape5" transform="translate(23.4193769214958, 29.7833380414675)" fill="none" stroke="#070707" stroke-width="0.48" stroke-linecap="square" stroke-linejoin="miter" stroke-miterlimit="2" d="M0 0L3.0547 0"/><path id="shape6" transform="translate(28.0014289278754, 29.9530436713334)" fill="none" stroke="#070707" stroke-width="0.48" stroke-linecap="square" stroke-linejoin="miter" stroke-miterlimit="2" d="M0 0L0.0848528 0.424264"/><path id="shape7" transform="translate(29.2742211518698, 29.7833380414675)" fill="none" stroke="#070707" stroke-width="0.48" stroke-linecap="square" stroke-linejoin="miter" stroke-miterlimit="2" d="M0 0.0848528L2.46073 0"/><path id="shape8" transform="translate(33.2623034537187, 29.3590739668027)" fill="none" stroke="#070707" stroke-width="0.48" stroke-linecap="square" stroke-linejoin="miter" stroke-miterlimit="2" d="M0 0L1.6122 0"/><path id="shape9" transform="translate(34.8745069374449, 30.2924549310653)" fill="none" stroke="#070707" stroke-width="0.48" stroke-linecap="square" stroke-linejoin="miter" stroke-miterlimit="2" d="M0 0L1.12549 0.0848528"/><path id="shape10" transform="translate(37.5049442003665, 29.8681908564005)" fill="none" stroke="#070707" stroke-width="0.48" stroke-linecap="square" stroke-linejoin="miter" stroke-miterlimit="2" d="M0 0L2.20617 0"/><path id="shape11" transform="translate(42.0869962067461, 29.3590739668027)" fill="none" stroke="#070707" stroke-width="0.48" stroke-linecap="square" stroke-linejoin="miter" stroke-miterlimit="2" d="M0 0L0.0848528 0.933381"/><path id="shape12" transform="translate(36, 29.6136324116016)" fill="none" stroke="#070707" stroke-width="0.48" stroke-linecap="square" stroke-linejoin="miter" stroke-miterlimit="2" d="M0 0L2.18377 0.0848528"/><path id="shape13" transform="translate(27.7468704830766, 29.4439267817357)" fill="none" stroke="#070707" stroke-width="0.48" stroke-linecap="square" stroke-linejoin="miter" stroke-miterlimit="2" d="M0 0L2.46073 0"/><path id="shape14" transform="translate(25.2861388500209, 30.2076021161323)" fill="none" stroke="#070707" stroke-width="0.48" stroke-linecap="square" stroke-linejoin="miter" stroke-miterlimit="2" d="M0 0L2.37588 0.169706"/><path id="shape15" transform="matrix(0.79985783345866 0.0139701204304557 -0.0147949788463084 0.821288566083603 25.0447255637432 33.4502546116654)" fill="none" stroke="#070707" stroke-width="1.2" stroke-linecap="square" stroke-linejoin="bevel" d="M5.35191 6.14764C5.36328 5.81622 5.33349 5.79591 5.26254 6.08671C4.70298 8.23261 3.16505 9.06376 0.648747 8.58013C-0.225328 6.9903 -0.581327 5.18202 1.99025 4.4672C0.241854 3.75553 0.190222 2.24628 0.466762 0.639054C2.77189 -0.857017 4.98271 0.347707 5.52958 3.47933"/><path id="shape16" transform="matrix(0.799661535925999 0.0224813419533913 -0.0230840443748248 0.821099666489067 29.6056824528495 36.3956849903358)" fill="none" stroke="#070707" stroke-width="1.2" stroke-linecap="square" stroke-linejoin="miter" stroke-miterlimit="2" d="M0 0L8.76277 0"/><path id="shape0" transform="matrix(0.799661548270398 0.0224813423004365 -0.0230840447311738 0.821099679164407 29.492317503244 38.3942783183516)" fill="none" stroke="#070707" stroke-width="1.2" stroke-linecap="square" stroke-linejoin="miter" stroke-miterlimit="2" d="M0 0L8.76277 0"/><path id="shape01" transform="matrix(-0.799379322506148 -0.0309901478909276 -0.0313706295681727 0.820822547687572 41.1658557368993 33.8767985914225)" fill="none" stroke="#070707" stroke-width="1.2" stroke-linecap="square" stroke-linejoin="bevel" d="M5.35191 6.14764C5.36328 5.81622 5.33349 5.79591 5.26254 6.08671C4.70298 8.23261 3.16505 9.06376 0.648748 8.58013C-0.225327 6.9903 -0.581326 5.18202 1.99025 4.4672C0.241855 3.75553 0.190223 2.24628 0.466763 0.639054C2.77189 -0.857017 4.98271 0.347707 5.52958 3.47933"/><path id="shape02" transform="matrix(0.422838528064042 -0.0902145584320711 0.101389706421931 0.423866514330987 23.2349934245842 60.5788467845545)" fill="none" stroke="#070707" stroke-width="1.2" stroke-linecap="square" stroke-linejoin="bevel" d="M5.35191 6.14764C5.36328 5.81622 5.33349 5.79591 5.26254 6.08671C4.70298 8.23261 3.16505 9.06376 0.648748 8.58013C-0.225327 6.9903 -0.581326 5.18202 1.99025 4.4672C0.241855 3.75553 0.190223 2.24628 0.466763 0.639054C2.77189 -0.857017 4.98271 0.347707 5.52958 3.47933"/><path id="shape1" transform="matrix(0.42386663750041 -0.085816689722225 0.0970018917226947 0.424778747454847 26.0270636335584 61.5371606396032)" fill="none" stroke="#070707" stroke-width="1.2" stroke-linecap="square" stroke-linejoin="miter" stroke-miterlimit="2" d="M0 0L8.76277 0"/><path id="shape01" transform="matrix(0.423866644043653 -0.0858166910469801 0.0970018932201159 0.424778754012169 26.2330769755396 62.5780532603667)" fill="none" stroke="#070707" stroke-width="1.2" stroke-linecap="square" stroke-linejoin="miter" stroke-miterlimit="2" d="M0 0L8.76277 0"/><path id="shape011" transform="matrix(-0.424849206547475 0.0814096009342307 0.0926036552034107 0.425645342194506 31.7765734901161 58.8350770781915)" fill="none" stroke="#070707" stroke-width="1.2" stroke-linecap="square" stroke-linejoin="bevel" d="M5.35191 6.14764C5.36328 5.81622 5.33349 5.79591 5.26254 6.08671C4.70298 8.23261 3.16505 9.06376 0.648748 8.58013C-0.225327 6.9903 -0.581326 5.18202 1.99025 4.4672C0.241855 3.75553 0.190223 2.24628 0.466763 0.639054C2.77189 -0.857017 4.98271 0.347707 5.52958 3.47933"/><path id="shape02" transform="matrix(0.414197051872152 0.120862953146923 -0.135226838469555 0.415333700179704 14.6615082922942 58.5484415262944)" fill="none" stroke="#070707" stroke-width="1.2" stroke-linecap="square" stroke-linejoin="bevel" d="M5.35191 6.14764C5.36328 5.81622 5.33349 5.79591 5.26254 6.08671C4.70298 8.23261 3.16505 9.06376 0.648748 8.58013C-0.225327 6.9903 -0.581326 5.18202 1.99025 4.4672C0.241855 3.75553 0.190223 2.24628 0.466763 0.639054C2.77189 -0.857017 4.98271 0.347707 5.52958 3.47933"/><path id="shape11" transform="matrix(0.412773292052156 0.125161049495009 -0.139512382928803 0.414058749017168 16.5783649563654 60.694218190297)" fill="none" stroke="#070707" stroke-width="1.2" stroke-linecap="square" stroke-linejoin="miter" stroke-miterlimit="2" d="M0 0L8.76277 0"/><path id="shape011" transform="matrix(0.412773298424151 0.125161051427125 -0.139512385082459 0.414058755409006 16.2090218841759 61.6939234808795)" fill="none" stroke="#070707" stroke-width="1.2" stroke-linecap="square" stroke-linejoin="miter" stroke-miterlimit="2" d="M0 0L8.76277 0"/><path id="shape012" transform="matrix(-0.41130518376811 -0.129445698407549 -0.143782938040913 0.412739311277476 22.9871358139639 61.0581208656407)" fill="none" stroke="#070707" stroke-width="1.2" stroke-linecap="square" stroke-linejoin="bevel" d="M5.35191 6.14764C5.36328 5.81622 5.33349 5.79591 5.26254 6.08671C4.70298 8.23261 3.16505 9.06376 0.648748 8.58013C-0.225327 6.9903 -0.581326 5.18202 1.99025 4.4672C0.241855 3.75553 0.190223 2.24628 0.466763 0.639054C2.77189 -0.857017 4.98271 0.347707 5.52958 3.47933"/><path id="shape03" transform="matrix(0.422838507381104 -0.0902145540192704 0.101389701462503 0.423866493597765 44.0819250675745 61.2052577095617)" fill="none" stroke="#070707" stroke-width="1.2" stroke-linecap="square" stroke-linejoin="bevel" d="M5.35191 6.14764C5.36328 5.81622 5.33349 5.79591 5.26254 6.08671C4.70298 8.23261 3.16505 9.06376 0.648748 8.58013C-0.225327 6.9903 -0.581326 5.18202 1.99025 4.4672C0.241855 3.75553 0.190223 2.24628 0.466763 0.639054C2.77189 -0.857017 4.98271 0.347707 5.52958 3.47933"/><path id="shape11" transform="matrix(0.423866616767182 -0.0858166855245439 0.097001886977895 0.424778726677004 46.873994996956 62.1635716663129)" fill="none" stroke="#070707" stroke-width="1.2" stroke-linecap="square" stroke-linejoin="miter" stroke-miterlimit="2" d="M0 0L8.76277 0"/><path id="shape012" transform="matrix(0.423866623310425 -0.0858166868492989 0.0970018884753161 0.424778733234326 47.0800083288602 63.2044642361616)" fill="none" stroke="#070707" stroke-width="1.2" stroke-linecap="square" stroke-linejoin="miter" stroke-miterlimit="2" d="M0 0L8.76277 0"/><path id="shape0111" transform="matrix(-0.424849185766185 0.0814095969521202 0.0926036506737485 0.425645321374274 52.6235043770403 59.4614881569788)" fill="none" stroke="#070707" stroke-width="1.2" stroke-linecap="square" stroke-linejoin="bevel" d="M5.35191 6.14764C5.36328 5.81622 5.33349 5.79591 5.26254 6.08671C4.70298 8.23261 3.16505 9.06376 0.648748 8.58013C-0.225327 6.9903 -0.581326 5.18202 1.99025 4.4672C0.241855 3.75553 0.190223 2.24628 0.466763 0.639054C2.77189 -0.857017 4.98271 0.347707 5.52958 3.47933"/><path id="shape021" transform="matrix(0.414197031611907 0.120862947234971 -0.135226831855001 0.415333679863861 35.5084404138873 59.1748526376867)" fill="none" stroke="#070707" stroke-width="1.2" stroke-linecap="square" stroke-linejoin="bevel" d="M5.35191 6.14764C5.36328 5.81622 5.33349 5.79591 5.26254 6.08671C4.70298 8.23261 3.16505 9.06376 0.648748 8.58013C-0.225327 6.9903 -0.581326 5.18202 1.99025 4.4672C0.241855 3.75553 0.190223 2.24628 0.466763 0.639054C2.77189 -0.857017 4.98271 0.347707 5.52958 3.47933"/><path id="shape111" transform="matrix(0.412773271861554 0.125161043372818 -0.139512376104623 0.414058728763688 37.4252967819415 61.3206292582388)" fill="none" stroke="#070707" stroke-width="1.2" stroke-linecap="square" stroke-linejoin="miter" stroke-miterlimit="2" d="M0 0L8.76277 0"/><path id="shape0112" transform="matrix(0.412773278233548 0.125161045304934 -0.139512378258279 0.414058735155526 37.0559537278182 62.3203344999212)" fill="none" stroke="#070707" stroke-width="1.2" stroke-linecap="square" stroke-linejoin="miter" stroke-miterlimit="2" d="M0 0L8.76277 0"/><path id="shape0121" transform="matrix(-0.411305163649319 -0.129445692075776 -0.143782931007841 0.412739291088536 43.834067198907 61.6845317543909)" fill="none" stroke="#070707" stroke-width="1.2" stroke-linecap="square" stroke-linejoin="bevel" d="M5.35191 6.14764C5.36328 5.81622 5.33349 5.79591 5.26254 6.08671C4.70298 8.23261 3.16505 9.06376 0.648748 8.58013C-0.225327 6.9903 -0.581326 5.18202 1.99025 4.4672C0.241855 3.75553 0.190223 2.24628 0.466763 0.639054C2.77189 -0.857017 4.98271 0.347707 5.52958 3.47933"/>
</svg>
