<?xml version="1.0" standalone="no"?>
<!DOCTYPE svg PUBLIC "-//W3C//DTD SVG 20010904//EN" "http://www.w3.org/TR/2001/REC-SVG-20010904/DTD/svg10.dtd">
<!-- Created using Krita: https://krita.org -->
<svg xmlns="http://www.w3.org/2000/svg" 
    xmlns:xlink="http://www.w3.org/1999/xlink"
    xmlns:krita="http://krita.org/namespaces/svg/krita"
    xmlns:sodipodi="http://sodipodi.sourceforge.net/DTD/sodipodi-0.dtd"
    width="72pt"
    height="72pt"
    viewBox="0 0 72 72">
<defs/>
<ellipse id="shape0" transform="translate(18.3599997988056, 4.80000014632318)" rx="6.48000057797659" ry="5.99999984270257" cx="6.48000057797659" cy="5.99999984270257" fill="none" stroke="#000000" stroke-width="1.2" stroke-linecap="square" stroke-linejoin="bevel"/><path id="shape1" transform="translate(19.0800005816347, 2.16259096890303)" fill="none" stroke="#000000" stroke-width="1.2" stroke-linecap="square" stroke-linejoin="bevel" d="M0 5.27741C0 0.0483946 12.24 -4.13105 12.24 7.19741"/><ellipse id="shape2" transform="translate(29.1600008889134, 0.839999711011697)" rx="1.14000003475176" ry="1.38000019936535" cx="1.14000003475176" cy="1.38000019936535" fill="none" stroke="#000000" stroke-width="1.2" stroke-linecap="square" stroke-linejoin="bevel"/><path id="shape3" transform="translate(16.560000504815, 14.4000004389696)" fill="none" stroke="#000000" stroke-width="1.2" stroke-linecap="square" stroke-linejoin="bevel" d="M2.76 0L1.44 0.24L0 3.72L0.12 3.6Z"/><path id="shape4" transform="translate(16.9200005157892, 17.8800005450539)" fill="none" stroke="#000000" stroke-width="1.2" stroke-linecap="square" stroke-linejoin="bevel" d="M0 0L1.32 1.08L2.88 1.68L3.84 1.8L5.04 1.92L5.64 1.92L6.72 1.8L6.72 1.8"/><path id="shape5" transform="translate(23.6400007206417, 16.9200005157892)" fill="none" stroke="#000000" stroke-width="1.2" stroke-linecap="square" stroke-linejoin="bevel" d="M1.92 0.12L0.24 2.64L0 3.96L1.56 4.68L3.6 4.8L4.56 4.68L5.16 3.84L4.92 2.52L4.32 1.92L3.96 1.08L3.12 0L1.92 0.12"/><path id="shape6" transform="translate(28.9200008815972, 15.2400004645761)" fill="none" stroke="#000000" stroke-width="1.2" stroke-linecap="square" stroke-linejoin="bevel" d="M1.2 0L3.12 2.76L1.92 3.96L1.2 4.08L0.48 4.2L0 4.2L0 4.2"/><path id="shape7" transform="translate(19.9200006072412, 17.1600005231054)" fill="none" stroke="#000000" stroke-width="0.72" stroke-linecap="square" stroke-linejoin="bevel" d="M0 0L1.56 0.84"/><path id="shape8" transform="translate(4.92000014998126, 18.9600005779766)" fill="none" stroke="#000000" stroke-width="1.2" stroke-linecap="square" stroke-linejoin="bevel" d="M12.24 0L9.24 1.56L0 19.92L0.24 20.04L19.32 28.56L37.8 19.8L29.64 1.44L27 0.12"/><path id="shape9" transform="matrix(1.0253164556962 0 0 1 14.1600004316534 43.2000013169087)" fill="none" stroke="#000000" stroke-width="1.2" stroke-linecap="square" stroke-linejoin="bevel" d="M0 0L10.08 24.24L18.96 0.24"/><path id="shape10" transform="translate(14.174352095782, 67.0800020448666)" fill="none" stroke="#000000" stroke-width="1.2" stroke-linecap="square" stroke-linejoin="bevel" d="M7.66565 0C-2.68055 0 -2.38952 0.48 7.54565 0.48"/><path id="shape0" transform="matrix(-0.999992781168006 -0.00379748061720313 0.00379748061720313 -0.999992781168006 34.7918852593648 67.4385833643014)" fill="none" stroke="#000000" stroke-width="1.2" stroke-linecap="square" stroke-linejoin="bevel" d="M7.66565 0C-2.68055 0 -2.38952 0.48 7.54565 0.48"/><path id="shape11" transform="translate(8.8800002706979, 19.6800005999251)" fill="none" stroke="#000000" stroke-width="0.48" stroke-linecap="square" stroke-linejoin="bevel" d="M11.04 0L8.16 1.8L0 20.28"/><path id="shape12" transform="translate(15.3600004682342, 19.6800005999251)" fill="none" stroke="#000000" stroke-width="0.48" stroke-linecap="square" stroke-linejoin="bevel" d="M6.6 0L5.16 2.52L0 23.52"/><path id="shape13" transform="translate(30.120000918178, 19.4400005926089)" fill="none" stroke="#000000" stroke-width="0.48" stroke-linecap="square" stroke-linejoin="bevel" d="M0 0L1.50085 1.98857L8.88 20.88"/><path id="shape14" transform="translate(23.4000007133255, 21.4800006547963)" fill="none" stroke="#000000" stroke-width="1.2" stroke-linecap="square" stroke-linejoin="bevel" d="M0.84 0L0 12.48L5.76 12.6L4.32 0.24"/><path id="shape15" transform="translate(23.5200007169836, 34.0800010388947)" fill="none" stroke="#000000" stroke-width="0.72" stroke-linecap="square" stroke-linejoin="bevel" d="M0.36 0L0 3.36"/><path id="shape16" transform="translate(25.2000007681967, 33.9600010352366)" fill="none" stroke="#000000" stroke-width="0.72" stroke-linecap="square" stroke-linejoin="bevel" d="M0.12 0L0 3.36"/><path id="shape17" transform="translate(26.5200008084356, 33.8400010315785)" fill="none" stroke="#000000" stroke-width="0.72" stroke-linecap="square" stroke-linejoin="bevel" d="M0.36 0L0 3.84"/><path id="shape18" transform="translate(28.0800008559907, 34.2000010425527)" fill="none" stroke="#000000" stroke-width="0.72" stroke-linecap="square" stroke-linejoin="bevel" d="M0 0L0.36 3.12"/><path id="shape19" transform="translate(28.6800008742811, 22.0800006730867)" fill="none" stroke="#070707" stroke-width="0.48" stroke-linecap="square" stroke-linejoin="bevel" d="M0 0L4.68 20.64"/><path id="shape20" transform="matrix(1.01932853536373 0 0 1.01182671399478 49.2636664761283 40.7338458684118)" fill="none" stroke="#070707" stroke-width="0.96" stroke-linecap="square" stroke-linejoin="bevel" d="M9.34688 5.03497C8.61704 -0.225186 10.7828 -0.767769 4.73738 1.332C-1.40596 -1.32275 0.888362 -0.0339345 0 5.42059C1.16553 7.03512 2.56197 8.80656 4.75575 9.13147C6.82953 8.73637 8.51738 7.14771 9.35738 5.292"/><path id="shape21" transform="translate(51.4208050010369, 55.493740050624)" fill="none" stroke="#070707" stroke-width="1.2" stroke-linecap="square" stroke-linejoin="bevel" d="M0 0L2.885 8.9944L5.43058 0.169706"/><path id="shape22" transform="matrix(1 0 0 0.95121968030432 49.7237487303757 48.3661031290005)" fill="none" stroke="#070707" stroke-width="1.2" stroke-linecap="square" stroke-linejoin="bevel" d="M0.763675 0L0.763675 1.18794L0 1.78191L3.81838 3.22441L4.24264 3.47897L8.14587 1.69706L7.21249 1.18794L7.21249 0.509117"/><path id="shape23" transform="translate(45.3962552401894, 49.9783071709748)" fill="none" stroke="#070707" stroke-width="1.2" stroke-linecap="square" stroke-linejoin="bevel" d="M3.98808 0L2.63044 0.678823L0 10.0126L1.01823 11.1157L2.80014 11.9642L4.75176 12.3037L6.27911 12.4734L7.12764 12.4734L7.97616 12.4734"/><path id="shape01" transform="matrix(-0.999999974374716 0 0 0.999999974374716 62.1292232851722 49.9613426900656)" fill="none" stroke="#070707" stroke-width="1.2" stroke-linecap="square" stroke-linejoin="bevel" d="M3.98808 0L2.63044 0.678823L0 10.0126L1.01823 11.1157L2.80014 11.9642L4.75176 12.3037L6.27911 12.4734L7.12764 12.4734L7.97616 12.4734"/><path id="shape24" transform="translate(46.5452182928223, 61.7728482520708)" fill="none" stroke="#070707" stroke-width="1.2" stroke-linecap="square" stroke-linejoin="bevel" d="M1.31177 0C-1.77918 0 1.26924 2.885 3.51794 2.885"/><path id="shape02" transform="matrix(-0.999999972828268 0 0 0.999999972828268 61.8902593796595 61.7219365716226)" fill="none" stroke="#070707" stroke-width="1.2" stroke-linecap="square" stroke-linejoin="bevel" d="M1.31177 0C-1.77918 0 1.26924 2.885 3.51794 2.885"/><circle id="shape25" transform="matrix(0.859954224652109 0 0 1.12435931118657 50.4600024662798 53.9663904637527)" r="1.2" cx="1.2" cy="1.2" fill="none" stroke="#070707" stroke-width="0.48" stroke-linecap="square" stroke-linejoin="bevel"/><circle id="shape03" transform="matrix(0.859954204787433 0 0 1.12435928521422 55.8171383634643 54.1375918858286)" r="1.2" cx="1.2" cy="1.2" fill="none" stroke="#070707" stroke-width="0.48" stroke-linecap="square" stroke-linejoin="bevel"/><path id="shape26" transform="translate(47.2630180633809, 50.8268363015533)" fill="none" stroke="#070707" stroke-width="0.48" stroke-linecap="square" stroke-linejoin="bevel" d="M4.07294 0L2.37588 0.848528L0 9.92778"/><path id="shape27" transform="translate(51.081394747137, 51.6753644534991)" fill="none" stroke="#070707" stroke-width="0.48" stroke-linecap="square" stroke-linejoin="bevel" d="M1.69706 0L0.59397 0.763675L0 2.03647"/><path id="shape28" transform="translate(49.3843384432454, 56.1725636588118)" fill="none" stroke="#070707" stroke-width="0.48" stroke-linecap="square" stroke-linejoin="bevel" d="M0.933381 0L0 5.43058"/><path id="shape29" transform="translate(56.6816805499793, 50.8268363015533)" fill="none" stroke="#070707" stroke-width="0.48" stroke-linecap="square" stroke-linejoin="bevel" d="M0 0L0.848528 0.848528L3.47897 9.58837"/><path id="shape30" transform="translate(55.2600018914693, 51.3000017559242)" fill="none" stroke="#070707" stroke-width="0.48" stroke-linecap="square" stroke-linejoin="bevel" d="M0 0L0.78 0.9L1.26 2.4"/><path id="shape31" transform="translate(57.4800019674566, 56.7000019407584)" fill="none" stroke="#070707" stroke-width="0.48" stroke-linecap="square" stroke-linejoin="bevel" d="M0 0L0.6 4.56"/><path id="shape32" transform="translate(51.6000017661928, 58.8000020126383)" fill="none" stroke="#070707" stroke-width="0.48" stroke-linecap="square" stroke-linejoin="bevel" d="M0.24 0L0 2.88"/><rect id="shape33" transform="matrix(0.707107521953709 0.707106040418611 -0.707106040418611 0.707107521953709 54.1799989148113 51.9017662391993)" fill="none" stroke="#070707" stroke-width="0.48" stroke-linecap="square" stroke-linejoin="bevel" width="1.44" height="1.44"/>
</svg>
