<?xml version="1.0" standalone="no"?>
<!DOCTYPE svg PUBLIC "-//W3C//DTD SVG 20010904//EN" "http://www.w3.org/TR/2001/REC-SVG-20010904/DTD/svg10.dtd">
<!-- Created using Krita: https://krita.org -->
<svg xmlns="http://www.w3.org/2000/svg" 
    xmlns:xlink="http://www.w3.org/1999/xlink"
    xmlns:krita="http://krita.org/namespaces/svg/krita"
    xmlns:sodipodi="http://sodipodi.sourceforge.net/DTD/sodipodi-0.dtd"
    width="72pt"
    height="72pt"
    viewBox="0 0 72 72">
<defs/>
<path id="shape0" transform="matrix(1.33079518518905 0 0 1.27599850490184 8.96531556972444 4.72482175626635)" fill="none" stroke="#000000" stroke-width="1.2" stroke-linecap="square" stroke-linejoin="bevel" d="M7.70033 0L18.6694 0.000713204L18.6885 12.5439C21.0221 13.6409 25.8959 15.0368 25.6484 15.8302L25.6854 26.5803M25.7494 45.1334M20.4094 45.1207L0 45.049L0.201956 16.5902C0.120687 16.1569 0.295978 15.6901 7.08937 12.6007L7.10636 0.0636396"/><path id="shape1" transform="matrix(1.33079518518905 0 0 1.27599850490184 23.2705253638556 29.5311440555087)" fill="none" stroke="#000000" stroke-width="1.2" stroke-linecap="square" stroke-linejoin="bevel" d="M0 4.02L0 0L3.84 0L3.84 4.02"/><path id="shape0" transform="matrix(-1.33037296823243 -0.0321384799728782 0.0335186399066284 -1.2755936731055 28.2684470775484 45.1969210479286)" fill="none" stroke="#000000" stroke-width="1.2" stroke-linecap="square" stroke-linejoin="bevel" d="M0 4.02L0 0L3.84 0L3.84 4.02"/><path id="shape01" transform="matrix(0.010546972393838 1.27595839831661 -1.33075335626032 0.01011269138599 33.7764621065259 34.8499103906804)" fill="none" stroke="#000000" stroke-width="1.2" stroke-linecap="square" stroke-linejoin="bevel" d="M0 4.02L0 0L3.84 0L3.84 4.02"/><path id="shape02" transform="matrix(0.0155079071431283 -1.27591183199985 1.33070479019234 0.014869355216353 17.8481521873062 39.7902351615852)" fill="none" stroke="#000000" stroke-width="1.2" stroke-linecap="square" stroke-linejoin="bevel" d="M0 4.02L0 0L3.84 0L3.84 4.02"/><path id="shape2" transform="matrix(1.33079518518905 0 0 1.27599850490184 18.878901137147 8.93652708825626)" fill="none" stroke="#000000" stroke-width="1.2" stroke-linecap="square" stroke-linejoin="miter" stroke-miterlimit="2" d="M0 0.06L10.68 0"/><ellipse id="shape3" transform="matrix(1.33079518518905 0 0 1.27599850490184 33.0175504101796 38.1824123319718)" rx="11.277893981797" ry="11.4" cx="11.277893981797" cy="11.4" fill="none" stroke="#000000" stroke-width="1.2" stroke-linecap="square" stroke-linejoin="bevel"/><ellipse id="shape4" transform="matrix(1.20307893005769 -0.545449502510815 0.568873371651008 1.15354108063928 53.334135176583 44.407785220486)" rx="1.32" ry="1.56" cx="1.32" cy="1.56" fill="#050604" fill-rule="evenodd" stroke="#000000" stroke-width="1.2" stroke-linecap="square" stroke-linejoin="bevel"/><path id="shape03" transform="matrix(0.28364184124141 0.115190201523423 -0.0860502670034181 0.226537640600624 49.415672503313 60.5551189761959)" fill="none" stroke="#070707" stroke-width="0.48" stroke-linecap="square" stroke-linejoin="bevel" d="M9.05289 0.060018C6.92245 -0.241994 5.37001 0.48425 4.13911 4.82361C2.66724 8.61429 -0.678067 9.09498 0.121839 13.4871C0.806628 14.7278 2.32439 17.2689 7.12219 14.8024C8.94735 14.3784 8.17763 14.3385 10.389 14.5902C14.3241 17.5092 17.2854 15.3994 17.3251 13.949C18.8746 11.4451 14.9825 8.77165 13.9104 5.12913C13.1229 0.548703 11.1879 -0.0911033 9.06594 0.0767468"/><ellipse id="shape1" transform="matrix(0.293875276797805 0.0767199567563503 -0.038660887744455 0.242285231434372 49.0385158706581 60.0796631324082)" rx="2.28" ry="3.6" cx="2.28" cy="3.6" fill="none" stroke="#070707" stroke-width="0.48" stroke-linecap="square" stroke-linejoin="bevel"/><ellipse id="shape01" transform="matrix(0.291844275578293 0.0875153993349249 -0.051809815437156 0.238598274904332 51.1191198866121 59.1835619056003)" rx="2.28" ry="3.6" cx="2.28" cy="3.6" fill="none" stroke="#070707" stroke-width="0.48" stroke-linecap="square" stroke-linejoin="bevel"/><ellipse id="shape011" transform="matrix(0.247584737387785 0.174715550213741 -0.16296973944899 0.184560446525208 53.484215619699 60.0874295708969)" rx="2.28" ry="3.6" cx="2.28" cy="3.6" fill="none" stroke="#070707" stroke-width="0.48" stroke-linecap="square" stroke-linejoin="bevel"/><ellipse id="shape02" transform="matrix(0.251977233827205 0.169568647271257 -0.156092318184593 0.189300173720655 54.0203542037574 62.1701776367962)" rx="2.28" ry="3.6" cx="2.28" cy="3.6" fill="none" stroke="#070707" stroke-width="0.48" stroke-linecap="square" stroke-linejoin="bevel"/><path id="shape04" transform="matrix(0.219105114840572 -0.207599309356551 0.185690384001148 0.162563530131897 55.3914340974935 59.1640111510652)" fill="none" stroke="#070707" stroke-width="0.48" stroke-linecap="square" stroke-linejoin="bevel" d="M9.05289 0.060018C6.92245 -0.241994 5.37001 0.48425 4.13911 4.82361C2.66724 8.61429 -0.678067 9.09498 0.121839 13.4871C0.806628 14.7278 2.32439 17.2689 7.12219 14.8024C8.94735 14.3784 8.17763 14.3385 10.389 14.5902C14.3241 17.5092 17.2854 15.3994 17.3251 13.949C18.8746 11.4451 14.9825 8.77165 13.9104 5.12913C13.1229 0.548703 11.1879 -0.0911033 9.06594 0.0767468"/><ellipse id="shape11" transform="matrix(0.185903613837717 -0.231322868372518 0.218924225296951 0.126546849594021 54.7892928156337 59.3173151734369)" rx="2.28" ry="3.6" cx="2.28" cy="3.6" fill="none" stroke="#070707" stroke-width="0.48" stroke-linecap="square" stroke-linejoin="bevel"/><ellipse id="shape012" transform="matrix(0.195540716485324 -0.225410936151984 0.210361104137178 0.13680014971784 54.7175097399641 57.1314472165125)" rx="2.28" ry="3.6" cx="2.28" cy="3.6" fill="none" stroke="#070707" stroke-width="0.48" stroke-linecap="square" stroke-linejoin="bevel"/><ellipse id="shape011" transform="matrix(0.262776481796131 -0.152962713465457 0.115915859796033 0.214771458506528 56.4898716265667 55.3788534071503)" rx="2.28" ry="3.6" cx="2.28" cy="3.6" fill="none" stroke="#070707" stroke-width="0.48" stroke-linecap="square" stroke-linejoin="bevel"/><ellipse id="shape021" transform="matrix(0.259485893824414 -0.158817098307273 0.123105795328859 0.210479216040432 58.7025512278989 55.6967181650934)" rx="2.28" ry="3.6" cx="2.28" cy="3.6" fill="none" stroke="#070707" stroke-width="0.48" stroke-linecap="square" stroke-linejoin="bevel"/><path id="shape05" transform="matrix(0.283641832299197 0.115190197891888 -0.086050264290561 0.226537633458703 51.1437178818164 49.614164624583)" fill="none" stroke="#070707" stroke-width="0.48" stroke-linecap="square" stroke-linejoin="bevel" d="M9.05289 0.060018C6.92245 -0.241994 5.37001 0.48425 4.13911 4.82361C2.66724 8.61429 -0.678067 9.09498 0.121839 13.4871C0.806628 14.7278 2.32439 17.2689 7.12219 14.8024C8.94735 14.3784 8.17763 14.3385 10.389 14.5902C14.3241 17.5092 17.2854 15.3994 17.3251 13.949C18.8746 11.4451 14.9825 8.77165 13.9104 5.12913C13.1229 0.548703 11.1879 -0.0911033 9.06594 0.0767468"/><ellipse id="shape12" transform="matrix(0.293875267532969 0.0767199543376443 -0.0386608865256155 0.242285223795985 50.7665611596635 49.1387087470429)" rx="2.28" ry="3.6" cx="2.28" cy="3.6" fill="none" stroke="#070707" stroke-width="0.48" stroke-linecap="square" stroke-linejoin="bevel"/><ellipse id="shape013" transform="matrix(0.291844266377488 0.0875153965758775 -0.0518098138037779 0.238598267382181 52.8471651100236 48.2426075484859)" rx="2.28" ry="3.6" cx="2.28" cy="3.6" fill="none" stroke="#070707" stroke-width="0.48" stroke-linecap="square" stroke-linejoin="bevel"/><ellipse id="shape0111" transform="matrix(0.247584729582324 0.174715544705584 -0.162969734311138 0.184560440706677 55.2122607685476 49.1464751852866)" rx="2.28" ry="3.6" cx="2.28" cy="3.6" fill="none" stroke="#070707" stroke-width="0.48" stroke-linecap="square" stroke-linejoin="bevel"/><ellipse id="shape022" transform="matrix(0.251977225883265 0.169568641925363 -0.15609231326356 0.189300167752697 55.7483993357034 51.2292231855244)" rx="2.28" ry="3.6" cx="2.28" cy="3.6" fill="none" stroke="#070707" stroke-width="0.48" stroke-linecap="square" stroke-linejoin="bevel"/><path id="shape06" transform="matrix(0.244965023075439 -0.179065919358071 0.162514261197689 0.183972920930791 43.2964850484055 57.0664835609949)" fill="none" stroke="#070707" stroke-width="0.48" stroke-linecap="square" stroke-linejoin="bevel" d="M9.05289 0.060018C6.92245 -0.241994 5.37001 0.48425 4.13911 4.82361C2.66724 8.61429 -0.678067 9.09498 0.121839 13.4871C0.806628 14.7278 2.32439 17.2689 7.12219 14.8024C8.94735 14.3784 8.17763 14.3385 10.389 14.5902C14.3241 17.5092 17.2854 15.3994 17.3251 13.949C18.8746 11.4451 14.9825 8.77165 13.9104 5.12913C13.1229 0.548703 11.1879 -0.0911033 9.06594 0.0767468"/><ellipse id="shape13" transform="matrix(0.215195694266863 -0.206661244942786 0.200273714680642 0.152321268869636 42.6788538311963 57.144789772515)" rx="2.28" ry="3.6" cx="2.28" cy="3.6" fill="none" stroke="#070707" stroke-width="0.48" stroke-linecap="square" stroke-linejoin="bevel"/><ellipse id="shape014" transform="matrix(0.223966330774933 -0.19961751139007 0.190414878576659 0.161441893459748 42.8988400649305 54.9680340987618)" rx="2.28" ry="3.6" cx="2.28" cy="3.6" fill="none" stroke="#070707" stroke-width="0.48" stroke-linecap="square" stroke-linejoin="bevel"/><ellipse id="shape0112" transform="matrix(0.281000512071849 -0.119528540976116 0.0863565603733067 0.227208194635567 44.890150000477 53.446849956072)" rx="2.28" ry="3.6" cx="2.28" cy="3.6" fill="none" stroke="#070707" stroke-width="0.48" stroke-linecap="square" stroke-linejoin="bevel"/><ellipse id="shape023" transform="matrix(0.278516743294774 -0.125737962610094 0.0940593802266605 0.22383163444003 47.0423636505081 54.0330905289345)" rx="2.28" ry="3.6" cx="2.28" cy="3.6" fill="none" stroke="#070707" stroke-width="0.48" stroke-linecap="square" stroke-linejoin="bevel"/><path id="shape07" transform="matrix(0.283641832299197 0.115190197891888 -0.086050264290561 0.226537633458703 37.8189554113041 58.6007458827067)" fill="none" stroke="#070707" stroke-width="0.48" stroke-linecap="square" stroke-linejoin="bevel" d="M9.05289 0.060018C6.92245 -0.241994 5.37001 0.48425 4.13911 4.82361C2.66724 8.61429 -0.678067 9.09498 0.121839 13.4871C0.806628 14.7278 2.32439 17.2689 7.12219 14.8024C8.94735 14.3784 8.17763 14.3385 10.389 14.5902C14.3241 17.5092 17.2854 15.3994 17.3251 13.949C18.8746 11.4451 14.9825 8.77165 13.9104 5.12913C13.1229 0.548703 11.1879 -0.0911033 9.06594 0.0767468"/><ellipse id="shape14" transform="matrix(0.293875267532969 0.0767199543376443 -0.0386608865256155 0.242285223795985 37.4417986891512 58.1252900051666)" rx="2.28" ry="3.6" cx="2.28" cy="3.6" fill="none" stroke="#070707" stroke-width="0.48" stroke-linecap="square" stroke-linejoin="bevel"/><ellipse id="shape015" transform="matrix(0.291844266377488 0.0875153965758775 -0.0518098138037779 0.238598267382181 39.5224026395113 57.2291888066097)" rx="2.28" ry="3.6" cx="2.28" cy="3.6" fill="none" stroke="#070707" stroke-width="0.48" stroke-linecap="square" stroke-linejoin="bevel"/><ellipse id="shape0113" transform="matrix(0.247584729582324 0.174715544705584 -0.162969734311138 0.184560440706677 41.8874982980352 58.1330564434104)" rx="2.28" ry="3.6" cx="2.28" cy="3.6" fill="none" stroke="#070707" stroke-width="0.48" stroke-linecap="square" stroke-linejoin="bevel"/><ellipse id="shape024" transform="matrix(0.251977225883265 0.169568641925363 -0.15609231326356 0.189300167752697 42.4236368651911 60.2158044436481)" rx="2.28" ry="3.6" cx="2.28" cy="3.6" fill="none" stroke="#070707" stroke-width="0.48" stroke-linecap="square" stroke-linejoin="bevel"/><path id="shape08" transform="matrix(0.283641832299197 0.115190197891888 -0.086050264290561 0.226537633458703 37.7060336954523 47.2321792308634)" fill="none" stroke="#070707" stroke-width="0.48" stroke-linecap="square" stroke-linejoin="bevel" d="M9.05289 0.060018C6.92245 -0.241994 5.37001 0.48425 4.13911 4.82361C2.66724 8.61429 -0.678067 9.09498 0.121839 13.4871C0.806628 14.7278 2.32439 17.2689 7.12219 14.8024C8.94735 14.3784 8.17763 14.3385 10.389 14.5902C14.3241 17.5092 17.2854 15.3994 17.3251 13.949C18.8746 11.4451 14.9825 8.77165 13.9104 5.12913C13.1229 0.548703 11.1879 -0.0911033 9.06594 0.0767468"/><ellipse id="shape15" transform="matrix(0.293875267532969 0.0767199543376443 -0.0386608865256155 0.242285223795985 37.3288769732994 46.7567233533233)" rx="2.28" ry="3.6" cx="2.28" cy="3.6" fill="none" stroke="#070707" stroke-width="0.48" stroke-linecap="square" stroke-linejoin="bevel"/><ellipse id="shape016" transform="matrix(0.291844266377488 0.0875153965758775 -0.0518098138037779 0.238598267382181 39.4094809236595 45.8606221547663)" rx="2.28" ry="3.6" cx="2.28" cy="3.6" fill="none" stroke="#070707" stroke-width="0.48" stroke-linecap="square" stroke-linejoin="bevel"/><ellipse id="shape0114" transform="matrix(0.247584729582324 0.174715544705584 -0.162969734311138 0.184560440706677 41.7745765821834 46.764489791567)" rx="2.28" ry="3.6" cx="2.28" cy="3.6" fill="none" stroke="#070707" stroke-width="0.48" stroke-linecap="square" stroke-linejoin="bevel"/><ellipse id="shape025" transform="matrix(0.251977225883265 0.169568641925363 -0.15609231326356 0.189300167752697 42.3107151493393 48.8472377918048)" rx="2.28" ry="3.6" cx="2.28" cy="3.6" fill="none" stroke="#070707" stroke-width="0.48" stroke-linecap="square" stroke-linejoin="bevel"/><path id="shape09" transform="matrix(0.25623855600993 -0.16392072388871 0.150109848125646 0.193419687557593 44.2692954757633 45.6216204301977)" fill="none" stroke="#070707" stroke-width="0.48" stroke-linecap="square" stroke-linejoin="bevel" d="M9.05289 0.060018C6.92245 -0.241994 5.37001 0.48425 4.13911 4.82361C2.66724 8.61429 -0.678067 9.09498 0.121839 13.4871C0.806628 14.7278 2.32439 17.2689 7.12219 14.8024C8.94735 14.3784 8.17763 14.3385 10.389 14.5902C14.3241 17.5092 17.2854 15.3994 17.3251 13.949C18.8746 11.4451 14.9825 8.77165 13.9104 5.12913C13.1229 0.548703 11.1879 -0.0911033 9.06594 0.0767468"/><ellipse id="shape16" transform="matrix(0.228340549520467 -0.193258620958806 0.189873003702601 0.164110586740086 43.6477473804916 45.6624815521529)" rx="2.28" ry="3.6" cx="2.28" cy="3.6" fill="none" stroke="#070707" stroke-width="0.48" stroke-linecap="square" stroke-linejoin="bevel"/><ellipse id="shape017" transform="matrix(0.236631203435447 -0.185699335264807 0.179434760410689 0.172617881242912 44.0102494358605 43.5033273069712)" rx="2.28" ry="3.6" cx="2.28" cy="3.6" fill="none" stroke="#070707" stroke-width="0.48" stroke-linecap="square" stroke-linejoin="bevel"/><ellipse id="shape0115" transform="matrix(0.288292582250764 -0.102325840212071 0.0712639228651879 0.231971115588723 46.0975072342733 42.1053879058266)" rx="2.28" ry="3.6" cx="2.28" cy="3.6" fill="none" stroke="#070707" stroke-width="0.48" stroke-linecap="square" stroke-linejoin="bevel"/><ellipse id="shape026" transform="matrix(0.286221528912331 -0.108672897876887 0.0791732029795238 0.229066316401217 48.2069501824411 42.820405735868)" rx="2.28" ry="3.6" cx="2.28" cy="3.6" fill="none" stroke="#070707" stroke-width="0.48" stroke-linecap="square" stroke-linejoin="bevel"/><path id="shape010" transform="matrix(0.212709000353485 -0.213627335369379 0.190547522755532 0.157311335242618 31.232778120737 55.724426273384)" fill="none" stroke="#070707" stroke-width="0.48" stroke-linecap="square" stroke-linejoin="bevel" d="M6.75272 0.0425854C4.62228 -0.259427 5.56512 0.997552 4.33422 5.33691C2.86235 9.12759 -0.683893 11.5202 0.116013 15.9123C0.800802 17.153 0.024216 17.2515 4.82202 14.785C6.64718 14.361 5.87746 14.3211 8.08883 14.5728C12.0239 17.4918 14.9852 15.382 15.0249 13.9316C16.5744 11.4277 12.6823 8.75422 11.6102 5.1117C10.8227 0.53127 9.47492 0.751622 7.35296 0.919472"/><ellipse id="shape027" transform="matrix(0.254553816426257 -0.165992974768894 0.129444303570261 0.206953674581414 33.9446265844301 52.6548152612014)" rx="2.28" ry="3.6" cx="2.28" cy="3.6" fill="none" stroke="#070707" stroke-width="0.48" stroke-linecap="square" stroke-linejoin="bevel"/>
</svg>
