<?xml version="1.0" standalone="no"?>
<!DOCTYPE svg PUBLIC "-//W3C//DTD SVG 20010904//EN" "http://www.w3.org/TR/2001/REC-SVG-20010904/DTD/svg10.dtd">
<!-- Created using Krita: https://krita.org -->
<svg xmlns="http://www.w3.org/2000/svg" 
    xmlns:xlink="http://www.w3.org/1999/xlink"
    xmlns:krita="http://krita.org/namespaces/svg/krita"
    xmlns:sodipodi="http://sodipodi.sourceforge.net/DTD/sodipodi-0.dtd"
    width="72pt"
    height="72pt"
    viewBox="0 0 72 72">
<defs/>
<path id="shape0" transform="translate(26.5860318867946, 10.7700000141043)" fill="none" stroke="#070707" stroke-width="0.72" stroke-linecap="square" stroke-linejoin="bevel" d="M9.41397 0C7.48522 0.0992365 4.59687 -0.12749 0 1.78822"/><path id="shape1" transform="translate(9.58028109375311, 5.29373824503306)" fill="none" stroke="#070707" stroke-width="0.72" stroke-linecap="square" stroke-linejoin="bevel" d="M16.7919 7.25354C14.1492 3.96761 12.9743 2.18629 9.53417 0C1.69042 9.00145 -4.13261 60.8952 3.73972 62.5063"/><path id="shape2" transform="translate(11.921820203313, 66.8215901075373)" fill="none" stroke="#070707" stroke-width="0.72" stroke-linecap="square" stroke-linejoin="bevel" d="M0 0C3.21803 3.47464 18.4207 3.61271 24.0782 3.61842"/><ellipse id="shape3" transform="matrix(1.06634263223368 0 0 1.19963117245233 27.3839331659513 18.6676192147285)" rx="0.929999566697081" ry="1.08" cx="0.929999566697081" cy="1.08" fill="#070707" fill-rule="evenodd" stroke="#070707" stroke-width="0.72" stroke-linecap="square" stroke-linejoin="bevel"/><text id="shape0" krita:useRichText="true" transform="matrix(-0.000123696288015009 0.99999998733585 -0.99999998733585 -0.000123696288015009 32.9330259756313 24.4140442438368)" fill="#070707" stroke="#000000" stroke-opacity="0" stroke-width="0" stroke-linecap="square" stroke-linejoin="bevel" font-family="Bahnschrift SemiBold" font-size="6" font-size-adjust="0.506836" font-stretch="normal" letter-spacing="0" word-spacing="0"><tspan x="0">3</tspan></text><path id="shape4" transform="translate(25.5600003380212, 25.4705719589743)" fill="none" stroke="#070707" stroke-width="0.72" stroke-linecap="square" stroke-linejoin="bevel" d="M7.56 0.449428C5.66833 -0.202717 4.38357 0.0555047 2.90812 0.0276993L0 20.7294C3.39095 21.7837 6.9495 22.0724 10.44 22.2894"/><path id="shape5" transform="translate(28.2559864188294, 28.5300009020202)" fill="none" stroke="#070707" stroke-width="0.72" stroke-linecap="square" stroke-linejoin="miter" stroke-miterlimit="2" d="M0 0.532087L7.32401 0"/><path id="shape6" transform="translate(33.5700010613676, 29.1300009209901)" fill="none" stroke="#070707" stroke-width="0.48" stroke-linecap="square" stroke-linejoin="miter" stroke-miterlimit="2" d="M1.32 0L0 1.38"/><path id="shape7" transform="translate(29.7409121950102, 32.4986265075892)" fill="none" stroke="#070707" stroke-width="0.48" stroke-linecap="square" stroke-linejoin="bevel" d="M6.25909 0.0636407L0.339409 0L0 2.58801C2.08636 2.6163 4.17273 2.77186 6.25909 2.80015"/><path id="shape8" transform="translate(21.1800003883412, 10.800000198021)" fill="none" stroke="#070707" stroke-width="0.48" stroke-linecap="square" stroke-linejoin="bevel" d="M0 0L1.8 1.92L0.42 1.92"/><path id="shape9" transform="translate(30.4200007132253, 26.4300006196761)" fill="none" stroke="#070707" stroke-width="0.24" stroke-linecap="square" stroke-linejoin="bevel" d="M0 0L2.67 0.48L1.11 0.99"/><path id="shape10" transform="translate(34.8426857599992, 29.6560576514331)" fill="none" stroke="#070707" stroke-width="0.24" stroke-linecap="square" stroke-linejoin="miter" stroke-miterlimit="2" d="M0.509117 0L0 1.15612"/><path id="shape11" transform="matrix(-1 0 0 1 45.2234243413468 10.7700000141043)" fill="none" stroke="#070707" stroke-width="0.72" stroke-linecap="square" stroke-linejoin="bevel" d="M9.41397 0C7.48522 0.0992365 4.59687 -0.12749 0 1.78822"/><path id="shape12" transform="matrix(-1 0 0 1 62.2291751343883 5.29373824503305)" fill="none" stroke="#070707" stroke-width="0.72" stroke-linecap="square" stroke-linejoin="bevel" d="M16.7919 7.25354C14.1492 3.96761 12.9743 2.18629 9.53417 0C1.69042 9.00145 -4.13261 60.8952 3.73972 62.5063"/><path id="shape13" transform="matrix(-1 0 0 1 59.8876360248284 66.8215901075373)" fill="none" stroke="#070707" stroke-width="0.72" stroke-linecap="square" stroke-linejoin="bevel" d="M0 0C3.21803 3.47464 18.4207 3.61271 24.0782 3.61842"/><ellipse id="shape14" transform="matrix(-1.06634263223368 0 0 1.19963117245233 44.6160668340487 18.6676192147285)" rx="0.929999566697081" ry="1.08" cx="0.929999566697081" cy="1.08" fill="#070707" fill-rule="evenodd" stroke="#070707" stroke-width="0.72" stroke-linecap="square" stroke-linejoin="bevel"/><text id="shape01" krita:useRichText="true" transform="matrix(0.000123696288015013 0.99999998733585 0.99999998733585 -0.000123696288015013 38.8764302525101 24.4140442438368)" fill="#070707" stroke="#000000" stroke-opacity="0" stroke-width="0" stroke-linecap="square" stroke-linejoin="bevel" font-family="Bahnschrift SemiBold" font-size="6" font-size-adjust="0.506836" font-stretch="normal" letter-spacing="0" word-spacing="0"><tspan x="0">3</tspan></text><path id="shape15" transform="matrix(-1 0 0 1 46.2494558901202 25.4705719589743)" fill="none" stroke="#070707" stroke-width="0.72" stroke-linecap="square" stroke-linejoin="bevel" d="M7.56 0.449428C5.66833 -0.202717 4.38357 0.0555047 2.90812 0.0276993L0 20.7294C3.39095 21.7837 6.9495 22.0724 10.44 22.2894"/><path id="shape16" transform="matrix(-1 0 0 1 43.553469809312 28.5300009020202)" fill="none" stroke="#070707" stroke-width="0.72" stroke-linecap="square" stroke-linejoin="miter" stroke-miterlimit="2" d="M0 0.532087L7.32401 0"/><path id="shape17" transform="matrix(-1 0 0 1 38.2394551667738 29.1300009209901)" fill="none" stroke="#070707" stroke-width="0.48" stroke-linecap="square" stroke-linejoin="miter" stroke-miterlimit="2" d="M1.32 0L0 1.38"/><path id="shape18" transform="matrix(-1 0 0 1 42.0685440331312 32.4986265075892)" fill="none" stroke="#070707" stroke-width="0.48" stroke-linecap="square" stroke-linejoin="bevel" d="M6.25909 0.0636407L0.339409 0L0 2.58801C2.08636 2.6163 4.17273 2.77186 6.25909 2.80015"/><path id="shape19" transform="matrix(-1 0 0 1 50.6294558398003 10.800000198021)" fill="none" stroke="#070707" stroke-width="0.48" stroke-linecap="square" stroke-linejoin="bevel" d="M0 0L1.8 1.92L0.42 1.92"/><path id="shape20" transform="matrix(-1 0 0 1 41.3894555149161 26.4300006196761)" fill="none" stroke="#070707" stroke-width="0.24" stroke-linecap="square" stroke-linejoin="bevel" d="M0 0L2.67 0.48L1.11 0.99"/><path id="shape21" transform="matrix(-1 0 0 1 36.9667704681422 29.6560576514331)" fill="none" stroke="#070707" stroke-width="0.24" stroke-linecap="square" stroke-linejoin="miter" stroke-miterlimit="2" d="M0.509117 0L0 1.15612"/><path id="shape22" transform="translate(31.522821208273, 33.7289944287712)" fill="none" stroke="#070707" stroke-width="0.24" stroke-linecap="square" stroke-linejoin="miter" stroke-miterlimit="2" d="M0 0L0.678823 0"/><path id="shape23" transform="translate(33.1350247155601, 33.7714208368577)" fill="none" stroke="#070707" stroke-width="0.24" stroke-linecap="square" stroke-linejoin="miter" stroke-miterlimit="2" d="M0.127279 0L0 0.254558"/><path id="shape24" transform="translate(33.8138472449442, 33.5592887964252)" fill="none" stroke="#070707" stroke-width="0.24" stroke-linecap="square" stroke-linejoin="miter" stroke-miterlimit="2" d="M0 0.127279L0.848528 0"/><path id="shape25" transform="translate(35.5109035684044, 34.0684056934632)" fill="none" stroke="#070707" stroke-width="0.24" stroke-linecap="square" stroke-linejoin="miter" stroke-miterlimit="2" d="M0 0L0.489096 0"/><path id="shape26" transform="translate(37.9716352374217, 33.8138472449442)" fill="none" stroke="#070707" stroke-width="0.24" stroke-linecap="square" stroke-linejoin="miter" stroke-miterlimit="2" d="M0 0.0424264L1.48492 0"/><path id="shape27" transform="translate(39.9656764174874, 33.4744359802522)" fill="none" stroke="#070707" stroke-width="0.24" stroke-linecap="square" stroke-linejoin="miter" stroke-miterlimit="2" d="M0.127279 0L0 0.212132"/><path id="shape28" transform="translate(40.0929556417469, 33.7289944287712)" fill="none" stroke="#070707" stroke-width="0.24" stroke-linecap="square" stroke-linejoin="miter" stroke-miterlimit="2" d="M0 0L0.848528 0"/>
</svg>
