<?xml version="1.0" standalone="no"?>
<!DOCTYPE svg PUBLIC "-//W3C//DTD SVG 20010904//EN" "http://www.w3.org/TR/2001/REC-SVG-20010904/DTD/svg10.dtd">
<!-- Created using Krita: https://krita.org -->
<svg xmlns="http://www.w3.org/2000/svg" 
    xmlns:xlink="http://www.w3.org/1999/xlink"
    xmlns:krita="http://krita.org/namespaces/svg/krita"
    xmlns:sodipodi="http://sodipodi.sourceforge.net/DTD/sodipodi-0.dtd"
    width="72pt"
    height="72pt"
    viewBox="0 0 72 72">
<defs/>
<path id="shape0" transform="translate(7.92000058247211, 5.04000037066407)" fill="none" stroke="#070707" stroke-width="1.2" stroke-linecap="square" stroke-linejoin="bevel" d="M4.80792 1.40881L0 11.4L43.92 11.4L50.4 0L54.96 57.72L47.64 62.16L50.28 1.8M0.12 11.52L7.32 12.12L3.96 60.84L47.28 62.04"/><path id="shape1" transform="translate(12.8127751923057, 5.51543302980044)" fill="none" stroke="#070707" stroke-width="1.2" stroke-linecap="square" stroke-linejoin="miter" stroke-miterlimit="2" d="M0 0.59397L45.0568 0"/><rect id="shape2" transform="matrix(0.999750282706864 0.0223466379473096 -0.0223466379473096 0.999750282706864 20.3392956846348 26.8912267090242)" fill="none" stroke="#070707" stroke-width="1.2" stroke-linecap="square" stroke-linejoin="bevel" width="26.3472835437664" height="17.2429295097842" rx="1.11727265363005" ry="1.39845113741358"/><path id="shape3" transform="translate(56.5968256230547, 43.1052285105124)" fill="none" stroke="#070707" stroke-width="1.2" stroke-linecap="square" stroke-linejoin="bevel" d="M5.56318 19.1748L0.163179 20.2548L0 0"/><path id="shape4" transform="translate(56.1599996833369, 63.359999642739)" fill="none" stroke="#070707" stroke-width="1.2" stroke-linecap="square" stroke-linejoin="miter" stroke-miterlimit="2" d="M0.6 0L0 2.64"/><path id="shape5" transform="translate(23.4193769214958, 29.7833380414675)" fill="none" stroke="#070707" stroke-width="0.48" stroke-linecap="square" stroke-linejoin="miter" stroke-miterlimit="2" d="M0 0L3.0547 0"/><path id="shape6" transform="translate(28.0014289278754, 29.9530436713334)" fill="none" stroke="#070707" stroke-width="0.48" stroke-linecap="square" stroke-linejoin="miter" stroke-miterlimit="2" d="M0 0L0.0848528 0.424264"/><path id="shape7" transform="translate(29.2742211518698, 29.7833380414675)" fill="none" stroke="#070707" stroke-width="0.48" stroke-linecap="square" stroke-linejoin="miter" stroke-miterlimit="2" d="M0 0.0848528L2.46073 0"/><path id="shape8" transform="translate(33.2623034537187, 29.3590739668027)" fill="none" stroke="#070707" stroke-width="0.48" stroke-linecap="square" stroke-linejoin="miter" stroke-miterlimit="2" d="M0 0L1.6122 0"/><path id="shape9" transform="translate(34.8745069374449, 30.2924549310653)" fill="none" stroke="#070707" stroke-width="0.48" stroke-linecap="square" stroke-linejoin="miter" stroke-miterlimit="2" d="M0 0L1.12549 0.0848528"/><path id="shape10" transform="translate(37.5049442003665, 29.8681908564005)" fill="none" stroke="#070707" stroke-width="0.48" stroke-linecap="square" stroke-linejoin="miter" stroke-miterlimit="2" d="M0 0L2.20617 0"/><path id="shape11" transform="translate(42.0869962067461, 29.3590739668027)" fill="none" stroke="#070707" stroke-width="0.48" stroke-linecap="square" stroke-linejoin="miter" stroke-miterlimit="2" d="M0 0L0.0848528 0.933381"/><path id="shape12" transform="translate(36, 29.6136324116016)" fill="none" stroke="#070707" stroke-width="0.48" stroke-linecap="square" stroke-linejoin="miter" stroke-miterlimit="2" d="M0 0L2.18377 0.0848528"/><path id="shape13" transform="translate(27.7468704830766, 29.4439267817357)" fill="none" stroke="#070707" stroke-width="0.48" stroke-linecap="square" stroke-linejoin="miter" stroke-miterlimit="2" d="M0 0L2.46073 0"/><path id="shape14" transform="translate(25.2861388500209, 30.2076021161323)" fill="none" stroke="#070707" stroke-width="0.48" stroke-linecap="square" stroke-linejoin="miter" stroke-miterlimit="2" d="M0 0L2.37588 0.169706"/><path id="shape15" transform="matrix(0.999384575093344 0.0350780710059206 -0.0350780710059206 0.999384575093344 24.9237403028365 34.6013531927078)" fill="none" stroke="#070707" stroke-width="1.2" stroke-linecap="square" stroke-linejoin="bevel" d="M0.381838 2.50316C2.10271 1.31075 3.89716 0.191922 6.61852 0C9.53446 0.41737 12.1709 0.795844 13.9375 1.75905L17.1775 0.139054L17.0978 5.47301L13.831 3.47897C12.8551 4.19995 10.4033 5.28772 6.53367 5.43058C3.98298 5.06636 1.65123 4.40111 0 2.80014"/><path id="shape0" transform="matrix(0.974735451815351 0.223362672661736 -0.223362672661736 0.974735451815351 44.3386098346384 60.5266745772199)" fill="none" stroke="#070707" stroke-width="1.2" stroke-linecap="square" stroke-linejoin="bevel" d="M0.215721 1.46012C1.18794 0.764577 2.20172 0.111951 3.73916 0C5.38654 0.243457 6.87601 0.464226 7.87406 1.02608L9.70451 0.081112L9.65948 3.19248L7.81389 2.02933C7.26255 2.44988 5.87739 3.08439 3.69123 3.16773C2.2502 2.95527 0.93287 2.56722 0 1.63336"/><path id="shape01" transform="matrix(0.974735433416642 0.223362668445633 -0.223362668445633 0.974735433416642 26.1464699246967 60.0037028251875)" fill="none" stroke="#070707" stroke-width="1.2" stroke-linecap="square" stroke-linejoin="bevel" d="M0.215721 1.46012C1.18794 0.764577 2.20172 0.111951 3.73916 0C5.38654 0.243457 6.87601 0.464226 7.87406 1.02608L9.70451 0.081112L9.65948 3.19248L7.81389 2.02933C7.26255 2.44988 5.87739 3.08439 3.69123 3.16773C2.2502 2.95527 0.93287 2.56722 0 1.63336"/><path id="shape02" transform="matrix(0.974192710562462 -0.225717986656027 0.225717986656027 0.974192710562462 35.1037172538911 59.0824454756507)" fill="none" stroke="#070707" stroke-width="1.2" stroke-linecap="square" stroke-linejoin="bevel" d="M0.215721 1.46012C1.18794 0.764577 2.20172 0.111951 3.73916 0C5.38654 0.243457 6.87601 0.464226 7.87406 1.02608L9.70451 0.081112L9.65948 3.19248L7.81389 2.02933C7.26255 2.44988 5.87739 3.08439 3.69123 3.16773C2.2502 2.95527 0.93287 2.56722 0 1.63336"/><path id="shape03" transform="matrix(0.974192697893734 -0.225717983720715 0.225717983720715 0.974192697893734 13.9709379039818 59.9940820447943)" fill="none" stroke="#070707" stroke-width="1.2" stroke-linecap="square" stroke-linejoin="bevel" d="M0.215721 1.46012C1.18794 0.764577 2.20172 0.111951 3.73916 0C5.38654 0.243457 6.87601 0.464226 7.87406 1.02608L9.70451 0.081112L9.65948 3.19248L7.81389 2.02933C7.26255 2.44988 5.87739 3.08439 3.69123 3.16773C2.2502 2.95527 0.93287 2.56722 0 1.63336"/>
</svg>
