<?xml version="1.0" standalone="no"?>
<!DOCTYPE svg PUBLIC "-//W3C//DTD SVG 20010904//EN" "http://www.w3.org/TR/2001/REC-SVG-20010904/DTD/svg10.dtd">
<!-- Created using Krita: https://krita.org -->
<svg xmlns="http://www.w3.org/2000/svg" 
    xmlns:xlink="http://www.w3.org/1999/xlink"
    xmlns:krita="http://krita.org/namespaces/svg/krita"
    xmlns:sodipodi="http://sodipodi.sourceforge.net/DTD/sodipodi-0.dtd"
    width="72pt"
    height="72pt"
    viewBox="0 0 72 72">
<defs/>
<path id="shape0" transform="translate(15.9598800423111, 13.3544825962152)" fill="none" stroke="#050604" stroke-width="1.2" stroke-linecap="square" stroke-linejoin="bevel" d="M40.08 4.67979L40.08 41.9823C40.08 43.8097 38.5986 45.291 36.7712 45.291C25.6171 45.291 14.4629 45.291 3.30876 45.291C1.48138 45.291 2.2031e-16 43.8097 4.44089e-16 41.9823L0 4.67979C0.112936 -1.55211 40.1933 -1.56775 40.08 4.67979Z"/><path id="shape1" transform="translate(16.2444128441306, 18.2294614674752)" fill="none" stroke="#050604" stroke-width="1.2" stroke-linecap="square" stroke-linejoin="miter" stroke-miterlimit="2" d="M0 0L39.4566 0.0848528"/><ellipse id="shape2" transform="matrix(1.08740286451228 0 0 1.0564879368159 25.9676258012513 31.6242527498749)" rx="9.2259957428459" ry="6.67619908593747" cx="9.2259957428459" cy="6.67619908593747" fill="none" stroke="#050604" stroke-width="1.2" stroke-linecap="square" stroke-linejoin="bevel"/><ellipse id="shape3" transform="matrix(0.818811301785812 0.695194134522065 -0.715536890605464 0.795532448089723 39.9596699074787 24.7644494518904)" rx="2.05038927897725" ry="3.07937474294963" cx="2.05038927897725" cy="3.07937474294963" fill="none" stroke="#050604" stroke-width="1.2" stroke-linecap="square" stroke-linejoin="bevel"/><path id="shape0" transform="matrix(1.0263599053453 0.348995617732301 -0.359207920128356 0.997180432585263 36.5342901654581 24.4376100806878)" sodipodi:type="arc" sodipodi:rx="2.05038927897725" sodipodi:ry="2.93395962590135" sodipodi:cx="2.05045784959385" sodipodi:cy="2.93401728945874" sodipodi:start="1.74163125601196" sodipodi:end="5.09432326845313" sodipodi:open="true" d="M2.81467 0.211463C2.08686 -0.206843 1.25604 0.00561894 0.674536 0.758755C0.0930277 1.51189 -0.137276 2.67373 0.0812842 3.75159C0.299844 4.82945 0.92897 5.63447 1.70188 5.82527" fill="none" stroke="#050604" stroke-width="1.2" stroke-linecap="square" stroke-linejoin="bevel"/><path id="shape4" transform="matrix(1.08740286451228 0 0 1.0564879368159 36.5292512859335 32.2678891498865)" fill="none" stroke="#050604" stroke-width="1.2" stroke-linecap="square" stroke-linejoin="miter" stroke-miterlimit="2" d="M0.0424264 12.134L0 0"/><path id="shape5" transform="matrix(1.08740286451228 0 0 1.0564879368159 33.3459640136336 32.1993949361163)" fill="none" stroke="#050604" stroke-width="1.2" stroke-linecap="square" stroke-linejoin="miter" stroke-miterlimit="2" d="M0.0424264 0L0 12.0067"/><path id="shape6" transform="matrix(1.08740286451228 0 0 1.0564879368159 42.2499414564434 33.7918707690063)" fill="none" stroke="#050604" stroke-width="1.2" stroke-linecap="square" stroke-linejoin="miter" stroke-miterlimit="2" d="M0 0L0 9.24896"/><circle id="shape7" transform="matrix(1.08740286451228 0 0 1.0564879368159 30.2585128753752 35.1277770802478)" r="0.359999999999999" cx="0.359999999999999" cy="0.359999999999999" fill="#000000" fill-rule="evenodd" stroke="#050604" stroke-width="1.2" stroke-linecap="square" stroke-linejoin="bevel"/><path id="shape01" transform="matrix(1.08740281689844 0 0 1.05648789055572 39.4398885703522 32.4577446700202)" fill="none" stroke="#050604" stroke-width="1.2" stroke-linecap="square" stroke-linejoin="miter" stroke-miterlimit="2" d="M0.0424264 11.7745L0 0"/><path id="shape8" transform="matrix(1.08740286451228 0 0 1.0564879368159 44.7873443546535 36.0989949615111)" fill="none" stroke="#000000" stroke-width="1.2" stroke-linecap="square" stroke-linejoin="miter" stroke-miterlimit="2" d="M0.0424264 0L0 5.00632"/><rect id="shape9" transform="translate(18.72, 21.36)" fill="none" stroke="#000000" stroke-width="0.48" stroke-linecap="square" stroke-linejoin="bevel" width="34.56" height="31.6730089629835"/>
</svg>
