<?xml version="1.0" standalone="no"?>
<!DOCTYPE svg PUBLIC "-//W3C//DTD SVG 20010904//EN" "http://www.w3.org/TR/2001/REC-SVG-20010904/DTD/svg10.dtd">
<!-- Created using Krita: https://krita.org -->
<svg xmlns="http://www.w3.org/2000/svg" 
    xmlns:xlink="http://www.w3.org/1999/xlink"
    xmlns:krita="http://krita.org/namespaces/svg/krita"
    xmlns:sodipodi="http://sodipodi.sourceforge.net/DTD/sodipodi-0.dtd"
    width="72pt"
    height="72pt"
    viewBox="0 0 72 72">
<defs/>
<path id="shape0" transform="matrix(1.17802053317556 0.0741616062341333 -0.0719473966463534 1.14284890608156 27.7135044314561 1.86021911099461)" fill="#f8f6f0" stroke="#000000" stroke-width="1.2" stroke-linecap="square" stroke-linejoin="bevel" d="M1.82761 57.6L21.7427 57.6L21.7176 43.2C43.9306 19.0372 27.4835 20.184 22.7199 26.0401C22.7609 5.08425 16.7291 4.06321 11.624 0C2.32613 3.56975 -3.04565 14.1815 1.8447 43.2Z"/><path id="shape0" transform="matrix(1.18033422728806 -0.00659659603531747 0.00639964444635107 1.14509352127375 21.7702021865616 2.72645739213484)" fill="#f4f2ee" fill-rule="evenodd" stroke="#000000" stroke-width="1.2" stroke-linecap="square" stroke-linejoin="bevel" d="M1.82761 57.6L21.7427 57.6L21.7176 43.2C43.9306 19.0372 27.4835 20.184 22.7199 26.0401C22.7609 5.08425 16.7291 4.06321 11.624 0C2.32613 3.56975 -3.04565 14.1815 1.8447 43.2Z"/><path id="shape1" transform="translate(25.3631844645349, 2.78863964242406)" fill="#1b1b1b" fill-rule="evenodd" stroke="#000000" stroke-width="1.2" stroke-linecap="square" stroke-linejoin="miter" stroke-miterlimit="2" d="M19.4359 8.31895C20.4956 8.03637 11.6806 -0.214674 9.8843 0.00428129C7.12896 0.256559 -1.69773 8.55282 0.288321 9.12142C10.076 6.18215 10.3804 6.38175 19.4359 9.26046"/><path id="shape01" transform="matrix(0.996449168320599 0.0841963111040886 -0.0841963111040886 0.996449168320599 37.8751092267927 2.22825997137302)" fill="#1b1b1b" stroke="#000000" stroke-width="1.2" stroke-linecap="square" stroke-linejoin="miter" stroke-miterlimit="2" d="M13.406 9.61721C14.1177 8.07745 4.94215 -0.585583 3.25603 0.0313955C2.5066 0.100013 1.30801 0.763726 0 1.70518M0.0294019 1.72103C3.16727 3.57384 5.81625 6.30975 7.38949 7.64262C8.84064 8.02011 10.5529 8.57079 12.8076 9.28757"/><path id="shape2" transform="translate(52.2269055037408, 28.495468541713)" fill="#1b1b1b" fill-rule="evenodd" stroke="#000000" stroke-width="0.72" stroke-linecap="square" stroke-linejoin="bevel" d="M0 1.45757C6.98009 1.16875 6.12239 5.43679 6.53367 8.96705C8.96137 4.94784 10.4679 -3.35319 0 1.45757Z"/><path id="shape02" transform="matrix(0.981133341952637 0.193332119344627 -0.193332119344627 0.981133341952637 61.0719154164987 29.8288078104482)" fill="#1b1b1b" stroke="#000000" stroke-width="0.72" stroke-linecap="square" stroke-linejoin="bevel" d="M-4.2667 1.90989M0.456184 2.95815C2.28069 4.40206 1.99368 7.07359 2.26697 9.41937C4.30881 5.95751 5.78387 -0.967948 0 0.113333C0.134842 0.719265 0.417409 2.12555 0.540202 2.74466"/><rect id="shape3" transform="matrix(0.703231818447077 0.710960624453719 -0.710960624453719 0.703231818447077 34.6199999684687 14.5200003317646)" fill="#181309" fill-rule="evenodd" stroke="#000000" stroke-width="1.2" stroke-linecap="square" stroke-linejoin="bevel" width="7.79302098628006" height="7.84981206252676"/><rect id="shape4" transform="matrix(0.709829176121269 0.70437386431284 -0.70437386431284 0.709829176121269 41.3334536272008 22.3029563514791)" fill="#16130d" fill-rule="evenodd" stroke="#000000" stroke-width="0.72" stroke-linecap="square" stroke-linejoin="bevel" width="2.4" height="2.4"/><rect id="shape03" transform="matrix(0.709829167534542 0.704373855792106 -0.704373855792106 0.709829167534542 28.2824914802094 22.302956372008)" fill="#16130d" stroke="#000000" stroke-width="0.72" stroke-linecap="square" stroke-linejoin="bevel" width="2.4" height="2.4"/><rect id="shape04" transform="matrix(0.709829158947815 0.704373847271372 -0.704373847271372 0.709829158947815 34.6715294953727 18.2519937887911)" fill="#f6f2e9" stroke="#000000" stroke-width="0.72" stroke-linecap="square" stroke-linejoin="bevel" width="2.4" height="2.4"/><path id="shape5" transform="matrix(-1.09695334395054 0 0 1.08049322579683 26.9684132072619 53.82005899747)" fill="none" stroke="#000000" stroke-width="1.2" stroke-linecap="square" stroke-linejoin="miter" stroke-miterlimit="2" d="M0.0632671 13.05L0 0"/><path id="shape05" transform="matrix(-1.09695334395054 0 0 1.08049322579683 29.5834099282452 53.8387827652196)" fill="none" stroke="#000000" stroke-width="1.2" stroke-linecap="square" stroke-linejoin="miter" stroke-miterlimit="2" d="M0.0632671 13.05L0 0"/><path id="shape06" transform="matrix(-1.09695328156557 0 0 1.08049316434796 32.2472374725207 53.8883658497866)" fill="none" stroke="#000000" stroke-width="1.2" stroke-linecap="square" stroke-linejoin="miter" stroke-miterlimit="2" d="M0.0632671 13.05L0 0"/><path id="shape07" transform="matrix(-1.09695328156557 0 0 1.08049316434796 34.8622340447861 53.9070896164714)" fill="none" stroke="#000000" stroke-width="1.2" stroke-linecap="square" stroke-linejoin="miter" stroke-miterlimit="2" d="M0.0632671 13.05L0 0"/><path id="shape08" transform="matrix(-1.09695328156557 0 0 1.08049316434796 37.2735348117337 53.7966829568094)" fill="none" stroke="#000000" stroke-width="1.2" stroke-linecap="square" stroke-linejoin="miter" stroke-miterlimit="2" d="M0.0632671 13.05L0 0"/><path id="shape09" transform="matrix(-1.09695328156557 0 0 1.08049316434796 39.8885313839991 53.8154067234942)" fill="none" stroke="#000000" stroke-width="1.2" stroke-linecap="square" stroke-linejoin="miter" stroke-miterlimit="2" d="M0.0632671 13.05L0 0"/><path id="shape010" transform="matrix(-1.09695328156557 0 0 1.08049316434796 42.4859913116583 53.8883658497866)" fill="none" stroke="#000000" stroke-width="1.2" stroke-linecap="square" stroke-linejoin="miter" stroke-miterlimit="2" d="M0.0632671 13.05L0 0"/><path id="shape011" transform="matrix(-1.09695328156557 0 0 1.08049316434796 45.1009878839237 53.9070896164714)" fill="none" stroke="#000000" stroke-width="1.2" stroke-linecap="square" stroke-linejoin="miter" stroke-miterlimit="2" d="M0.0632671 13.05L0 0"/>
</svg>
