<?xml version="1.0" standalone="no"?>
<!DOCTYPE svg PUBLIC "-//W3C//DTD SVG 20010904//EN" "http://www.w3.org/TR/2001/REC-SVG-20010904/DTD/svg10.dtd">
<!-- Created using Krita: https://krita.org -->
<svg xmlns="http://www.w3.org/2000/svg" 
    xmlns:xlink="http://www.w3.org/1999/xlink"
    xmlns:krita="http://krita.org/namespaces/svg/krita"
    xmlns:sodipodi="http://sodipodi.sourceforge.net/DTD/sodipodi-0.dtd"
    width="72pt"
    height="72pt"
    viewBox="0 0 72 72">
<defs/>
<path id="shape0" transform="translate(7.92000058247211, 4.91999807463051)" fill="none" stroke="#070707" stroke-width="1.2" stroke-linecap="square" stroke-linejoin="bevel" d="M4.80792 1.40881L0 11.4L43.92 11.4L50.4 0L54.96 57.72L47.64 62.16L50.28 1.8M0.12 11.52L7.32 12.12L3.96 60.84L47.28 62.04"/><path id="shape1" transform="translate(12.8127751923057, 5.51543302980044)" fill="none" stroke="#070707" stroke-width="1.2" stroke-linecap="square" stroke-linejoin="miter" stroke-miterlimit="2" d="M0 0.59397L45.0568 0"/><rect id="shape2" transform="matrix(0.999750282706864 0.0223466379473096 -0.0223466379473096 0.999750282706864 20.3392956846348 26.8912267090242)" fill="none" stroke="#070707" stroke-width="1.2" stroke-linecap="square" stroke-linejoin="bevel" width="26.3472835437664" height="17.2429295097842" rx="1.11727265363005" ry="1.39845113741358"/><path id="shape3" transform="translate(56.5968256230547, 43.1052285105124)" fill="none" stroke="#070707" stroke-width="1.2" stroke-linecap="square" stroke-linejoin="bevel" d="M5.56318 19.1748L0.163179 20.2548L0 0"/><path id="shape4" transform="translate(56.1599996833369, 63.359999642739)" fill="none" stroke="#070707" stroke-width="1.2" stroke-linecap="square" stroke-linejoin="miter" stroke-miterlimit="2" d="M0.6 0L0 2.64"/><path id="shape5" transform="translate(23.4193769214958, 29.7833380414675)" fill="none" stroke="#070707" stroke-width="0.48" stroke-linecap="square" stroke-linejoin="miter" stroke-miterlimit="2" d="M0 0L3.0547 0"/><path id="shape6" transform="translate(28.0014289278754, 29.9530436713334)" fill="none" stroke="#070707" stroke-width="0.48" stroke-linecap="square" stroke-linejoin="miter" stroke-miterlimit="2" d="M0 0L0.0848528 0.424264"/><path id="shape7" transform="translate(29.2742211518698, 29.7833380414675)" fill="none" stroke="#070707" stroke-width="0.48" stroke-linecap="square" stroke-linejoin="miter" stroke-miterlimit="2" d="M0 0.0848528L2.46073 0"/><path id="shape8" transform="translate(33.2623034537187, 29.3590739668027)" fill="none" stroke="#070707" stroke-width="0.48" stroke-linecap="square" stroke-linejoin="miter" stroke-miterlimit="2" d="M0 0L1.6122 0"/><path id="shape9" transform="translate(34.8745069374449, 30.2924549310653)" fill="none" stroke="#070707" stroke-width="0.48" stroke-linecap="square" stroke-linejoin="miter" stroke-miterlimit="2" d="M0 0L1.12549 0.0848528"/><path id="shape10" transform="translate(37.5049442003665, 29.8681908564005)" fill="none" stroke="#070707" stroke-width="0.48" stroke-linecap="square" stroke-linejoin="miter" stroke-miterlimit="2" d="M0 0L2.20617 0"/><path id="shape11" transform="translate(42.0869962067461, 29.3590739668027)" fill="none" stroke="#070707" stroke-width="0.48" stroke-linecap="square" stroke-linejoin="miter" stroke-miterlimit="2" d="M0 0L0.0848528 0.933381"/><path id="shape12" transform="translate(36, 29.6136324116016)" fill="none" stroke="#070707" stroke-width="0.48" stroke-linecap="square" stroke-linejoin="miter" stroke-miterlimit="2" d="M0 0L2.18377 0.0848528"/><path id="shape13" transform="translate(27.7468704830766, 29.4439267817357)" fill="none" stroke="#070707" stroke-width="0.48" stroke-linecap="square" stroke-linejoin="miter" stroke-miterlimit="2" d="M0 0L2.46073 0"/><path id="shape14" transform="translate(25.2861388500209, 30.2076021161323)" fill="none" stroke="#070707" stroke-width="0.48" stroke-linecap="square" stroke-linejoin="miter" stroke-miterlimit="2" d="M0 0L2.37588 0.169706"/><ellipse id="shape15" transform="translate(28.9801916932907, 33.0479233226837)" rx="4.31501597444089" ry="4.37750798722044" cx="4.31501597444089" cy="4.37750798722044" fill="none" stroke="#000000" stroke-width="1.2" stroke-linecap="square" stroke-linejoin="bevel"/><path id="shape16" transform="translate(34.4078151860876, 38.6928821821355)" fill="none" stroke="#000000" stroke-width="1.2" stroke-linecap="square" stroke-linejoin="miter" stroke-miterlimit="2" d="M0 0L0.0848528 0.127279"/><path id="shape17" transform="translate(32.6259061382261, 40.0505271709824)" fill="none" stroke="#000000" stroke-width="1.2" stroke-linecap="square" stroke-linejoin="miter" stroke-miterlimit="2" d="M0 0L0.0848528 0.127279"/><path id="shape18" transform="translate(31.3106875552807, 38.3110445290223)" fill="none" stroke="#000000" stroke-width="1.2" stroke-linecap="square" stroke-linejoin="miter" stroke-miterlimit="2" d="M0 0L0.0424264 0"/><path id="shape19" transform="translate(32.4986269205217, 37.3776635991901)" fill="none" stroke="#000000" stroke-width="1.2" stroke-linecap="square" stroke-linejoin="miter" stroke-miterlimit="2" d="M0 0L0.127279 0.127279"/><path id="shape20" transform="translate(32.8380381677334, 36)" fill="none" stroke="#000000" stroke-width="1.2" stroke-linecap="square" stroke-linejoin="miter" stroke-miterlimit="2" d="M0 0L0.0424264 0"/><path id="shape21" transform="translate(34.5775208096935, 35.171490492314)" fill="none" stroke="#000000" stroke-width="1.2" stroke-linecap="square" stroke-linejoin="miter" stroke-miterlimit="2" d="M0 0L0.381838 0.254558"/><path id="shape22" transform="translate(36, 36.8261203224711)" fill="none" stroke="#000000" stroke-width="1.2" stroke-linecap="square" stroke-linejoin="miter" stroke-miterlimit="2" d="M0 0L0 0.339411"/><path id="shape23" transform="translate(34.2381095624818, 36.9533995401755)" fill="none" stroke="#000000" stroke-width="1.2" stroke-linecap="square" stroke-linejoin="miter" stroke-miterlimit="2" d="M0 0L0.0424264 0.0424264"/><path id="shape24" transform="translate(36, 38.8201613998399)" fill="none" stroke="#000000" stroke-width="1.2" stroke-linecap="square" stroke-linejoin="miter" stroke-miterlimit="2" d="M0 0L0 0.0848528"/><path id="shape25" transform="translate(34.7048000273979, 39.8383951414751)" fill="none" stroke="#000000" stroke-width="1.2" stroke-linecap="square" stroke-linejoin="miter" stroke-miterlimit="2" d="M0.212132 0.169706L0 0"/><path id="shape26" transform="translate(29.8681897546309, 36)" fill="none" stroke="#000000" stroke-width="1.2" stroke-linecap="square" stroke-linejoin="miter" stroke-miterlimit="2" d="M0 0L0.381838 0.444283"/><path id="shape27" transform="translate(31.2682611493793, 34.4502415919891)" fill="none" stroke="#000000" stroke-width="1.2" stroke-linecap="square" stroke-linejoin="miter" stroke-miterlimit="2" d="M0 0L0 0.0424264"/><path id="shape28" transform="translate(33.6441398798613, 33.89869831527)" fill="none" stroke="#000000" stroke-width="1.2" stroke-linecap="square" stroke-linejoin="miter" stroke-miterlimit="2" d="M0.0848528 0L0 0.0424264"/><path id="shape29" transform="translate(32.3713477028173, 34.8320792451023)" fill="none" stroke="#000000" stroke-width="1.2" stroke-linecap="square" stroke-linejoin="miter" stroke-miterlimit="2" d="M0 0L0.0848528 0"/><path id="shape30" transform="translate(29.9530425664339, 38.1413389054165)" fill="none" stroke="#000000" stroke-width="1.2" stroke-linecap="square" stroke-linejoin="miter" stroke-miterlimit="2" d="M0 0L0 0.0424264"/><path id="shape31" transform="translate(30.41973303135, 39.7111159237707)" fill="none" stroke="#000000" stroke-width="1.2" stroke-linecap="square" stroke-linejoin="miter" stroke-miterlimit="2" d="M0 0L0.0848528 0"/><path id="shape32" transform="translate(31.0800008853478, 36)" fill="none" stroke="#000000" stroke-width="1.2" stroke-linecap="square" stroke-linejoin="miter" stroke-miterlimit="2" d="M0.06 0L0 0"/><ellipse id="shape0" transform="matrix(0.765706949298481 0.0190285143224656 -0.0193629293432167 0.779163801525596 46.2978013973581 55.0248215870417)" rx="4.31501597444089" ry="4.37750798722044" cx="4.31501597444089" cy="4.37750798722044" fill="none" stroke="#000000" stroke-width="1.2" stroke-linecap="square" stroke-linejoin="bevel"/><path id="shape1" transform="matrix(0.765706949298481 0.0190285143224656 -0.0193629293432167 0.779163801525596 50.3444674844275 59.5264488027974)" fill="none" stroke="#000000" stroke-width="1.2" stroke-linecap="square" stroke-linejoin="miter" stroke-miterlimit="2" d="M0 0L0.0848528 0.127279"/><path id="shape2" transform="matrix(0.765706949298481 0.0190285143224656 -0.0193629293432167 0.779163801525596 48.9537593594699 60.550369551591)" fill="none" stroke="#000000" stroke-width="1.2" stroke-linecap="square" stroke-linejoin="miter" stroke-miterlimit="2" d="M0 0L0.0848528 0.127279"/><path id="shape3" transform="matrix(0.765706949298481 0.0190285143224656 -0.0193629293432167 0.779163801525596 47.9803688301522 59.1700009879508)" fill="none" stroke="#000000" stroke-width="1.2" stroke-linecap="square" stroke-linejoin="miter" stroke-miterlimit="2" d="M0 0L0.0424264 0"/><path id="shape4" transform="matrix(0.765706949298481 0.0190285143224656 -0.0193629293432167 0.779163801525596 48.908055246457 58.465349075617)" fill="none" stroke="#000000" stroke-width="1.2" stroke-linecap="square" stroke-linejoin="miter" stroke-miterlimit="2" d="M0 0L0.127279 0.127279"/><path id="shape5" transform="matrix(0.765706949298481 0.0190285143224656 -0.0193629293432167 0.779163801525596 49.1946204000469 57.3983819602273)" fill="none" stroke="#000000" stroke-width="1.2" stroke-linecap="square" stroke-linejoin="miter" stroke-miterlimit="2" d="M0 0L0.0424264 0"/><path id="shape6" transform="matrix(0.765706949298481 0.0190285143224656 -0.0193629293432167 0.779163801525596 50.5425967182373 56.7859371129848)" fill="none" stroke="#000000" stroke-width="1.2" stroke-linecap="square" stroke-linejoin="miter" stroke-miterlimit="2" d="M0 0L0.381838 0.254558"/><path id="shape7" transform="matrix(0.765706949298481 0.0190285143224656 -0.0193629293432167 0.779163801525596 51.5997604389971 58.1022324472139)" fill="none" stroke="#000000" stroke-width="1.2" stroke-linecap="square" stroke-linejoin="miter" stroke-miterlimit="2" d="M0 0L0 0.339411"/><path id="shape8" transform="matrix(0.765706949298481 0.0190285143224656 -0.0193629293432167 0.779163801525596 50.2482041885876 58.1678776489107)" fill="none" stroke="#000000" stroke-width="1.2" stroke-linecap="square" stroke-linejoin="miter" stroke-miterlimit="2" d="M0 0L0.0424264 0.0424264"/><path id="shape9" transform="matrix(0.765706949298481 0.0190285143224656 -0.0193629293432167 0.779163801525596 51.5611499625085 59.6559170734547)" fill="none" stroke="#000000" stroke-width="1.2" stroke-linecap="square" stroke-linejoin="miter" stroke-miterlimit="2" d="M0 0L0 0.0848528"/><path id="shape10" transform="matrix(0.765706949298481 0.0190285143224656 -0.0193629293432167 0.779163801525596 50.5496903547616 60.4246422151997)" fill="none" stroke="#000000" stroke-width="1.2" stroke-linecap="square" stroke-linejoin="miter" stroke-miterlimit="2" d="M0.212132 0.169706L0 0"/><path id="shape11" transform="matrix(0.765706949298481 0.0190285143224656 -0.0193629293432167 0.779163801525596 46.9205868317712 57.3418701571631)" fill="none" stroke="#000000" stroke-width="1.2" stroke-linecap="square" stroke-linejoin="miter" stroke-miterlimit="2" d="M0 0L0.381838 0.444283"/><path id="shape12" transform="matrix(0.765706949298481 0.0190285143224656 -0.0193629293432167 0.779163801525596 48.0226390907975 56.1609957831184)" fill="none" stroke="#000000" stroke-width="1.2" stroke-linecap="square" stroke-linejoin="miter" stroke-miterlimit="2" d="M0 0L0 0.0424264"/><path id="shape13" transform="matrix(0.765706949298481 0.0190285143224656 -0.0193629293432167 0.779163801525596 49.8525454389149 55.7764626693755)" fill="none" stroke="#000000" stroke-width="1.2" stroke-linecap="square" stroke-linejoin="miter" stroke-miterlimit="2" d="M0.0848528 0L0 0.0424264"/><path id="shape14" transform="matrix(0.765706949298481 0.0190285143224656 -0.0193629293432167 0.779163801525596 48.8598866349449 56.4794999587648)" fill="none" stroke="#000000" stroke-width="1.2" stroke-linecap="square" stroke-linejoin="miter" stroke-miterlimit="2" d="M0 0L0.0848528 0"/><path id="shape15" transform="matrix(0.765706949298481 0.0190285143224656 -0.0193629293432167 0.779163801525596 46.9440966255109 59.0119385420068)" fill="none" stroke="#000000" stroke-width="1.2" stroke-linecap="square" stroke-linejoin="miter" stroke-miterlimit="2" d="M0 0L0 0.0424264"/><path id="shape16" transform="matrix(0.765706949298481 0.0190285143224656 -0.0193629293432167 0.779163801525596 47.2710492761774 60.2439323973709)" fill="none" stroke="#000000" stroke-width="1.2" stroke-linecap="square" stroke-linejoin="miter" stroke-miterlimit="2" d="M0 0L0.0848528 0"/><path id="shape17" transform="matrix(0.765706949298481 0.0190285143224656 -0.0193629293432167 0.779163801525596 47.8484790357984 57.36492912262)" fill="none" stroke="#000000" stroke-width="1.2" stroke-linecap="square" stroke-linejoin="miter" stroke-miterlimit="2" d="M0.06 0L0 0"/><ellipse id="shape01" transform="matrix(0.765706925132016 0.0190285137219069 -0.0193629287321036 0.77916377693442 22.8756303521381 57.3264134396659)" rx="4.31501597444089" ry="4.37750798722044" cx="4.31501597444089" cy="4.37750798722044" fill="none" stroke="#000000" stroke-width="1.2" stroke-linecap="square" stroke-linejoin="bevel"/><path id="shape11" transform="matrix(0.765706925132016 0.0190285137219069 -0.0193629287321036 0.77916377693442 26.9222963114906 61.8280405133458)" fill="none" stroke="#000000" stroke-width="1.2" stroke-linecap="square" stroke-linejoin="miter" stroke-miterlimit="2" d="M0 0L0.0848528 0.127279"/><path id="shape21" transform="matrix(0.765706925132016 0.0190285137219069 -0.0193629287321036 0.77916377693442 25.5315882304252 62.8519612298235)" fill="none" stroke="#000000" stroke-width="1.2" stroke-linecap="square" stroke-linejoin="miter" stroke-miterlimit="2" d="M0 0L0.0848528 0.127279"/><path id="shape31" transform="matrix(0.765706925132016 0.0190285137219069 -0.0193629287321036 0.77916377693442 24.5581977318286 61.4715927097491)" fill="none" stroke="#000000" stroke-width="1.2" stroke-linecap="square" stroke-linejoin="miter" stroke-miterlimit="2" d="M0 0L0.0424264 0"/><path id="shape41" transform="matrix(0.765706925132016 0.0190285137219069 -0.0193629287321036 0.77916377693442 25.4858841188548 60.7669408196547)" fill="none" stroke="#000000" stroke-width="1.2" stroke-linecap="square" stroke-linejoin="miter" stroke-miterlimit="2" d="M0 0L0.127279 0.127279"/><path id="shape51" transform="matrix(0.765706925132016 0.0190285137219069 -0.0193629287321036 0.77916377693442 25.7724492634004 59.6999737379398)" fill="none" stroke="#000000" stroke-width="1.2" stroke-linecap="square" stroke-linejoin="miter" stroke-miterlimit="2" d="M0 0L0.0424264 0"/><path id="shape61" transform="matrix(0.765706925132016 0.0190285137219069 -0.0193629287321036 0.77916377693442 27.1204255390474 59.0875289100265)" fill="none" stroke="#000000" stroke-width="1.2" stroke-linecap="square" stroke-linejoin="miter" stroke-miterlimit="2" d="M0 0L0.381838 0.254558"/><path id="shape71" transform="matrix(0.765706925132016 0.0190285137219069 -0.0193629287321036 0.77916377693442 28.1775892264419 60.4038242027119)" fill="none" stroke="#000000" stroke-width="1.2" stroke-linecap="square" stroke-linejoin="miter" stroke-miterlimit="2" d="M0 0L0 0.339411"/><path id="shape81" transform="matrix(0.765706925132016 0.0190285137219069 -0.0193629287321036 0.77916377693442 26.8260330186888 60.469469402337)" fill="none" stroke="#000000" stroke-width="1.2" stroke-linecap="square" stroke-linejoin="miter" stroke-miterlimit="2" d="M0 0L0.0424264 0.0424264"/><path id="shape91" transform="matrix(0.765706925132016 0.0190285137219069 -0.0193629287321036 0.77916377693442 28.1389787511719 61.957508779917)" fill="none" stroke="#000000" stroke-width="1.2" stroke-linecap="square" stroke-linejoin="miter" stroke-miterlimit="2" d="M0 0L0 0.0848528"/><path id="shape101" transform="matrix(0.765706925132016 0.0190285137219069 -0.0193629287321036 0.77916377693442 27.1275191753478 62.7262338974003)" fill="none" stroke="#000000" stroke-width="1.2" stroke-linecap="square" stroke-linejoin="miter" stroke-miterlimit="2" d="M0.212132 0.169706L0 0"/><path id="shape111" transform="matrix(0.765706925132016 0.0190285137219069 -0.0193629287321036 0.77916377693442 23.4984157668955 59.6434619366589)" fill="none" stroke="#000000" stroke-width="1.2" stroke-linecap="square" stroke-linejoin="miter" stroke-miterlimit="2" d="M0 0L0.381838 0.444283"/><path id="shape121" transform="matrix(0.765706925132016 0.0190285137219069 -0.0193629287321036 0.77916377693442 24.6004679911399 58.462587599884)" fill="none" stroke="#000000" stroke-width="1.2" stroke-linecap="square" stroke-linejoin="miter" stroke-miterlimit="2" d="M0 0L0 0.0424264"/><path id="shape131" transform="matrix(0.765706925132016 0.0190285137219069 -0.0193629287321036 0.77916377693442 26.4303742815035 58.0780544982773)" fill="none" stroke="#000000" stroke-width="1.2" stroke-linecap="square" stroke-linejoin="miter" stroke-miterlimit="2" d="M0.0848528 0L0 0.0424264"/><path id="shape141" transform="matrix(0.765706925132016 0.0190285137219069 -0.0193629287321036 0.77916377693442 25.4377155088629 58.781091765478)" fill="none" stroke="#000000" stroke-width="1.2" stroke-linecap="square" stroke-linejoin="miter" stroke-miterlimit="2" d="M0 0L0.0848528 0"/><path id="shape151" transform="matrix(0.765706925132016 0.0190285137219069 -0.0193629287321036 0.77916377693442 23.5219255598931 61.3135302687936)" fill="none" stroke="#000000" stroke-width="1.2" stroke-linecap="square" stroke-linejoin="miter" stroke-miterlimit="2" d="M0 0L0 0.0424264"/><path id="shape161" transform="matrix(0.765706925132016 0.0190285137219069 -0.0193629287321036 0.77916377693442 23.8488782002408 62.5455240852748)" fill="none" stroke="#000000" stroke-width="1.2" stroke-linecap="square" stroke-linejoin="miter" stroke-miterlimit="2" d="M0 0L0.0848528 0"/><path id="shape171" transform="matrix(0.765706925132016 0.0190285137219069 -0.0193629287321036 0.77916377693442 24.4263079416375 59.6665209013883)" fill="none" stroke="#000000" stroke-width="1.2" stroke-linecap="square" stroke-linejoin="miter" stroke-miterlimit="2" d="M0.06 0L0 0"/><ellipse id="shape02" transform="matrix(0.765706925132016 0.0190285137219069 -0.0193629287321036 0.77916377693442 15.2799829719104 53.8366356738796)" rx="4.31501597444089" ry="4.37750798722044" cx="4.31501597444089" cy="4.37750798722044" fill="none" stroke="#000000" stroke-width="1.2" stroke-linecap="square" stroke-linejoin="bevel"/><path id="shape12" transform="matrix(0.765706925132016 0.0190285137219069 -0.0193629287321036 0.77916377693442 19.3266489312629 58.3382627475595)" fill="none" stroke="#000000" stroke-width="1.2" stroke-linecap="square" stroke-linejoin="miter" stroke-miterlimit="2" d="M0 0L0.0848528 0.127279"/><path id="shape22" transform="matrix(0.765706925132016 0.0190285137219069 -0.0193629287321036 0.77916377693442 17.9359408501975 59.3621834640372)" fill="none" stroke="#000000" stroke-width="1.2" stroke-linecap="square" stroke-linejoin="miter" stroke-miterlimit="2" d="M0 0L0.0848528 0.127279"/><path id="shape32" transform="matrix(0.765706925132016 0.0190285137219069 -0.0193629287321036 0.77916377693442 16.9625503516009 57.9818149439627)" fill="none" stroke="#000000" stroke-width="1.2" stroke-linecap="square" stroke-linejoin="miter" stroke-miterlimit="2" d="M0 0L0.0424264 0"/><path id="shape42" transform="matrix(0.765706925132016 0.0190285137219069 -0.0193629287321036 0.77916377693442 17.8902367386271 57.2771630538684)" fill="none" stroke="#000000" stroke-width="1.2" stroke-linecap="square" stroke-linejoin="miter" stroke-miterlimit="2" d="M0 0L0.127279 0.127279"/><path id="shape52" transform="matrix(0.765706925132016 0.0190285137219069 -0.0193629287321036 0.77916377693442 18.1768018831727 56.2101959721533)" fill="none" stroke="#000000" stroke-width="1.2" stroke-linecap="square" stroke-linejoin="miter" stroke-miterlimit="2" d="M0 0L0.0424264 0"/><path id="shape62" transform="matrix(0.765706925132016 0.0190285137219069 -0.0193629287321036 0.77916377693442 19.5247781588197 55.5977511442403)" fill="none" stroke="#000000" stroke-width="1.2" stroke-linecap="square" stroke-linejoin="miter" stroke-miterlimit="2" d="M0 0L0.381838 0.254558"/><path id="shape72" transform="matrix(0.765706925132016 0.0190285137219069 -0.0193629287321036 0.77916377693442 20.5819418462142 56.9140464369256)" fill="none" stroke="#000000" stroke-width="1.2" stroke-linecap="square" stroke-linejoin="miter" stroke-miterlimit="2" d="M0 0L0 0.339411"/><path id="shape82" transform="matrix(0.765706925132016 0.0190285137219069 -0.0193629287321036 0.77916377693442 19.2303856384611 56.9796916365506)" fill="none" stroke="#000000" stroke-width="1.2" stroke-linecap="square" stroke-linejoin="miter" stroke-miterlimit="2" d="M0 0L0.0424264 0.0424264"/><path id="shape92" transform="matrix(0.765706925132016 0.0190285137219069 -0.0193629287321036 0.77916377693442 20.5433313709442 58.4677310141307)" fill="none" stroke="#000000" stroke-width="1.2" stroke-linecap="square" stroke-linejoin="miter" stroke-miterlimit="2" d="M0 0L0 0.0848528"/><path id="shape102" transform="matrix(0.765706925132016 0.0190285137219069 -0.0193629287321036 0.77916377693442 19.5318717951201 59.2364561316139)" fill="none" stroke="#000000" stroke-width="1.2" stroke-linecap="square" stroke-linejoin="miter" stroke-miterlimit="2" d="M0.212132 0.169706L0 0"/><path id="shape112" transform="matrix(0.765706925132016 0.0190285137219069 -0.0193629287321036 0.77916377693442 15.9027683866678 56.1536841708727)" fill="none" stroke="#000000" stroke-width="1.2" stroke-linecap="square" stroke-linejoin="miter" stroke-miterlimit="2" d="M0 0L0.381838 0.444283"/><path id="shape122" transform="matrix(0.765706925132016 0.0190285137219069 -0.0193629287321036 0.77916377693442 17.0048206109122 54.9728098340977)" fill="none" stroke="#000000" stroke-width="1.2" stroke-linecap="square" stroke-linejoin="miter" stroke-miterlimit="2" d="M0 0L0 0.0424264"/><path id="shape132" transform="matrix(0.765706925132016 0.0190285137219069 -0.0193629287321036 0.77916377693442 18.8347269012759 54.5882767324909)" fill="none" stroke="#000000" stroke-width="1.2" stroke-linecap="square" stroke-linejoin="miter" stroke-miterlimit="2" d="M0.0848528 0L0 0.0424264"/><path id="shape142" transform="matrix(0.765706925132016 0.0190285137219069 -0.0193629287321036 0.77916377693442 17.8420681286352 55.2913139996916)" fill="none" stroke="#000000" stroke-width="1.2" stroke-linecap="square" stroke-linejoin="miter" stroke-miterlimit="2" d="M0 0L0.0848528 0"/><path id="shape152" transform="matrix(0.765706925132016 0.0190285137219069 -0.0193629287321036 0.77916377693442 15.9262781796654 57.8237525030072)" fill="none" stroke="#000000" stroke-width="1.2" stroke-linecap="square" stroke-linejoin="miter" stroke-miterlimit="2" d="M0 0L0 0.0424264"/><path id="shape162" transform="matrix(0.765706925132016 0.0190285137219069 -0.0193629287321036 0.77916377693442 16.2532308200131 59.0557463194886)" fill="none" stroke="#000000" stroke-width="1.2" stroke-linecap="square" stroke-linejoin="miter" stroke-miterlimit="2" d="M0 0L0.0848528 0"/><path id="shape172" transform="matrix(0.765706925132016 0.0190285137219069 -0.0193629287321036 0.77916377693442 16.8306605614098 56.1767431356019)" fill="none" stroke="#000000" stroke-width="1.2" stroke-linecap="square" stroke-linejoin="miter" stroke-miterlimit="2" d="M0.06 0L0 0"/><ellipse id="shape03" transform="matrix(0.765706903967915 0.0190285131959598 -0.0193629281969132 0.779163755398372 38.2224617065869 57.4095488109858)" rx="4.31501597444089" ry="4.37750798722044" cx="4.31501597444089" cy="4.37750798722044" fill="none" stroke="#000000" stroke-width="1.2" stroke-linecap="square" stroke-linejoin="bevel"/><path id="shape13" transform="matrix(0.765706903967915 0.0190285131959598 -0.0193629281969132 0.779163755398372 42.2691275540898 61.9111757602409)" fill="none" stroke="#000000" stroke-width="1.2" stroke-linecap="square" stroke-linejoin="miter" stroke-miterlimit="2" d="M0 0L0.0848528 0.127279"/><path id="shape23" transform="matrix(0.765706903967915 0.0190285131959598 -0.0193629281969132 0.779163755398372 40.8784195114635 62.9350964484174)" fill="none" stroke="#000000" stroke-width="1.2" stroke-linecap="square" stroke-linejoin="miter" stroke-miterlimit="2" d="M0 0L0.0848528 0.127279"/><path id="shape33" transform="matrix(0.765706903967915 0.0190285131959598 -0.0193629281969132 0.779163755398372 39.9050290397714 61.5547279664963)" fill="none" stroke="#000000" stroke-width="1.2" stroke-linecap="square" stroke-linejoin="miter" stroke-miterlimit="2" d="M0 0L0.0424264 0"/><path id="shape43" transform="matrix(0.765706903967915 0.0190285131959598 -0.0193629281969132 0.779163755398372 40.8327154011564 60.8500760958785)" fill="none" stroke="#000000" stroke-width="1.2" stroke-linecap="square" stroke-linejoin="miter" stroke-miterlimit="2" d="M0 0L0.127279 0.127279"/><path id="shape53" transform="matrix(0.765706903967915 0.0190285131959598 -0.0193629281969132 0.779163755398372 41.1192805377813 59.7831090436544)" fill="none" stroke="#000000" stroke-width="1.2" stroke-linecap="square" stroke-linejoin="miter" stroke-miterlimit="2" d="M0 0L0.0424264 0"/><path id="shape63" transform="matrix(0.765706903967915 0.0190285131959598 -0.0193629281969132 0.779163755398372 42.4672567761703 59.1706642326692)" fill="none" stroke="#000000" stroke-width="1.2" stroke-linecap="square" stroke-linejoin="miter" stroke-miterlimit="2" d="M0 0L0.381838 0.254558"/><path id="shape73" transform="matrix(0.765706903967915 0.0190285131959598 -0.0193629281969132 0.779163755398372 43.5244204343448 60.4869594889724)" fill="none" stroke="#000000" stroke-width="1.2" stroke-linecap="square" stroke-linejoin="miter" stroke-miterlimit="2" d="M0 0L0 0.339411"/><path id="shape83" transform="matrix(0.765706903967915 0.0190285131959598 -0.0193629281969132 0.779163755398372 42.1728642639487 60.5526046867827)" fill="none" stroke="#000000" stroke-width="1.2" stroke-linecap="square" stroke-linejoin="miter" stroke-miterlimit="2" d="M0 0L0.0424264 0.0424264"/><path id="shape93" transform="matrix(0.765706903967915 0.0190285131959598 -0.0193629281969132 0.779163755398372 43.4858099601421 62.0406440232336)" fill="none" stroke="#000000" stroke-width="1.2" stroke-linecap="square" stroke-linejoin="miter" stroke-miterlimit="2" d="M0 0L0 0.0848528"/><path id="shape103" transform="matrix(0.765706903967915 0.0190285131959598 -0.0193629281969132 0.779163755398372 42.4743504122746 62.8093691194694)" fill="none" stroke="#000000" stroke-width="1.2" stroke-linecap="square" stroke-linejoin="miter" stroke-miterlimit="2" d="M0.212132 0.169706L0 0"/><path id="shape113" transform="matrix(0.765706903967915 0.0190285131959598 -0.0193629281969132 0.779163755398372 38.8452471041306 59.7265972439357)" fill="none" stroke="#000000" stroke-width="1.2" stroke-linecap="square" stroke-linejoin="miter" stroke-miterlimit="2" d="M0 0L0.381838 0.444283"/><path id="shape123" transform="matrix(0.765706903967915 0.0190285131959598 -0.0193629281969132 0.779163755398372 39.9472992979143 58.5457229398)" fill="none" stroke="#000000" stroke-width="1.2" stroke-linecap="square" stroke-linejoin="miter" stroke-miterlimit="2" d="M0 0L0 0.0424264"/><path id="shape133" transform="matrix(0.765706903967915 0.0190285131959598 -0.0193629281969132 0.779163755398372 41.7772055376995 58.1611898488217)" fill="none" stroke="#000000" stroke-width="1.2" stroke-linecap="square" stroke-linejoin="miter" stroke-miterlimit="2" d="M0.0848528 0L0 0.0424264"/><path id="shape143" transform="matrix(0.765706903967915 0.0190285131959598 -0.0193629281969132 0.779163755398372 40.7845467924957 58.8642270965905)" fill="none" stroke="#000000" stroke-width="1.2" stroke-linecap="square" stroke-linejoin="miter" stroke-miterlimit="2" d="M0 0L0.0848528 0"/><path id="shape153" transform="matrix(0.765706903967915 0.0190285131959598 -0.0193629281969132 0.779163755398372 38.8687568964784 61.3966655299097)" fill="none" stroke="#000000" stroke-width="1.2" stroke-linecap="square" stroke-linejoin="miter" stroke-miterlimit="2" d="M0 0L0 0.0424264"/><path id="shape163" transform="matrix(0.765706903967915 0.0190285131959598 -0.0193629281969132 0.779163755398372 39.1957095277891 62.6286593123388)" fill="none" stroke="#000000" stroke-width="1.2" stroke-linecap="square" stroke-linejoin="miter" stroke-miterlimit="2" d="M0 0L0.0848528 0"/><path id="shape173" transform="matrix(0.765706903967915 0.0190285131959598 -0.0193629281969132 0.779163755398372 39.7731392532257 59.7496562080275)" fill="none" stroke="#000000" stroke-width="1.2" stroke-linecap="square" stroke-linejoin="miter" stroke-miterlimit="2" d="M0.06 0L0 0"/><ellipse id="shape01" transform="matrix(0.765706903967915 0.0190285131959598 -0.0193629281969132 0.779163755398372 30.6268145363025 53.9197711416566)" rx="4.31501597444089" ry="4.37750798722044" cx="4.31501597444089" cy="4.37750798722044" fill="none" stroke="#000000" stroke-width="1.2" stroke-linecap="square" stroke-linejoin="bevel"/><path id="shape114" transform="matrix(0.765706903967915 0.0190285131959598 -0.0193629281969132 0.779163755398372 34.6734803838054 58.4213980909119)" fill="none" stroke="#000000" stroke-width="1.2" stroke-linecap="square" stroke-linejoin="miter" stroke-miterlimit="2" d="M0 0L0.0848528 0.127279"/><path id="shape21" transform="matrix(0.765706903967915 0.0190285131959598 -0.0193629281969132 0.779163755398372 33.2827723411791 59.4453187790884)" fill="none" stroke="#000000" stroke-width="1.2" stroke-linecap="square" stroke-linejoin="miter" stroke-miterlimit="2" d="M0 0L0.0848528 0.127279"/><path id="shape31" transform="matrix(0.765706903967915 0.0190285131959598 -0.0193629281969132 0.779163755398372 32.309381869487 58.0649502971673)" fill="none" stroke="#000000" stroke-width="1.2" stroke-linecap="square" stroke-linejoin="miter" stroke-miterlimit="2" d="M0 0L0.0424264 0"/><path id="shape41" transform="matrix(0.765706903967915 0.0190285131959598 -0.0193629281969132 0.779163755398372 33.237068230872 57.3602984265493)" fill="none" stroke="#000000" stroke-width="1.2" stroke-linecap="square" stroke-linejoin="miter" stroke-miterlimit="2" d="M0 0L0.127279 0.127279"/><path id="shape51" transform="matrix(0.765706903967915 0.0190285131959598 -0.0193629281969132 0.779163755398372 33.5236333674969 56.2933313743255)" fill="none" stroke="#000000" stroke-width="1.2" stroke-linecap="square" stroke-linejoin="miter" stroke-miterlimit="2" d="M0 0L0.0424264 0"/><path id="shape61" transform="matrix(0.765706903967915 0.0190285131959598 -0.0193629281969132 0.779163755398372 34.8716096058859 55.6808865633402)" fill="none" stroke="#000000" stroke-width="1.2" stroke-linecap="square" stroke-linejoin="miter" stroke-miterlimit="2" d="M0 0L0.381838 0.254558"/><path id="shape71" transform="matrix(0.765706903967915 0.0190285131959598 -0.0193629281969132 0.779163755398372 35.9287732640604 56.9971818196432)" fill="none" stroke="#000000" stroke-width="1.2" stroke-linecap="square" stroke-linejoin="miter" stroke-miterlimit="2" d="M0 0L0 0.339411"/><path id="shape81" transform="matrix(0.765706903967915 0.0190285131959598 -0.0193629281969132 0.779163755398372 34.5772170936643 57.0628270174538)" fill="none" stroke="#000000" stroke-width="1.2" stroke-linecap="square" stroke-linejoin="miter" stroke-miterlimit="2" d="M0 0L0.0424264 0.0424264"/><path id="shape91" transform="matrix(0.765706903967915 0.0190285131959598 -0.0193629281969132 0.779163755398372 35.8901627898576 58.5508663539046)" fill="none" stroke="#000000" stroke-width="1.2" stroke-linecap="square" stroke-linejoin="miter" stroke-miterlimit="2" d="M0 0L0 0.0848528"/><path id="shape101" transform="matrix(0.765706903967915 0.0190285131959598 -0.0193629281969132 0.779163755398372 34.8787032419901 59.3195914501403)" fill="none" stroke="#000000" stroke-width="1.2" stroke-linecap="square" stroke-linejoin="miter" stroke-miterlimit="2" d="M0.212132 0.169706L0 0"/><path id="shape111" transform="matrix(0.765706903967915 0.0190285131959598 -0.0193629281969132 0.779163755398372 31.2495999338462 56.2368195746067)" fill="none" stroke="#000000" stroke-width="1.2" stroke-linecap="square" stroke-linejoin="miter" stroke-miterlimit="2" d="M0 0L0.381838 0.444283"/><path id="shape121" transform="matrix(0.765706903967915 0.0190285131959598 -0.0193629281969132 0.779163755398372 32.3516521276299 55.0559452704708)" fill="none" stroke="#000000" stroke-width="1.2" stroke-linecap="square" stroke-linejoin="miter" stroke-miterlimit="2" d="M0 0L0 0.0424264"/><path id="shape131" transform="matrix(0.765706903967915 0.0190285131959598 -0.0193629281969132 0.779163755398372 34.1815583674151 54.6714121794927)" fill="none" stroke="#000000" stroke-width="1.2" stroke-linecap="square" stroke-linejoin="miter" stroke-miterlimit="2" d="M0.0848528 0L0 0.0424264"/><path id="shape141" transform="matrix(0.765706903967915 0.0190285131959598 -0.0193629281969132 0.779163755398372 33.1888996222114 55.3744494272615)" fill="none" stroke="#000000" stroke-width="1.2" stroke-linecap="square" stroke-linejoin="miter" stroke-miterlimit="2" d="M0 0L0.0848528 0"/><path id="shape151" transform="matrix(0.765706903967915 0.0190285131959598 -0.0193629281969132 0.779163755398372 31.273109726194 57.9068878605807)" fill="none" stroke="#000000" stroke-width="1.2" stroke-linecap="square" stroke-linejoin="miter" stroke-miterlimit="2" d="M0 0L0 0.0424264"/><path id="shape161" transform="matrix(0.765706903967915 0.0190285131959598 -0.0193629281969132 0.779163755398372 31.6000623575046 59.1388816430098)" fill="none" stroke="#000000" stroke-width="1.2" stroke-linecap="square" stroke-linejoin="miter" stroke-miterlimit="2" d="M0 0L0.0848528 0"/><path id="shape171" transform="matrix(0.765706903967915 0.0190285131959598 -0.0193629281969132 0.779163755398372 32.1774920829412 56.2598785386985)" fill="none" stroke="#000000" stroke-width="1.2" stroke-linecap="square" stroke-linejoin="miter" stroke-miterlimit="2" d="M0.06 0L0 0"/><path id="shape04" transform="matrix(0.880688711867176 0 0 0.858323729820741 24.0625285345807 33.3000012038641)" sodipodi:type="arc" sodipodi:rx="4.31501597444089" sodipodi:ry="4.37750798722044" sodipodi:cx="4.31504980248528" sodipodi:cy="4.37761405541556" sodipodi:start="1.12217931339144" sodipodi:end="5.29071126029498" sodipodi:open="true" d="M6.67372 0.711972C4.92941 -0.443158 2.62068 -0.169213 1.18621 1.3631C-0.248265 2.89541 -0.398908 5.24859 0.828151 6.95626C2.05521 8.66392 4.30962 9.23851 6.18656 8.32196" fill="none" stroke="#000000" stroke-width="1.2" stroke-linecap="square" stroke-linejoin="bevel"/><path id="shape14" transform="matrix(0.880688711867176 0 0 0.858323729820741 28.8426050689289 38.1452943876422)" fill="none" stroke="#000000" stroke-width="1.2" stroke-linecap="square" stroke-linejoin="miter" stroke-miterlimit="2" d="M0 0L0.0848528 0.127279"/><path id="shape24" transform="matrix(0.880688711867176 0 0 0.858323729820741 27.2732978849033 39.3105932982418)" fill="none" stroke="#000000" stroke-width="1.2" stroke-linecap="square" stroke-linejoin="miter" stroke-miterlimit="2" d="M0 0L0.0848528 0.127279"/><path id="shape34" transform="matrix(0.880688711867176 0 0 0.858323729820741 26.1149997252654 37.8175540690361)" fill="none" stroke="#000000" stroke-width="1.2" stroke-linecap="square" stroke-linejoin="miter" stroke-miterlimit="2" d="M0 0L0.0424264 0"/><path id="shape44" transform="matrix(0.880688711867176 0 0 0.858323729820741 27.1612045146158 37.016411067999)" fill="none" stroke="#000000" stroke-width="1.2" stroke-linecap="square" stroke-linejoin="miter" stroke-miterlimit="2" d="M0 0L0.127279 0.127279"/><path id="shape54" transform="matrix(0.880688711867176 0 0 0.858323729820741 27.4601201687159 35.8339297091038)" fill="none" stroke="#000000" stroke-width="1.2" stroke-linecap="square" stroke-linejoin="miter" stroke-miterlimit="2" d="M0 0L0.0424264 0"/><path id="shape64" transform="matrix(0.880688711867176 0 0 0.858323729820741 28.992062895979 35.1228003382748)" fill="none" stroke="#000000" stroke-width="1.2" stroke-linecap="square" stroke-linejoin="miter" stroke-miterlimit="2" d="M0 0L0.381838 0.254558"/><path id="shape84" transform="matrix(0.880688711867176 0 0 0.858323729820741 28.6931472418789 36.6522551584367)" fill="none" stroke="#000000" stroke-width="1.2" stroke-linecap="square" stroke-linejoin="miter" stroke-miterlimit="2" d="M0 0L0.0424264 0.0424264"/><path id="shape104" transform="matrix(0.880688711867176 0 0 0.858323729820741 29.1041562662665 39.0621585981864)" fill="none" stroke="#000000" stroke-width="1.2" stroke-linecap="square" stroke-linejoin="miter" stroke-miterlimit="2" d="M0.212132 0.169706L0 0"/><path id="shape115" transform="matrix(0.750570293837159 0 0 0.776099304984119 24.624058850592 36.5850961516308)" fill="none" stroke="#000000" stroke-width="1.2" stroke-linecap="square" stroke-linejoin="miter" stroke-miterlimit="2" d="M0 0L0.381838 0.444283"/><path id="shape124" transform="matrix(0.880688711867176 0 0 0.858323729820741 26.0776352685029 34.5037352920188)" fill="none" stroke="#000000" stroke-width="1.2" stroke-linecap="square" stroke-linejoin="miter" stroke-miterlimit="2" d="M0 0L0 0.0424264"/><path id="shape134" transform="matrix(0.880688711867176 0 0 0.858323729820741 28.1700448472037 34.0303326095878)" fill="none" stroke="#000000" stroke-width="1.2" stroke-linecap="square" stroke-linejoin="miter" stroke-miterlimit="2" d="M0.0848528 0L0 0.0424264"/><path id="shape144" transform="matrix(0.880688711867176 0 0 0.858323729820741 27.0491111443282 34.831475610625)" fill="none" stroke="#000000" stroke-width="1.2" stroke-linecap="square" stroke-linejoin="miter" stroke-miterlimit="2" d="M0 0L0.0848528 0"/><path id="shape164" transform="matrix(0.880688711867176 0 0 0.858323729820741 25.3303461332526 39.0192685705918)" fill="none" stroke="#000000" stroke-width="1.2" stroke-linecap="square" stroke-linejoin="miter" stroke-miterlimit="2" d="M0 0L0.0848528 0"/><path id="shape174" transform="matrix(0.880688711867176 0 0 0.858323729820741 25.9118365790772 35.8339297091038)" fill="none" stroke="#000000" stroke-width="1.2" stroke-linecap="square" stroke-linejoin="miter" stroke-miterlimit="2" d="M0.06 0L0 0"/><path id="shape05" transform="matrix(-0.880688711867176 0 0 0.858323729820741 42.7800015793962 33.7697068501804)" sodipodi:type="arc" sodipodi:rx="4.31501597444089" sodipodi:ry="4.37750798722044" sodipodi:cx="4.31504980248528" sodipodi:cy="4.37761405541556" sodipodi:start="1.12217931339144" sodipodi:end="5.29071126029498" sodipodi:open="true" d="M6.67372 0.711972C4.92941 -0.443158 2.62068 -0.169213 1.18621 1.3631C-0.248265 2.89541 -0.398908 5.24859 0.828151 6.95626C2.05521 8.66392 4.30962 9.23851 6.18656 8.32196" fill="none" stroke="#000000" stroke-width="1.2" stroke-linecap="square" stroke-linejoin="bevel"/><path id="shape15" transform="matrix(-0.880688711867176 0 0 0.858323729820741 37.9999250450481 38.6150000339585)" fill="none" stroke="#000000" stroke-width="1.2" stroke-linecap="square" stroke-linejoin="miter" stroke-miterlimit="2" d="M0 0L0.0848528 0.127279"/><path id="shape25" transform="matrix(-0.880688711867176 0 0 0.858323729820741 39.5692322290736 39.7802989445581)" fill="none" stroke="#000000" stroke-width="1.2" stroke-linecap="square" stroke-linejoin="miter" stroke-miterlimit="2" d="M0 0L0.0848528 0.127279"/><path id="shape35" transform="matrix(-0.880688711867176 0 0 0.858323729820741 40.7275303887116 38.2872597153524)" fill="none" stroke="#000000" stroke-width="1.2" stroke-linecap="square" stroke-linejoin="miter" stroke-miterlimit="2" d="M0 0L0.0424264 0"/><path id="shape45" transform="matrix(-0.880688711867176 0 0 0.858323729820741 39.6813255993611 37.4861167143153)" fill="none" stroke="#000000" stroke-width="1.2" stroke-linecap="square" stroke-linejoin="miter" stroke-miterlimit="2" d="M0 0L0.127279 0.127279"/><path id="shape55" transform="matrix(-0.880688711867176 0 0 0.858323729820741 39.382409945261 36.3036353554202)" fill="none" stroke="#000000" stroke-width="1.2" stroke-linecap="square" stroke-linejoin="miter" stroke-miterlimit="2" d="M0 0L0.0424264 0"/><path id="shape65" transform="matrix(-0.880688711867176 0 0 0.858323729820741 37.8504672179979 35.5925059845911)" fill="none" stroke="#000000" stroke-width="1.2" stroke-linecap="square" stroke-linejoin="miter" stroke-miterlimit="2" d="M0 0L0.381838 0.254558"/><path id="shape85" transform="matrix(-0.880688711867176 0 0 0.858323729820741 38.149382872098 37.121960804753)" fill="none" stroke="#000000" stroke-width="1.2" stroke-linecap="square" stroke-linejoin="miter" stroke-miterlimit="2" d="M0 0L0.0424264 0.0424264"/><path id="shape105" transform="matrix(-0.880688711867176 0 0 0.858323729820741 37.7383738477104 39.5318642445027)" fill="none" stroke="#000000" stroke-width="1.2" stroke-linecap="square" stroke-linejoin="miter" stroke-miterlimit="2" d="M0.212132 0.169706L0 0"/><path id="shape116" transform="matrix(-0.750570293837159 0 0 0.776099304984119 42.2184712633849 37.0548017979472)" fill="none" stroke="#000000" stroke-width="1.2" stroke-linecap="square" stroke-linejoin="miter" stroke-miterlimit="2" d="M0 0L0.381838 0.444283"/><path id="shape125" transform="matrix(-0.880688711867176 0 0 0.858323729820741 40.764894845474 34.9734409383352)" fill="none" stroke="#000000" stroke-width="1.2" stroke-linecap="square" stroke-linejoin="miter" stroke-miterlimit="2" d="M0 0L0 0.0424264"/><path id="shape135" transform="matrix(-0.880688711867176 0 0 0.858323729820741 38.6724852667732 34.5000382559041)" fill="none" stroke="#000000" stroke-width="1.2" stroke-linecap="square" stroke-linejoin="miter" stroke-miterlimit="2" d="M0.0848528 0L0 0.0424264"/><path id="shape145" transform="matrix(-0.880688711867176 0 0 0.858323729820741 39.7934189696487 35.3011812569413)" fill="none" stroke="#000000" stroke-width="1.2" stroke-linecap="square" stroke-linejoin="miter" stroke-miterlimit="2" d="M0 0L0.0848528 0"/><path id="shape165" transform="matrix(-0.880688711867176 0 0 0.858323729820741 41.5121839807243 39.4889742169081)" fill="none" stroke="#000000" stroke-width="1.2" stroke-linecap="square" stroke-linejoin="miter" stroke-miterlimit="2" d="M0 0L0.0848528 0"/><path id="shape175" transform="matrix(-0.880688711867176 0 0 0.858323729820741 40.9306935348997 36.3036353554202)" fill="none" stroke="#000000" stroke-width="1.2" stroke-linecap="square" stroke-linejoin="miter" stroke-miterlimit="2" d="M0.06 0L0 0"/>
</svg>
