<?xml version="1.0" standalone="no"?>
<!DOCTYPE svg PUBLIC "-//W3C//DTD SVG 20010904//EN" "http://www.w3.org/TR/2001/REC-SVG-20010904/DTD/svg10.dtd">
<!-- Created using Krita: https://krita.org -->
<svg xmlns="http://www.w3.org/2000/svg" 
    xmlns:xlink="http://www.w3.org/1999/xlink"
    xmlns:krita="http://krita.org/namespaces/svg/krita"
    xmlns:sodipodi="http://sodipodi.sourceforge.net/DTD/sodipodi-0.dtd"
    width="72pt"
    height="72pt"
    viewBox="0 0 72 72">
<defs/>
<path id="shape0" transform="translate(7.92000058247211, 5.04000037066407)" fill="none" stroke="#070707" stroke-width="1.2" stroke-linecap="square" stroke-linejoin="bevel" d="M4.80792 1.40881L0 11.4L43.92 11.4L50.4 0L54.96 57.72L47.64 62.16L50.28 1.8M0.12 11.52L7.32 12.12L3.96 60.84L47.28 62.04"/><path id="shape1" transform="translate(12.8127751923057, 5.51543302980044)" fill="none" stroke="#070707" stroke-width="1.2" stroke-linecap="square" stroke-linejoin="miter" stroke-miterlimit="2" d="M0 0.59397L45.0568 0"/><rect id="shape2" transform="matrix(0.999750282706864 0.0223466379473096 -0.0223466379473096 0.999750282706864 20.3392956846348 26.8912267090242)" fill="none" stroke="#070707" stroke-width="1.2" stroke-linecap="square" stroke-linejoin="bevel" width="26.3472835437664" height="17.2429295097842" rx="1.11727265363005" ry="1.39845113741358"/><path id="shape3" transform="translate(56.5968256230547, 43.1052285105124)" fill="none" stroke="#070707" stroke-width="1.2" stroke-linecap="square" stroke-linejoin="bevel" d="M5.56318 19.1748L0.163179 20.2548L0 0"/><path id="shape4" transform="translate(56.1599996833369, 63.359999642739)" fill="none" stroke="#070707" stroke-width="1.2" stroke-linecap="square" stroke-linejoin="miter" stroke-miterlimit="2" d="M0.6 0L0 2.64"/><path id="shape5" transform="translate(23.4193769214958, 29.7833380414675)" fill="none" stroke="#070707" stroke-width="0.48" stroke-linecap="square" stroke-linejoin="miter" stroke-miterlimit="2" d="M0 0L3.0547 0"/><path id="shape6" transform="translate(28.0014289278754, 29.9530436713334)" fill="none" stroke="#070707" stroke-width="0.48" stroke-linecap="square" stroke-linejoin="miter" stroke-miterlimit="2" d="M0 0L0.0848528 0.424264"/><path id="shape7" transform="translate(29.2742211518698, 29.7833380414675)" fill="none" stroke="#070707" stroke-width="0.48" stroke-linecap="square" stroke-linejoin="miter" stroke-miterlimit="2" d="M0 0.0848528L2.46073 0"/><path id="shape8" transform="translate(33.2623034537187, 29.3590739668027)" fill="none" stroke="#070707" stroke-width="0.48" stroke-linecap="square" stroke-linejoin="miter" stroke-miterlimit="2" d="M0 0L1.6122 0"/><path id="shape9" transform="translate(34.8745069374449, 30.2924549310653)" fill="none" stroke="#070707" stroke-width="0.48" stroke-linecap="square" stroke-linejoin="miter" stroke-miterlimit="2" d="M0 0L1.12549 0.0848528"/><path id="shape10" transform="translate(37.5049442003665, 29.8681908564005)" fill="none" stroke="#070707" stroke-width="0.48" stroke-linecap="square" stroke-linejoin="miter" stroke-miterlimit="2" d="M0 0L2.20617 0"/><path id="shape11" transform="translate(42.0869962067461, 29.3590739668027)" fill="none" stroke="#070707" stroke-width="0.48" stroke-linecap="square" stroke-linejoin="miter" stroke-miterlimit="2" d="M0 0L0.0848528 0.933381"/><path id="shape12" transform="translate(36, 29.6136324116016)" fill="none" stroke="#070707" stroke-width="0.48" stroke-linecap="square" stroke-linejoin="miter" stroke-miterlimit="2" d="M0 0L2.18377 0.0848528"/><path id="shape13" transform="translate(27.7468704830766, 29.4439267817357)" fill="none" stroke="#070707" stroke-width="0.48" stroke-linecap="square" stroke-linejoin="miter" stroke-miterlimit="2" d="M0 0L2.46073 0"/><path id="shape14" transform="translate(25.2861388500209, 30.2076021161323)" fill="none" stroke="#070707" stroke-width="0.48" stroke-linecap="square" stroke-linejoin="miter" stroke-miterlimit="2" d="M0 0L2.37588 0.169706"/><ellipse id="shape15" transform="translate(27.3438977635783, 32.0365495207668)" rx="5.80408945686901" ry="5.14466453674122" cx="5.80408945686901" cy="5.14466453674122" fill="none" stroke="#070707" stroke-width="1.2" stroke-linecap="square" stroke-linejoin="bevel"/><ellipse id="shape16" transform="translate(30.1936217594333, 33.520553052758)" rx="0.20321174813304" ry="0.305745246156992" cx="0.20321174813304" cy="0.305745246156992" fill="#000000" fill-rule="evenodd" stroke="#070707" stroke-width="1.2" stroke-linecap="square" stroke-linejoin="bevel"/><circle id="shape17" transform="translate(36, 35.04)" r="0.48" cx="0.48" cy="0.48" fill="#070707" fill-rule="evenodd" stroke="#070707" stroke-width="1.2" stroke-linecap="square" stroke-linejoin="bevel"/><ellipse id="shape18" transform="translate(29.04, 37.92)" rx="0.24" ry="0.240000000000002" cx="0.24" cy="0.240000000000002" fill="#070707" fill-rule="evenodd" stroke="#070707" stroke-width="1.2" stroke-linecap="square" stroke-linejoin="bevel"/><circle id="shape19" transform="translate(33.36, 34.32)" r="0.239999999999998" cx="0.239999999999998" cy="0.239999999999998" fill="#070707" fill-rule="evenodd" stroke="#070707" stroke-width="1.2" stroke-linecap="square" stroke-linejoin="bevel"/><ellipse id="shape20" transform="translate(31.44, 41.1600000012113)" rx="0.48" ry="0.359999999999999" cx="0.48" cy="0.359999999999999" fill="#070707" fill-rule="evenodd" stroke="#070707" stroke-width="1.2" stroke-linecap="square" stroke-linejoin="bevel"/><ellipse id="shape21" transform="translate(34.8, 38.64)" rx="0.239999999999998" ry="0.359999999999999" cx="0.239999999999998" cy="0.359999999999999" fill="#070707" fill-rule="evenodd" stroke="#070707" stroke-width="1.2" stroke-linecap="square" stroke-linejoin="bevel"/><ellipse id="shape22" transform="translate(31.92, 36.72)" rx="0.24" ry="0.239999999999998" cx="0.24" cy="0.239999999999998" fill="#070707" fill-rule="evenodd" stroke="#070707" stroke-width="1.2" stroke-linecap="square" stroke-linejoin="bevel"/><ellipse id="shape0" transform="matrix(0.544539967249936 0 0 0.57118336197902 46.8388853982002 56.5200029384005)" rx="5.80408945686901" ry="5.14466453674122" cx="5.80408945686901" cy="5.14466453674122" fill="none" stroke="#070707" stroke-width="1.2" stroke-linecap="square" stroke-linejoin="bevel"/><ellipse id="shape1" transform="matrix(0.544539967249936 0 0 0.57118336197902 48.3906740095745 57.367641064992)" rx="0.20321174813304" ry="0.305745246156992" cx="0.20321174813304" cy="0.305745246156992" fill="#000000" fill-rule="evenodd" stroke="#070707" stroke-width="1.2" stroke-linecap="square" stroke-linejoin="bevel"/><circle id="shape2" transform="matrix(0.544539967249936 0 0 0.57118336197902 51.5524790265334 58.2355238806664)" r="0.48" cx="0.48" cy="0.48" fill="#070707" fill-rule="evenodd" stroke="#070707" stroke-width="1.2" stroke-linecap="square" stroke-linejoin="bevel"/><ellipse id="shape3" transform="matrix(0.544539967249936 0 0 0.57118336197902 47.7624808544738 59.880531963166)" rx="0.24" ry="0.240000000000002" cx="0.24" cy="0.240000000000002" fill="#070707" fill-rule="evenodd" stroke="#070707" stroke-width="1.2" stroke-linecap="square" stroke-linejoin="bevel"/><circle id="shape4" transform="matrix(0.544539967249936 0 0 0.57118336197902 50.1148935129936 57.8242718600416)" r="0.239999999999998" cx="0.239999999999998" cy="0.239999999999998" fill="#070707" fill-rule="evenodd" stroke="#070707" stroke-width="1.2" stroke-linecap="square" stroke-linejoin="bevel"/><ellipse id="shape5" transform="matrix(0.544539967249936 0 0 0.57118336197902 49.0693767758737 61.7311660566699)" rx="0.48" ry="0.359999999999999" cx="0.48" cy="0.359999999999999" fill="#070707" fill-rule="evenodd" stroke="#070707" stroke-width="1.2" stroke-linecap="square" stroke-linejoin="bevel"/><ellipse id="shape6" transform="matrix(0.544539967249936 0 0 0.57118336197902 50.8990310658335 60.2917839837909)" rx="0.239999999999998" ry="0.359999999999999" cx="0.239999999999998" cy="0.359999999999999" fill="#070707" fill-rule="evenodd" stroke="#070707" stroke-width="1.2" stroke-linecap="square" stroke-linejoin="bevel"/><ellipse id="shape7" transform="matrix(0.544539967249936 0 0 0.57118336197902 49.3307559601537 59.1951119287912)" rx="0.24" ry="0.239999999999998" cx="0.24" cy="0.239999999999998" fill="#070707" fill-rule="evenodd" stroke="#070707" stroke-width="1.2" stroke-linecap="square" stroke-linejoin="bevel"/><ellipse id="shape01" transform="matrix(0.296018583830443 0.457052258513963 -0.479415031621153 0.310502258951609 42.8133113020725 57.6950302496289)" rx="5.80408945686901" ry="5.14466453674122" cx="5.80408945686901" cy="5.14466453674122" fill="none" stroke="#070707" stroke-width="1.2" stroke-linecap="square" stroke-linejoin="bevel"/><ellipse id="shape11" transform="matrix(0.296018583830443 0.457052258513963 -0.479415031621153 0.310502258951609 42.9454289634176 59.4582894870512)" rx="0.20321174813304" ry="0.305745246156992" cx="0.20321174813304" cy="0.305745246156992" fill="#000000" fill-rule="evenodd" stroke="#070707" stroke-width="1.2" stroke-linecap="square" stroke-linejoin="bevel"/><circle id="shape21" transform="matrix(0.296018583830443 0.457052258513963 -0.479415031621153 0.310502258951609 43.9357791211154 62.5838994851644)" r="0.48" cx="0.48" cy="0.48" fill="#070707" fill-rule="evenodd" stroke="#070707" stroke-width="1.2" stroke-linecap="square" stroke-linejoin="bevel"/><ellipse id="shape31" transform="matrix(0.296018583830443 0.457052258513963 -0.479415031621153 0.310502258951609 40.4947744865865 60.2970622716878)" rx="0.24" ry="0.240000000000002" cx="0.24" cy="0.240000000000002" fill="#070707" fill-rule="evenodd" stroke="#070707" stroke-width="1.2" stroke-linecap="square" stroke-linejoin="bevel"/><circle id="shape41" transform="matrix(0.296018583830443 0.457052258513963 -0.479415031621153 0.310502258951609 43.4994688825702 61.1537198962424)" r="0.239999999999998" cx="0.239999999999998" cy="0.239999999999998" fill="#070707" fill-rule="evenodd" stroke="#070707" stroke-width="1.2" stroke-linecap="square" stroke-linejoin="bevel"/><ellipse id="shape51" transform="matrix(0.296018583830443 0.457052258513963 -0.479415031621153 0.310502258951609 39.6519143847464 62.4000150115007)" rx="0.48" ry="0.359999999999999" cx="0.48" cy="0.359999999999999" fill="#070707" fill-rule="evenodd" stroke="#070707" stroke-width="1.2" stroke-linecap="square" stroke-linejoin="bevel"/><ellipse id="shape61" transform="matrix(0.296018583830443 0.457052258513963 -0.479415031621153 0.310502258951609 41.8546627066827 63.1532449071735)" rx="0.239999999999998" ry="0.359999999999999" cx="0.239999999999998" cy="0.359999999999999" fill="#070707" fill-rule="evenodd" stroke="#070707" stroke-width="1.2" stroke-linecap="square" stroke-linejoin="bevel"/><ellipse id="shape71" transform="matrix(0.296018583830443 0.457052258513963 -0.479415031621153 0.310502258951609 41.9226060459636 61.2407700654662)" rx="0.24" ry="0.239999999999998" cx="0.24" cy="0.239999999999998" fill="#070707" fill-rule="evenodd" stroke="#070707" stroke-width="1.2" stroke-linecap="square" stroke-linejoin="bevel"/><ellipse id="shape02" transform="matrix(0.460948945454007 -0.289913502049377 0.304098466123552 0.48350237668461 29.8554205927317 58.4798698684514)" rx="5.80408945686901" ry="5.14466453674122" cx="5.80408945686901" cy="5.14466453674122" fill="none" stroke="#070707" stroke-width="1.2" stroke-linecap="square" stroke-linejoin="bevel"/><ellipse id="shape12" transform="matrix(0.460948945454007 -0.289913502049377 0.304098466123552 0.48350237668461 31.6202810612565 58.3712156396649)" rx="0.20321174813304" ry="0.305745246156992" cx="0.20321174813304" cy="0.305745246156992" fill="#000000" fill-rule="evenodd" stroke="#070707" stroke-width="1.2" stroke-linecap="square" stroke-linejoin="bevel"/><circle id="shape22" transform="matrix(0.460948945454007 -0.289913502049377 0.304098466123552 0.48350237668461 34.7587864741652 57.4225243999566)" r="0.48" cx="0.48" cy="0.48" fill="#070707" fill-rule="evenodd" stroke="#070707" stroke-width="1.2" stroke-linecap="square" stroke-linejoin="bevel"/><ellipse id="shape32" transform="matrix(0.460948945454007 -0.289913502049377 0.304098466123552 0.48350237668461 32.4263853962411 60.8328092190719)" rx="0.24" ry="0.240000000000002" cx="0.24" cy="0.240000000000002" fill="#070707" fill-rule="evenodd" stroke="#070707" stroke-width="1.2" stroke-linecap="square" stroke-linejoin="bevel"/><circle id="shape42" transform="matrix(0.460948945454007 -0.289913502049377 0.304098466123552 0.48350237668461 33.3229303625578 57.8397743341541)" r="0.239999999999998" cx="0.239999999999998" cy="0.239999999999998" fill="#070707" fill-rule="evenodd" stroke="#070707" stroke-width="1.2" stroke-linecap="square" stroke-linejoin="bevel"/><ellipse id="shape52" transform="matrix(0.460948945454007 -0.289913502049377 0.304098466123552 0.48350237668461 34.5179418959394 61.7035645151972)" rx="0.48" ry="0.359999999999999" cx="0.48" cy="0.359999999999999" fill="#070707" fill-rule="evenodd" stroke="#070707" stroke-width="1.2" stroke-linecap="square" stroke-linejoin="bevel"/><ellipse id="shape62" transform="matrix(0.460948945454007 -0.289913502049377 0.304098466123552 0.48350237668461 35.3004022176652 59.5110291584804)" rx="0.239999999999998" ry="0.359999999999999" cx="0.239999999999998" cy="0.359999999999999" fill="#070707" fill-rule="evenodd" stroke="#070707" stroke-width="1.2" stroke-linecap="square" stroke-linejoin="bevel"/><ellipse id="shape72" transform="matrix(0.460948945454007 -0.289913502049377 0.304098466123552 0.48350237668461 33.3890001998005 59.4176554811481)" rx="0.24" ry="0.239999999999998" cx="0.24" cy="0.239999999999998" fill="#070707" fill-rule="evenodd" stroke="#070707" stroke-width="1.2" stroke-linecap="square" stroke-linejoin="bevel"/><ellipse id="shape03" transform="matrix(0.516853687965248 0.171423552122855 -0.179811008764719 0.542142441140128 23.5065262816597 57.8071641076865)" rx="5.80408945686901" ry="5.14466453674122" cx="5.80408945686901" cy="5.14466453674122" fill="none" stroke="#070707" stroke-width="1.2" stroke-linecap="square" stroke-linejoin="bevel"/><ellipse id="shape13" transform="matrix(0.516853687965248 0.171423552122855 -0.179811008764719 0.542142441140128 24.7125764665027 59.10021521512)" rx="0.20321174813304" ry="0.305745246156992" cx="0.20321174813304" cy="0.305745246156992" fill="#000000" fill-rule="evenodd" stroke="#070707" stroke-width="1.2" stroke-linecap="square" stroke-linejoin="bevel"/><circle id="shape23" transform="matrix(0.516853687965248 0.171423552122855 -0.179811008764719 0.542142441140128 27.4404111855127 60.9193218752474)" r="0.48" cx="0.48" cy="0.48" fill="#070707" fill-rule="evenodd" stroke="#070707" stroke-width="1.2" stroke-linecap="square" stroke-linejoin="bevel"/><ellipse id="shape33" transform="matrix(0.516853687965248 0.171423552122855 -0.179811008764719 0.542142441140128 23.3252538120321 61.287584182956)" rx="0.24" ry="0.240000000000002" cx="0.24" cy="0.240000000000002" fill="#070707" fill-rule="evenodd" stroke="#070707" stroke-width="1.2" stroke-linecap="square" stroke-linejoin="bevel"/><circle id="shape43" transform="matrix(0.516853687965248 0.171423552122855 -0.179811008764719 0.542142441140128 26.205381375595 60.0764211400223)" r="0.239999999999998" cx="0.239999999999998" cy="0.239999999999998" fill="#070707" fill-rule="evenodd" stroke="#070707" stroke-width="1.2" stroke-linecap="square" stroke-linejoin="bevel"/><ellipse id="shape53" transform="matrix(0.516853687965248 0.171423552122855 -0.179811008764719 0.542142441140128 23.9831149945333 63.4555422180015)" rx="0.48" ry="0.359999999999999" cx="0.48" cy="0.359999999999999" fill="#070707" fill-rule="evenodd" stroke="#070707" stroke-width="1.2" stroke-linecap="square" stroke-linejoin="bevel"/><ellipse id="shape63" transform="matrix(0.516853687965248 0.171423552122855 -0.179811008764719 0.542142441140128 26.1728671284014 62.6653264008045)" rx="0.239999999999998" ry="0.359999999999999" cx="0.239999999999998" cy="0.359999999999999" fill="#070707" fill-rule="evenodd" stroke="#070707" stroke-width="1.2" stroke-linecap="square" stroke-linejoin="bevel"/><ellipse id="shape73" transform="matrix(0.516853687965248 0.171423552122855 -0.179811008764719 0.542142441140128 25.0295656438898 61.1307130837017)" rx="0.24" ry="0.239999999999998" cx="0.24" cy="0.239999999999998" fill="#070707" fill-rule="evenodd" stroke="#070707" stroke-width="1.2" stroke-linecap="square" stroke-linejoin="bevel"/><ellipse id="shape04" transform="matrix(-0.00356643675446861 -0.544528281648046 0.571171104620928 -0.00374093630994713 14.2986869513061 62.7395274256729)" rx="5.80408945686901" ry="5.14466453674122" cx="5.80408945686901" cy="5.14466453674122" fill="none" stroke="#070707" stroke-width="1.2" stroke-linecap="square" stroke-linejoin="bevel"/><ellipse id="shape14" transform="matrix(-0.00356643675446861 -0.544528281648046 0.571171104620928 -0.00374093630994713 15.1361435275359 61.1822205523417)" rx="0.20321174813304" ry="0.305745246156992" cx="0.20321174813304" cy="0.305745246156992" fill="#000000" fill-rule="evenodd" stroke="#070707" stroke-width="1.2" stroke-linecap="square" stroke-linejoin="bevel"/><circle id="shape24" transform="matrix(-0.00356643675446861 -0.544528281648046 0.571171104620928 -0.00374093630994713 15.9832996380375 58.0147992321513)" r="0.48" cx="0.48" cy="0.48" fill="#070707" fill-rule="evenodd" stroke="#070707" stroke-width="1.2" stroke-linecap="square" stroke-linejoin="bevel"/><ellipse id="shape34" transform="matrix(-0.00356643675446861 -0.544528281648046 0.571171104620928 -0.00374093630994713 17.6530948191569 61.7939421758492)" rx="0.24" ry="0.240000000000002" cx="0.24" cy="0.240000000000002" fill="#070707" fill-rule="evenodd" stroke="#070707" stroke-width="1.2" stroke-linecap="square" stroke-linejoin="bevel"/><circle id="shape44" transform="matrix(-0.00356643675446861 -0.544528281648046 0.571171104620928 -0.00374093630994713 15.5814718357424 59.4550473698453)" r="0.239999999999998" cx="0.239999999999998" cy="0.239999999999998" fill="#070707" fill-rule="evenodd" stroke="#070707" stroke-width="1.2" stroke-linecap="square" stroke-linejoin="bevel"/><ellipse id="shape54" transform="matrix(-0.00356643675446861 -0.544528281648046 0.571171104620928 -0.00374093630994713 19.4951297506099 60.474953666245)" rx="0.48" ry="0.359999999999999" cx="0.48" cy="0.359999999999999" fill="#070707" fill-rule="evenodd" stroke="#070707" stroke-width="1.2" stroke-linecap="square" stroke-linejoin="bevel"/><ellipse id="shape64" transform="matrix(-0.00356643675446861 -0.544528281648046 0.571171104620928 -0.00374093630994713 18.0437953387783 58.6547657994132)" rx="0.239999999999998" ry="0.359999999999999" cx="0.239999999999998" cy="0.359999999999999" fill="#070707" fill-rule="evenodd" stroke="#070707" stroke-width="1.2" stroke-linecap="square" stroke-linejoin="bevel"/><ellipse id="shape74" transform="matrix(-0.00356643675446861 -0.544528281648046 0.571171104620928 -0.00374093630994713 16.9574181557589 60.2301898482747)" rx="0.24" ry="0.239999999999998" cx="0.24" cy="0.239999999999998" fill="#070707" fill-rule="evenodd" stroke="#070707" stroke-width="1.2" stroke-linecap="square" stroke-linejoin="bevel"/>
</svg>
