<?xml version="1.0" standalone="no"?>
<!DOCTYPE svg PUBLIC "-//W3C//DTD SVG 20010904//EN" "http://www.w3.org/TR/2001/REC-SVG-20010904/DTD/svg10.dtd">
<!-- Created using Krita: https://krita.org -->
<svg xmlns="http://www.w3.org/2000/svg" 
    xmlns:xlink="http://www.w3.org/1999/xlink"
    xmlns:krita="http://krita.org/namespaces/svg/krita"
    xmlns:sodipodi="http://sodipodi.sourceforge.net/DTD/sodipodi-0.dtd"
    width="72pt"
    height="72pt"
    viewBox="0 0 72 72">
<defs/>
<path id="shape0" transform="translate(7.92000058247211, 5.04000037066407)" fill="none" stroke="#070707" stroke-width="1.2" stroke-linecap="square" stroke-linejoin="bevel" d="M4.80792 1.40881L0 11.4L43.92 11.4L50.4 0L54.96 57.72L47.64 62.16L50.28 1.8M0.12 11.52L7.32 12.12L3.96 60.84L47.28 62.04"/><path id="shape1" transform="translate(12.8127751923057, 5.51543302980044)" fill="none" stroke="#070707" stroke-width="1.2" stroke-linecap="square" stroke-linejoin="miter" stroke-miterlimit="2" d="M0 0.59397L45.0568 0"/><rect id="shape2" transform="matrix(0.999750282706864 0.0223466379473096 -0.0223466379473096 0.999750282706864 20.3392956846348 26.8912267090242)" fill="none" stroke="#070707" stroke-width="1.2" stroke-linecap="square" stroke-linejoin="bevel" width="26.3472835437664" height="17.2429295097842" rx="1.11727265363005" ry="1.39845113741358"/><path id="shape3" transform="translate(56.5968256230547, 43.1052285105124)" fill="none" stroke="#070707" stroke-width="1.2" stroke-linecap="square" stroke-linejoin="bevel" d="M5.56318 19.1748L0.163179 20.2548L0 0"/><path id="shape4" transform="translate(56.1599996833369, 63.359999642739)" fill="none" stroke="#070707" stroke-width="1.2" stroke-linecap="square" stroke-linejoin="miter" stroke-miterlimit="2" d="M0.6 0L0 2.64"/><path id="shape5" transform="translate(23.4193769214958, 29.7833380414675)" fill="none" stroke="#070707" stroke-width="0.48" stroke-linecap="square" stroke-linejoin="miter" stroke-miterlimit="2" d="M0 0L3.0547 0"/><path id="shape6" transform="translate(28.0014289278754, 29.9530436713334)" fill="none" stroke="#070707" stroke-width="0.48" stroke-linecap="square" stroke-linejoin="miter" stroke-miterlimit="2" d="M0 0L0.0848528 0.424264"/><path id="shape7" transform="translate(29.2742211518698, 29.7833380414675)" fill="none" stroke="#070707" stroke-width="0.48" stroke-linecap="square" stroke-linejoin="miter" stroke-miterlimit="2" d="M0 0.0848528L2.46073 0"/><path id="shape8" transform="translate(33.2623034537187, 29.3590739668027)" fill="none" stroke="#070707" stroke-width="0.48" stroke-linecap="square" stroke-linejoin="miter" stroke-miterlimit="2" d="M0 0L1.6122 0"/><path id="shape9" transform="translate(34.8745069374449, 30.2924549310653)" fill="none" stroke="#070707" stroke-width="0.48" stroke-linecap="square" stroke-linejoin="miter" stroke-miterlimit="2" d="M0 0L1.12549 0.0848528"/><path id="shape10" transform="translate(37.5049442003665, 29.8681908564005)" fill="none" stroke="#070707" stroke-width="0.48" stroke-linecap="square" stroke-linejoin="miter" stroke-miterlimit="2" d="M0 0L2.20617 0"/><path id="shape11" transform="translate(42.0869962067461, 29.3590739668027)" fill="none" stroke="#070707" stroke-width="0.48" stroke-linecap="square" stroke-linejoin="miter" stroke-miterlimit="2" d="M0 0L0.0848528 0.933381"/><path id="shape12" transform="translate(36, 29.6136324116016)" fill="none" stroke="#070707" stroke-width="0.48" stroke-linecap="square" stroke-linejoin="miter" stroke-miterlimit="2" d="M0 0L2.18377 0.0848528"/><path id="shape13" transform="translate(27.7468704830766, 29.4439267817357)" fill="none" stroke="#070707" stroke-width="0.48" stroke-linecap="square" stroke-linejoin="miter" stroke-miterlimit="2" d="M0 0L2.46073 0"/><path id="shape14" transform="translate(25.2861388500209, 30.2076021161323)" fill="none" stroke="#070707" stroke-width="0.48" stroke-linecap="square" stroke-linejoin="miter" stroke-miterlimit="2" d="M0 0L2.37588 0.169706"/><path id="shape15" transform="matrix(0.999831396768336 0.018362408237445 -0.018362408237445 0.999831396768336 28.5888262619136 32.8036882991002)" fill="none" stroke="#070707" stroke-width="1.2" stroke-linecap="square" stroke-linejoin="bevel" d="M8.4 2.76816C6.51141 -0.534805 2.24278 -1.2913 0 2.76816L3.52877 3.92816L2.76164 9.38447C3.75518 9.64436 4.97644 9.70681 5.86849 9.34151L4.79452 3.84223Z"/><path id="shape0" transform="matrix(0.999831360897662 0.018362407578662 -0.018362407578662 0.999831360897662 35.5799999831988 37.0800014833092)" fill="none" stroke="#070707" stroke-width="1.2" stroke-linecap="square" stroke-linejoin="bevel" d="M5.49483 1.44804C4.25942 -0.27976 1.46711 -0.675486 0 1.44804L2.30833 2.05484L1.80652 4.90906C2.45644 5.04501 3.25532 5.07768 3.83885 4.88659L3.13632 2.00989Z"/><path id="shape01" transform="matrix(0.989271660435344 -0.146087337254312 0.146087337254312 0.989271660435344 37.3163773599852 54.3771053842632)" fill="none" stroke="#070707" stroke-width="1.2" stroke-linecap="square" stroke-linejoin="bevel" d="M7.68484 2.47016C5.95704 -0.477234 2.05183 -1.15229 0 2.47016L3.22834 3.50529L2.52652 8.37422C3.43547 8.60613 4.55276 8.66185 5.36886 8.33588L4.38632 3.42861Z"/><path id="shape02" transform="matrix(0.98927162895147 -0.146087332605038 0.146087332605038 0.98927162895147 21.3309702888748 52.9400107971798)" fill="none" stroke="#070707" stroke-width="1.2" stroke-linecap="square" stroke-linejoin="bevel" d="M7.68484 2.47016C5.95704 -0.477234 2.05183 -1.15229 0 2.47016L3.22834 3.50529L2.52652 8.37422C3.43547 8.60613 4.55276 8.66185 5.36886 8.33588L4.38632 3.42861Z"/><path id="shape03" transform="matrix(0.966867396327495 0.255278872049453 -0.255278872049453 0.966867396327495 30.1557685326006 55.453731775113)" fill="none" stroke="#070707" stroke-width="1.2" stroke-linecap="square" stroke-linejoin="bevel" d="M7.68484 2.47016C5.95704 -0.477234 2.05183 -1.15229 0 2.47016L3.22834 3.50529L2.52652 8.37422C3.43547 8.60613 4.55276 8.66185 5.36886 8.33588L4.38632 3.42861Z"/><path id="shape04" transform="matrix(0.966867379577855 0.2552788676271 -0.2552788676271 0.966867379577855 14.89536014261 54.7784866774139)" fill="none" stroke="#070707" stroke-width="1.2" stroke-linecap="square" stroke-linejoin="bevel" d="M7.68484 2.47016C5.95704 -0.477234 2.05183 -1.15229 0 2.47016L3.22834 3.50529L2.52652 8.37422C3.43547 8.60613 4.55276 8.66185 5.36886 8.33588L4.38632 3.42861Z"/><path id="shape05" transform="matrix(0.966867400594219 0.255278873175982 -0.255278873175982 0.966867400594219 46.705781974783 55.9220204818987)" fill="none" stroke="#070707" stroke-width="1.2" stroke-linecap="square" stroke-linejoin="bevel" d="M7.68484 2.47016C5.95704 -0.477234 2.05183 -1.15229 0 2.47016L3.22834 3.50529L2.52652 8.37422C3.43547 8.60613 4.55276 8.66185 5.36886 8.33588L4.38632 3.42861Z"/>
</svg>
