<?xml version="1.0" standalone="no"?>
<!DOCTYPE svg PUBLIC "-//W3C//DTD SVG 20010904//EN" "http://www.w3.org/TR/2001/REC-SVG-20010904/DTD/svg10.dtd">
<!-- Created using Krita: https://krita.org -->
<svg xmlns="http://www.w3.org/2000/svg" 
    xmlns:xlink="http://www.w3.org/1999/xlink"
    xmlns:krita="http://krita.org/namespaces/svg/krita"
    xmlns:sodipodi="http://sodipodi.sourceforge.net/DTD/sodipodi-0.dtd"
    width="72pt"
    height="72pt"
    viewBox="0 0 72 72">
<defs/>
<ellipse id="shape1" transform="matrix(2.83649992357232 0 0 2.83001752683926 4.2841215473478 3.73780019403239)" rx="11.277893981797" ry="11.4" cx="11.277893981797" cy="11.4" fill="none" stroke="#000000" stroke-width="1.2" stroke-linecap="square" stroke-linejoin="bevel"/><ellipse id="shape2" transform="matrix(2.56428136435986 -1.20974409153412 1.21251511364703 2.55842108246781 47.5875477834199 17.5449593074049)" rx="1.32" ry="1.56" cx="1.32" cy="1.56" fill="#050604" fill-rule="evenodd" stroke="#000000" stroke-width="1.2" stroke-linecap="square" stroke-linejoin="bevel"/><path id="shape0" transform="matrix(0.60456339935501 0.255478582442785 -0.183410323763607 0.502434360953973 39.2356098523515 53.3578834627024)" fill="none" stroke="#070707" stroke-width="0.48" stroke-linecap="square" stroke-linejoin="bevel" d="M9.05289 0.060018C6.92245 -0.241994 5.37001 0.48425 4.13911 4.82361C2.66724 8.61429 -0.678067 9.09498 0.121839 13.4871C0.806628 14.7278 2.32439 17.2689 7.12219 14.8024C8.94735 14.3784 8.17763 14.3385 10.389 14.5902C14.3241 17.5092 17.2854 15.3994 17.3251 13.949C18.8746 11.4451 14.9825 8.77165 13.9104 5.12913C13.1229 0.548703 11.1879 -0.0911033 9.06594 0.0767468"/><ellipse id="shape11" transform="matrix(0.626375275064099 0.170156016205932 -0.082403067243444 0.537360701301393 38.4317257842436 52.3033771259563)" rx="2.28" ry="3.6" cx="2.28" cy="3.6" fill="none" stroke="#070707" stroke-width="0.48" stroke-linecap="square" stroke-linejoin="bevel"/><ellipse id="shape01" transform="matrix(0.622046333339603 0.194099062839597 -0.11042911724009 0.529183456923265 42.8663925142704 50.3159279495298)" rx="2.28" ry="3.6" cx="2.28" cy="3.6" fill="none" stroke="#070707" stroke-width="0.48" stroke-linecap="square" stroke-linejoin="bevel"/><ellipse id="shape011" transform="matrix(0.527710121357527 0.387498940960194 -0.347358976524997 0.40933378559703 47.9074340966303 52.3206021908444)" rx="2.28" ry="3.6" cx="2.28" cy="3.6" fill="none" stroke="#070707" stroke-width="0.48" stroke-linecap="square" stroke-linejoin="bevel"/><ellipse id="shape02" transform="matrix(0.537072430414076 0.376083703810452 -0.332700218281845 0.419845953898186 49.050177224672 56.9398972039989)" rx="2.28" ry="3.6" cx="2.28" cy="3.6" fill="none" stroke="#070707" stroke-width="0.48" stroke-linecap="square" stroke-linejoin="bevel"/><path id="shape011" transform="matrix(0.467007732231387 -0.460431326354856 0.3957864935862 0.36054716187424 51.972541462181 50.2725664725097)" fill="none" stroke="#070707" stroke-width="0.48" stroke-linecap="square" stroke-linejoin="bevel" d="M9.05289 0.060018C6.92245 -0.241994 5.37001 0.48425 4.13911 4.82361C2.66724 8.61429 -0.678067 9.09498 0.121839 13.4871C0.806628 14.7278 2.32439 17.2689 7.12219 14.8024C8.94735 14.3784 8.17763 14.3385 10.389 14.5902C14.3241 17.5092 17.2854 15.3994 17.3251 13.949C18.8746 11.4451 14.9825 8.77165 13.9104 5.12913C13.1229 0.548703 11.1879 -0.0911033 9.06594 0.0767468"/><ellipse id="shape11" transform="matrix(0.396240978560193 -0.513047444286245 0.466622178404347 0.280666318135633 50.689117865646 50.6125772722332)" rx="2.28" ry="3.6" cx="2.28" cy="3.6" fill="none" stroke="#070707" stroke-width="0.48" stroke-linecap="square" stroke-linejoin="bevel"/><ellipse id="shape012" transform="matrix(0.416781811009563 -0.499935460426292 0.44837046485326 0.303406955328294 50.5361170951918 45.7645742332889)" rx="2.28" ry="3.6" cx="2.28" cy="3.6" fill="none" stroke="#070707" stroke-width="0.48" stroke-linecap="square" stroke-linejoin="bevel"/><ellipse id="shape0111" transform="matrix(0.560090297009486 -0.33925365774111 0.247066814722177 0.476338326027321 54.3137865756962 41.8775232854457)" rx="2.28" ry="3.6" cx="2.28" cy="3.6" fill="none" stroke="#070707" stroke-width="0.48" stroke-linecap="square" stroke-linejoin="bevel"/><ellipse id="shape021" transform="matrix(0.553076631319858 -0.35223800815183 0.262391675990332 0.46681862724881 59.0299634824959 42.5825106601863)" rx="2.28" ry="3.6" cx="2.28" cy="3.6" fill="none" stroke="#070707" stroke-width="0.48" stroke-linecap="square" stroke-linejoin="bevel"/><path id="shape021" transform="matrix(0.604563380295287 0.255478574388459 -0.183410317981336 0.502434345114016 42.9188216933667 29.092108497868)" fill="none" stroke="#070707" stroke-width="0.48" stroke-linecap="square" stroke-linejoin="bevel" d="M9.05289 0.060018C6.92245 -0.241994 5.37001 0.48425 4.13911 4.82361C2.66724 8.61429 -0.678067 9.09498 0.121839 13.4871C0.806628 14.7278 2.32439 17.2689 7.12219 14.8024C8.94735 14.3784 8.17763 14.3385 10.389 14.5902C14.3241 17.5092 17.2854 15.3994 17.3251 13.949C18.8746 11.4451 14.9825 8.77165 13.9104 5.12913C13.1229 0.548703 11.1879 -0.0911033 9.06594 0.0767468"/><ellipse id="shape12" transform="matrix(0.626375255316727 0.170156010841521 -0.08240306464557 0.537360684360331 42.1149374344999 28.0376020862631)" rx="2.28" ry="3.6" cx="2.28" cy="3.6" fill="none" stroke="#070707" stroke-width="0.48" stroke-linecap="square" stroke-linejoin="bevel"/><ellipse id="shape013" transform="matrix(0.622046313728711 0.194099056720349 -0.110429113758655 0.529183440240002 46.5496040247178 26.050152972494)" rx="2.28" ry="3.6" cx="2.28" cy="3.6" fill="none" stroke="#070707" stroke-width="0.48" stroke-linecap="square" stroke-linejoin="bevel"/><ellipse id="shape0111" transform="matrix(0.527710104720714 0.387498928743736 -0.347358965574012 0.409333772692199 51.5906454481518 28.0548271506079)" rx="2.28" ry="3.6" cx="2.28" cy="3.6" fill="none" stroke="#070707" stroke-width="0.48" stroke-linecap="square" stroke-linejoin="bevel"/><ellipse id="shape022" transform="matrix(0.537072413482104 0.376083691953876 -0.332700207792996 0.419845940661943 52.7333885401668 32.6741220181327)" rx="2.28" ry="3.6" cx="2.28" cy="3.6" fill="none" stroke="#070707" stroke-width="0.48" stroke-linecap="square" stroke-linejoin="bevel"/><path id="shape03" transform="matrix(0.522126377495623 -0.397147558007454 0.346388155440443 0.408030721586155 26.192975673089 45.6204922037721)" fill="none" stroke="#070707" stroke-width="0.48" stroke-linecap="square" stroke-linejoin="bevel" d="M9.05289 0.060018C6.92245 -0.241994 5.37001 0.48425 4.13911 4.82361C2.66724 8.61429 -0.678067 9.09498 0.121839 13.4871C0.806628 14.7278 2.32439 17.2689 7.12219 14.8024C8.94735 14.3784 8.17763 14.3385 10.389 14.5902C14.3241 17.5092 17.2854 15.3994 17.3251 13.949C18.8746 11.4451 14.9825 8.77165 13.9104 5.12913C13.1229 0.548703 11.1879 -0.0911033 9.06594 0.0767468"/><ellipse id="shape13" transform="matrix(0.458675066707832 -0.458350807669245 0.426869876527609 0.337831007603436 24.8765363083239 45.794166483746)" rx="2.28" ry="3.6" cx="2.28" cy="3.6" fill="none" stroke="#070707" stroke-width="0.48" stroke-linecap="square" stroke-linejoin="bevel"/><ellipse id="shape014" transform="matrix(0.477369085187684 -0.442728618981723 0.405856434213804 0.358059501090365 25.3454220858792 40.9663734379836)" rx="2.28" ry="3.6" cx="2.28" cy="3.6" fill="none" stroke="#070707" stroke-width="0.48" stroke-linecap="square" stroke-linejoin="bevel"/><ellipse id="shape0112" transform="matrix(0.59893358488696 -0.265100519021342 0.184063167364147 0.503921572470516 29.5897645232798 37.5925624430457)" rx="2.28" ry="3.6" cx="2.28" cy="3.6" fill="none" stroke="#070707" stroke-width="0.48" stroke-linecap="square" stroke-linejoin="bevel"/><ellipse id="shape023" transform="matrix(0.593639599738265 -0.278872300091763 0.200481206870524 0.496432751365249 34.1770623447378 38.8927764243096)" rx="2.28" ry="3.6" cx="2.28" cy="3.6" fill="none" stroke="#070707" stroke-width="0.48" stroke-linecap="square" stroke-linejoin="bevel"/><path id="shape04" transform="matrix(0.604563380295287 0.255478574388459 -0.183410317981336 0.502434345114016 14.5179917611046 49.0233093332578)" fill="none" stroke="#070707" stroke-width="0.48" stroke-linecap="square" stroke-linejoin="bevel" d="M9.05289 0.060018C6.92245 -0.241994 5.37001 0.48425 4.13911 4.82361C2.66724 8.61429 -0.678067 9.09498 0.121839 13.4871C0.806628 14.7278 2.32439 17.2689 7.12219 14.8024C8.94735 14.3784 8.17763 14.3385 10.389 14.5902C14.3241 17.5092 17.2854 15.3994 17.3251 13.949C18.8746 11.4451 14.9825 8.77165 13.9104 5.12913C13.1229 0.548703 11.1879 -0.0911033 9.06594 0.0767468"/><ellipse id="shape14" transform="matrix(0.626375255316727 0.170156010841521 -0.08240306464557 0.537360684360331 13.7141075022378 47.9688029216527)" rx="2.28" ry="3.6" cx="2.28" cy="3.6" fill="none" stroke="#070707" stroke-width="0.48" stroke-linecap="square" stroke-linejoin="bevel"/><ellipse id="shape015" transform="matrix(0.622046313728711 0.194099056720349 -0.110429113758655 0.529183440240002 18.1487740924556 45.9813538078837)" rx="2.28" ry="3.6" cx="2.28" cy="3.6" fill="none" stroke="#070707" stroke-width="0.48" stroke-linecap="square" stroke-linejoin="bevel"/><ellipse id="shape0113" transform="matrix(0.527710104720714 0.387498928743736 -0.347358965574012 0.409333772692199 23.1898155158894 47.9860279859977)" rx="2.28" ry="3.6" cx="2.28" cy="3.6" fill="none" stroke="#070707" stroke-width="0.48" stroke-linecap="square" stroke-linejoin="bevel"/><ellipse id="shape024" transform="matrix(0.537072413482104 0.376083691953876 -0.332700207792996 0.419845940661943 24.3325586079047 52.6053228535223)" rx="2.28" ry="3.6" cx="2.28" cy="3.6" fill="none" stroke="#070707" stroke-width="0.48" stroke-linecap="square" stroke-linejoin="bevel"/><path id="shape05" transform="matrix(0.604563380295287 0.255478574388459 -0.183410317981336 0.502434345114016 14.2773067616786 23.8091396017408)" fill="none" stroke="#070707" stroke-width="0.48" stroke-linecap="square" stroke-linejoin="bevel" d="M9.05289 0.060018C6.92245 -0.241994 5.37001 0.48425 4.13911 4.82361C2.66724 8.61429 -0.678067 9.09498 0.121839 13.4871C0.806628 14.7278 2.32439 17.2689 7.12219 14.8024C8.94735 14.3784 8.17763 14.3385 10.389 14.5902C14.3241 17.5092 17.2854 15.3994 17.3251 13.949C18.8746 11.4451 14.9825 8.77165 13.9104 5.12913C13.1229 0.548703 11.1879 -0.0911033 9.06594 0.0767468"/><ellipse id="shape15" transform="matrix(0.626375255316727 0.170156010841521 -0.08240306464557 0.537360684360331 13.4734225028118 22.7546331901357)" rx="2.28" ry="3.6" cx="2.28" cy="3.6" fill="none" stroke="#070707" stroke-width="0.48" stroke-linecap="square" stroke-linejoin="bevel"/><ellipse id="shape016" transform="matrix(0.622046313728711 0.194099056720349 -0.110429113758655 0.529183440240002 17.9080890930297 20.7671840763665)" rx="2.28" ry="3.6" cx="2.28" cy="3.6" fill="none" stroke="#070707" stroke-width="0.48" stroke-linecap="square" stroke-linejoin="bevel"/><ellipse id="shape0114" transform="matrix(0.527710104720714 0.387498928743736 -0.347358965574012 0.409333772692199 22.9491305164635 22.7718582544805)" rx="2.28" ry="3.6" cx="2.28" cy="3.6" fill="none" stroke="#070707" stroke-width="0.48" stroke-linecap="square" stroke-linejoin="bevel"/><ellipse id="shape025" transform="matrix(0.537072413482104 0.376083691953876 -0.332700207792996 0.419845940661943 24.0918736084787 27.3911531220053)" rx="2.28" ry="3.6" cx="2.28" cy="3.6" fill="none" stroke="#070707" stroke-width="0.48" stroke-linecap="square" stroke-linejoin="bevel"/><path id="shape06" transform="matrix(0.546155150414974 -0.363557261105816 0.319948987999503 0.428982560497492 28.2664553071107 20.2371056938847)" fill="none" stroke="#070707" stroke-width="0.48" stroke-linecap="square" stroke-linejoin="bevel" d="M9.05289 0.060018C6.92245 -0.241994 5.37001 0.48425 4.13911 4.82361C2.66724 8.61429 -0.678067 9.09498 0.121839 13.4871C0.806628 14.7278 2.32439 17.2689 7.12219 14.8024C8.94735 14.3784 8.17763 14.3385 10.389 14.5902C14.3241 17.5092 17.2854 15.3994 17.3251 13.949C18.8746 11.4451 14.9825 8.77165 13.9104 5.12913C13.1229 0.548703 11.1879 -0.0911033 9.06594 0.0767468"/><ellipse id="shape16" transform="matrix(0.486692436575999 -0.428625333356704 0.404701464571625 0.363978355013862 26.9416673736541 20.327731070724)" rx="2.28" ry="3.6" cx="2.28" cy="3.6" fill="none" stroke="#070707" stroke-width="0.48" stroke-linecap="square" stroke-linejoin="bevel"/><ellipse id="shape017" transform="matrix(0.504363404624223 -0.41185970947688 0.382453055027273 0.382846553100688 27.7143159853957 15.5389759636138)" rx="2.28" ry="3.6" cx="2.28" cy="3.6" fill="none" stroke="#070707" stroke-width="0.48" stroke-linecap="square" stroke-linejoin="bevel"/><ellipse id="shape0115" transform="matrix(0.614476139244967 -0.226946912661933 0.15189423136653 0.514485181851404 32.1631648026783 12.4385075919814)" rx="2.28" ry="3.6" cx="2.28" cy="3.6" fill="none" stroke="#070707" stroke-width="0.48" stroke-linecap="square" stroke-linejoin="bevel"/><ellipse id="shape026" transform="matrix(0.610061829138078 -0.241023954575607 0.168752326954423 0.508042672255186 36.6592997660822 14.0243346781781)" rx="2.28" ry="3.6" cx="2.28" cy="3.6" fill="none" stroke="#070707" stroke-width="0.48" stroke-linecap="square" stroke-linejoin="bevel"/><path id="shape07" transform="matrix(0.453374846828962 -0.473800792857372 0.406139156309151 0.348898399329507 0.480000009146723 42.6439640764436)" fill="none" stroke="#070707" stroke-width="0.48" stroke-linecap="square" stroke-linejoin="bevel" d="M6.75272 0.0425855C4.62228 -0.259427 5.56512 0.997552 4.33422 5.33691C2.86235 9.12759 -0.683893 11.5202 0.116013 15.9123C0.800802 17.153 0.0242162 17.2515 4.82202 14.785C6.64718 14.361 5.87746 14.3211 8.08883 14.5728C12.0239 17.4918 14.9852 15.382 15.0249 13.9316C16.5744 11.4277 12.6823 8.75422 11.6102 5.1117C10.8227 0.53127 9.47492 0.751622 7.35296 0.919472"/><ellipse id="shape027" transform="matrix(0.542564241946479 -0.368153274571663 0.275901777576508 0.458999382882699 6.26012170625557 35.8359208327791)" rx="2.28" ry="3.6" cx="2.28" cy="3.6" fill="none" stroke="#070707" stroke-width="0.48" stroke-linecap="square" stroke-linejoin="bevel"/>
</svg>
