<?xml version="1.0" standalone="no"?>
<!DOCTYPE svg PUBLIC "-//W3C//DTD SVG 20010904//EN" "http://www.w3.org/TR/2001/REC-SVG-20010904/DTD/svg10.dtd">
<!-- Created using Krita: https://krita.org -->
<svg xmlns="http://www.w3.org/2000/svg" 
    xmlns:xlink="http://www.w3.org/1999/xlink"
    xmlns:krita="http://krita.org/namespaces/svg/krita"
    xmlns:sodipodi="http://sodipodi.sourceforge.net/DTD/sodipodi-0.dtd"
    width="72pt"
    height="72pt"
    viewBox="0 0 72 72">
<defs/>
<path id="shape0" transform="matrix(1.03949731525322 0 0 1.05134205470545 36.0623699742258 7.94786702625797)" fill="#ce771a" fill-rule="evenodd" stroke="#000000" stroke-width="1.2" stroke-linecap="square" stroke-linejoin="bevel" d="M0.062516 0.624794C1.62989 0.626799 3.3095 0.455253 4.8142 0C6.20059 0.16229 9.71369 0.59377 10.4145 0.86016C19.7759 8.5015 19.4869 15.1113 32.46 31.1602C32.4074 32.2206 32.513 31.3701 32.46 32.8402C32.8258 33.5259 33.1968 33.8696 33.36 34.4602C32.7315 36.3861 30.8045 38.0249 30.54 38.6002C29.9595 38.9329 29.5238 37.8957 28.68 37.6402C27.4499 38.3426 27.0994 37.7667 26.4 37.6402C23.3816 34.666 13.6916 23.6823 12 20.0602C14.4416 25.1033 14.1226 43.6247 16.8 49.851C16.8817 50.8671 16.8078 48.7452 15.96 52.8202C12.7527 53.36 5.29986 53.3786 0 53.3602"/><path id="shape1" transform="matrix(-1.03949731525322 0 0 1.05134205470545 35.9376300257742 7.94786702625797)" fill="#ce771a" fill-rule="evenodd" stroke="#000000" stroke-width="1.2" stroke-linecap="square" stroke-linejoin="bevel" d="M0.062516 0.624794C1.62989 0.626799 3.3095 0.455253 4.8142 0C6.20059 0.16229 9.71369 0.59377 10.4145 0.86016C19.7759 8.5015 19.4869 15.1113 32.46 31.1602C32.4074 32.2206 32.513 31.3701 32.46 32.8402C32.8258 33.5259 33.1968 33.8696 33.36 34.4602C32.7315 36.3861 30.8045 38.0249 30.54 38.6002C29.9595 38.9329 29.5238 37.8957 28.68 37.6402C27.4499 38.3426 27.0994 37.7667 26.4 37.6402C23.3816 34.666 13.6916 23.6823 12 20.0602C14.4416 25.1033 14.1226 43.6247 16.8 49.851C16.8817 50.8671 16.8078 48.7452 15.96 52.8202C12.7527 53.36 5.29986 53.3786 0 53.3602"/><path id="shape2" transform="translate(26.5800001266566, 7.9761646662978)" fill="#ffcd05" fill-rule="evenodd" stroke="#000000" stroke-width="1.2" stroke-linecap="square" stroke-linejoin="bevel" d="M14.3615 0C10.4248 0.681938 9.05007 0.717804 4.4337 0.0424264L0 0.543835C7.27694 3.68232 13.0533 2.7494 18.36 0.543835Z"/><path id="shape0" transform="matrix(1.00000000071971 0 0 1.00000000071971 36.0000000259094 8.55000064212096)" fill="#914100" stroke="#000000" stroke-width="1.2" stroke-linecap="square" stroke-linejoin="bevel" d="M0.450002 2.01C3.62607 1.54126 6.52848 0.94622 8.67 0L10.77 0.18L13.95 3L9.48 2.43L8.37802 5.85L4.22024 4.3052L1.29281 6.93564L0 10.7116"/><path id="shape01" transform="matrix(1.00000000143942 0 0 1.00000000143942 36 49.6813245738514)" fill="#914100" stroke="#000000" stroke-width="1.2" stroke-linecap="square" stroke-linejoin="bevel" d="M0 5.21845C0.757763 4.45272 3.64849 1.20078 4.85663 0.0848528L9.52354 4.83661L14.6996 0L16.2269 6.66095L14.7844 3.11868L9.35383 7.91868L4.85663 3.11868L0.232153 7.91868"/><path id="shape02" transform="matrix(-1.00000000071971 0 0 1.00000000071971 36.0200215185412 8.60830982596157)" fill="#914100" stroke="#000000" stroke-width="1.2" stroke-linecap="square" stroke-linejoin="bevel" d="M0.450002 2.01C3.62607 1.54126 6.52848 0.94622 8.67 0L10.77 0.18L13.95 3L9.48 2.43L8.37802 5.85L4.22024 4.3052L1.29281 6.93564L0 10.7116"/><path id="shape03" transform="matrix(-1.00000000143942 0 0 1.00000000143942 36.0200215444506 49.739633757692)" fill="#914100" stroke="#000000" stroke-width="1.2" stroke-linecap="square" stroke-linejoin="bevel" d="M0 5.21845C0.757763 4.45272 3.64849 1.20078 4.85663 0.0848528L9.52354 4.83661L14.6996 0L16.2269 6.66095L14.7844 3.11868L9.35383 7.91868L4.85663 3.11868L0.232153 7.91868"/><path id="shape04" transform="matrix(0.99999999312685 0 0 0.99999999312685 53.6061013724444 17.1572879145386)" fill="#dda62f" stroke="#000000" stroke-width="1.2" stroke-linecap="square" stroke-linejoin="bevel" d="M0 0L0 4.08542L3.18198 4.08542"/><path id="shape05" transform="matrix(0.9999999862537 0 0 0.9999999862537 58.2655979021641 24.3381610123998)" fill="#dda62f" stroke="#000000" stroke-width="1.2" stroke-linecap="square" stroke-linejoin="bevel" d="M0 0L0 5.00184L2.69441 5.00184"/><path id="shape06" transform="matrix(0.9999999862537 0 0 0.9999999862537 63.3655982208949 32.4981615223691)" fill="#dda62f" stroke="#000000" stroke-width="1.2" stroke-linecap="square" stroke-linejoin="bevel" d="M0 0L0 4.40184L3.05441 4.40184"/><rect id="shape3" transform="matrix(0.696275133341344 0.717774991686459 -0.717774991686459 0.696275133341344 45.7141796243831 44.4365936849299)" fill="#dda62f" fill-rule="evenodd" stroke="#000000" stroke-width="1.2" stroke-linecap="square" stroke-linejoin="bevel" width="5.04000000000001" height="5.04"/><path id="shape07" transform="matrix(0.696275123055206 0.717774981082701 -0.717774981082701 0.696275123055206 36.0541796422293 44.4865452088371)" fill="#dda62f" stroke="#000000" stroke-width="1.2" stroke-linecap="square" stroke-linejoin="bevel" d="M0 0L5.04 0L5.04 5.04"/><path id="shape08" transform="matrix(-0.99999999312685 0 0 0.99999999312685 18.3572965595163 17.1768179310937)" fill="#dda62f" stroke="#000000" stroke-width="1.2" stroke-linecap="square" stroke-linejoin="bevel" d="M0 0L0 4.08542L3.18198 4.08542"/><path id="shape09" transform="matrix(-0.9999999862537 0 0 0.9999999862537 13.6978000297967 24.3576910289549)" fill="#dda62f" stroke="#000000" stroke-width="1.2" stroke-linecap="square" stroke-linejoin="bevel" d="M0 0L0 5.00184L2.69441 5.00184"/><path id="shape010" transform="matrix(-0.9999999862537 0 0 0.9999999862537 8.59779971106584 32.5176915389243)" fill="#dda62f" stroke="#000000" stroke-width="1.2" stroke-linecap="square" stroke-linejoin="bevel" d="M0 0L0 4.40184L3.05441 4.40184"/><rect id="shape4" transform="matrix(-0.696275133341344 0.717774991686459 0.717774991686459 0.696275133341344 26.2492183075776 44.4561237014851)" fill="#dda62f" fill-rule="evenodd" stroke="#000000" stroke-width="1.2" stroke-linecap="square" stroke-linejoin="bevel" width="5.04000000000001" height="5.04"/><path id="shape011" transform="matrix(-0.696275123055206 0.717774981082701 0.717774981082701 0.696275123055206 35.9092182897315 44.5060752253922)" fill="#dda62f" stroke="#000000" stroke-width="1.2" stroke-linecap="square" stroke-linejoin="bevel" d="M0 0L5.04 0L5.04 5.04"/><path id="shape5" transform="matrix(0.986272209628038 0.165127612819385 -0.165127612819385 0.986272209628038 68.5176369368568 44.3052813048243)" fill="none" stroke="#000000" stroke-width="1.2" stroke-linecap="square" stroke-linejoin="miter" stroke-miterlimit="2" d="M1.36445 1.2414L0 0"/><path id="shape6" transform="matrix(0.999655550589304 -0.02624462184898 0.02624462184898 0.999655550589304 66.9586049946858 45.8879900295879)" fill="none" stroke="#000000" stroke-width="1.2" stroke-linecap="square" stroke-linejoin="miter" stroke-miterlimit="2" d="M1.3581 0.958455L0 0"/><path id="shape7" transform="translate(50.160002750286, 61.1400033523223)" fill="none" stroke="#000000" stroke-width="1.2" stroke-linecap="square" stroke-linejoin="miter" stroke-miterlimit="2" d="M0 2.16L0.54 0"/><path id="shape8" transform="translate(48, 61.3800033654816)" fill="none" stroke="#000000" stroke-width="1.2" stroke-linecap="square" stroke-linejoin="miter" stroke-miterlimit="2" d="M0 1.8L0 0"/><path id="shape9" transform="translate(45.4800024936804, 61.560003375351)" fill="none" stroke="#000000" stroke-width="1.2" stroke-linecap="square" stroke-linejoin="miter" stroke-miterlimit="2" d="M0 2.1L0.18 0"/><path id="shape10" transform="translate(43.2, 61.560003375351)" fill="none" stroke="#000000" stroke-width="1.2" stroke-linecap="square" stroke-linejoin="miter" stroke-miterlimit="2" d="M0 1.98L0 0"/><path id="shape11" transform="translate(40.3200022107562, 61.560003375351)" fill="none" stroke="#000000" stroke-width="1.2" stroke-linecap="square" stroke-linejoin="miter" stroke-miterlimit="2" d="M0.06 1.8L0 0"/><path id="shape12" transform="translate(37.6800020660043, 61.6200033786409)" fill="none" stroke="#000000" stroke-width="1.2" stroke-linecap="square" stroke-linejoin="miter" stroke-miterlimit="2" d="M0.06 1.68L0 0"/><path id="shape13" transform="matrix(-0.986272209628038 0.165127612819385 0.165127612819385 0.986272209628038 3.43710851806041 44.1355756794353)" fill="none" stroke="#000000" stroke-width="1.2" stroke-linecap="square" stroke-linejoin="miter" stroke-miterlimit="2" d="M1.36445 1.2414L0 0"/><path id="shape14" transform="matrix(-0.999655550589304 -0.0262446218489796 -0.0262446218489796 0.999655550589304 4.9961404602315 45.7182844041989)" fill="none" stroke="#000000" stroke-width="1.2" stroke-linecap="square" stroke-linejoin="miter" stroke-miterlimit="2" d="M1.3581 0.958455L0 0"/><path id="shape15" transform="matrix(-1 0 0 1 21.7947427046312 60.9702977269333)" fill="none" stroke="#000000" stroke-width="1.2" stroke-linecap="square" stroke-linejoin="miter" stroke-miterlimit="2" d="M0 2.16L0.54 0"/><path id="shape16" transform="matrix(-1 0 0 1 23.9547454549172 61.2102977400925)" fill="none" stroke="#000000" stroke-width="1.2" stroke-linecap="square" stroke-linejoin="miter" stroke-miterlimit="2" d="M0 1.8L0 0"/><path id="shape17" transform="matrix(-1 0 0 1 26.4747429612368 61.390297749962)" fill="none" stroke="#000000" stroke-width="1.2" stroke-linecap="square" stroke-linejoin="miter" stroke-miterlimit="2" d="M0 2.1L0.18 0"/><path id="shape18" transform="matrix(-1 0 0 1 28.7547454549173 61.390297749962)" fill="none" stroke="#000000" stroke-width="1.2" stroke-linecap="square" stroke-linejoin="miter" stroke-miterlimit="2" d="M0 1.98L0 0"/><path id="shape19" transform="matrix(-1 0 0 1 31.634743244161 61.390297749962)" fill="none" stroke="#000000" stroke-width="1.2" stroke-linecap="square" stroke-linejoin="miter" stroke-miterlimit="2" d="M0.06 1.8L0 0"/><path id="shape20" transform="matrix(-1 0 0 1 34.2747433889129 61.4502977532518)" fill="none" stroke="#000000" stroke-width="1.2" stroke-linecap="square" stroke-linejoin="miter" stroke-miterlimit="2" d="M0.06 1.68L0 0"/><rect id="shape21" transform="translate(45.4645631258271, 47.76)" fill="none" stroke="#000000" stroke-width="1.2" stroke-linecap="square" stroke-linejoin="bevel" width="0.480000000000004" height="0.480000000000004"/><path id="shape012" transform="matrix(0.999999982126389 0 0 0.999999982126389 35.7078610576678 47.7600000042897)" fill="none" stroke="#000000" stroke-width="1.2" stroke-linecap="square" stroke-linejoin="bevel" d="M0 0L0.48 0L0.48 0.48L0 0.48Z"/><path id="shape013" transform="matrix(0.999999964252778 0 0 0.999999964252778 40.5772209220577 57.3600000085793)" fill="none" stroke="#000000" stroke-width="1.2" stroke-linecap="square" stroke-linejoin="bevel" d="M0 0L0.48 0L0.48 0.48L0 0.48Z"/><path id="shape014" transform="matrix(0.999999950298763 0 0 0.999999950298763 50.4450001989589 57.3600000119283)" fill="none" stroke="#000000" stroke-width="1.2" stroke-linecap="square" stroke-linejoin="bevel" d="M0 0L0.48 0L0.48 0.48L0 0.48Z"/><rect id="shape22" transform="matrix(-1 0 0 1 26.6518674905579 47.7600000042897)" fill="none" stroke="#000000" stroke-width="1.2" stroke-linecap="square" stroke-linejoin="bevel" width="0.480000000000004" height="0.480000000000004"/><path id="shape015" transform="matrix(-0.999999964252778 0 0 0.999999964252778 31.5392096943274 57.360000012869)" fill="none" stroke="#000000" stroke-width="1.2" stroke-linecap="square" stroke-linejoin="bevel" d="M0 0L0.48 0L0.48 0.48L0 0.48Z"/><path id="shape016" transform="matrix(-0.999999950298763 0 0 0.999999950298763 21.6714304174261 57.360000016218)" fill="none" stroke="#000000" stroke-width="1.2" stroke-linecap="square" stroke-linejoin="bevel" d="M0 0L0.48 0L0.48 0.48L0 0.48Z"/>
</svg>
