<?xml version="1.0" standalone="no"?>
<!DOCTYPE svg PUBLIC "-//W3C//DTD SVG 20010904//EN" "http://www.w3.org/TR/2001/REC-SVG-20010904/DTD/svg10.dtd">
<!-- Created using Krita: https://krita.org -->
<svg xmlns="http://www.w3.org/2000/svg" 
    xmlns:xlink="http://www.w3.org/1999/xlink"
    xmlns:krita="http://krita.org/namespaces/svg/krita"
    xmlns:sodipodi="http://sodipodi.sourceforge.net/DTD/sodipodi-0.dtd"
    width="72pt"
    height="72pt"
    viewBox="0 0 72 72">
<defs/>
<rect id="shape0" transform="translate(58.6885281681151, 1.03985704522024)" fill="#abaaa0" fill-rule="evenodd" stroke="#070707" stroke-width="1.2" stroke-linecap="square" stroke-linejoin="bevel" width="12.2484266863057" height="11.9426239269405"/><ellipse id="shape1" transform="translate(10.6082066289615, 9.78879538517587)" rx="25.3917933710385" ry="26.2112046148241" cx="25.3917933710385" cy="26.2112046148241" fill="none" stroke="#070707" stroke-width="1.2" stroke-linecap="square" stroke-linejoin="bevel"/><path id="shape2" transform="translate(38.4600026328598, 10.2000006982624)" fill="none" stroke="#070707" stroke-width="1.2" stroke-linecap="square" stroke-linejoin="miter" stroke-miterlimit="2" d="M0 0C10.117 10.358 16.6215 22.2384 20.94 35.04"/><path id="shape3" transform="translate(35.1600024069514, 9.96000068183266)" fill="none" stroke="#070707" stroke-width="1.2" stroke-linecap="square" stroke-linejoin="miter" stroke-miterlimit="2" d="M0 0C9.58018 11.8585 17.0575 24.823 22.3517 39.1851"/><path id="shape4" transform="translate(31.3200021440762, 10.8000007393366)" fill="none" stroke="#070707" stroke-width="1.2" stroke-linecap="square" stroke-linejoin="miter" stroke-miterlimit="2" d="M0 0C8.93364 12.3949 16.9655 26.2465 23.82 42"/><path id="shape5" transform="translate(27.4800018812009, 12.1800008338074)" fill="none" stroke="#070707" stroke-width="1.2" stroke-linecap="square" stroke-linejoin="miter" stroke-miterlimit="2" d="M0 0C9.40265 13.7712 17.7372 28.2289 24.9 43.44"/><path id="shape6" transform="translate(42.4800029080574, 10.8000007393366)" fill="none" stroke="#070707" stroke-width="1.2" stroke-linecap="square" stroke-linejoin="miter" stroke-miterlimit="2" d="M0 0C8.6247 8.4102 14.3157 18.7686 18.24 30.3"/><path id="shape7" transform="translate(46.2600031668252, 12.1200008297)" fill="none" stroke="#070707" stroke-width="1.2" stroke-linecap="square" stroke-linejoin="miter" stroke-miterlimit="2" d="M0 0C8.43254 6.78181 12.8132 15.7454 15.0189 25.8801"/><path id="shape8" transform="translate(23.7000000605613, 13.3800000341903)" fill="none" stroke="#070707" stroke-width="1.2" stroke-linecap="square" stroke-linejoin="miter" stroke-miterlimit="2" d="M0 0C9.33376 14.4898 17.6127 29.3752 25.68 44.34"/><path id="shape9" transform="matrix(0.995602786118954 -0.093675462487132 0.093675462487132 0.995602786118954 35.3675840618942 34.1727135545243)" fill="none" stroke="#070707" stroke-width="1.2" stroke-linecap="square" stroke-linejoin="miter" stroke-miterlimit="2" d="M0.19916 0C-0.810424 2.4397 2.18534 11.4666 5.41916 12"/><path id="shape0" transform="matrix(0.999499707478731 0.0316270016209925 -0.0316270016209925 0.999499707478731 33.4759966016071 31.5343615526718)" fill="none" stroke="#070707" stroke-width="1.2" stroke-linecap="square" stroke-linejoin="miter" stroke-miterlimit="2" d="M0.517732 0C-1.77011 5.58282 3.89977 16.977 10.1594 16.1345"/><path id="shape01" transform="matrix(0.9994996877372 0.0316270009963146 -0.0316270009963146 0.9994996877372 31.1209921174719 28.543122157321)" fill="none" stroke="#070707" stroke-width="1.2" stroke-linecap="square" stroke-linejoin="miter" stroke-miterlimit="2" d="M1.47915 0C-3.14194 8.24078 3.59021 23.6033 14.3796 21.2345"/><path id="shape02" transform="matrix(0.999499707221985 0.0316270016128684 -0.0316270016128684 0.999499707221985 28.4655846094525 26.27817757987)" fill="none" stroke="#070707" stroke-width="1.2" stroke-linecap="square" stroke-linejoin="miter" stroke-miterlimit="2" d="M2.55309 0C-4.28879 10.1774 3.11962 29.0985 18.8175 26.0588"/><path id="shape03" transform="matrix(0.999499675503016 0.0316270006091901 -0.0316270006091901 0.999499675503016 25.3775938735524 23.081329077382)" fill="none" stroke="#070707" stroke-width="1.2" stroke-linecap="square" stroke-linejoin="miter" stroke-miterlimit="2" d="M4.3846 0C-5.55903 11.8614 1.6821 34.8303 23.346 31.9963"/><path id="shape04" transform="matrix(0.999499654035081 0.0316269999298836 -0.0316269999298836 0.999499654035081 22.1748099403485 20.5444426404839)" fill="none" stroke="#070707" stroke-width="1.2" stroke-linecap="square" stroke-linejoin="miter" stroke-miterlimit="2" d="M5.31951 0C-6.58892 13.838 1.83371 40.5775 27.2059 37.2545"/><path id="shape05" transform="matrix(0.99949965551946 0.031626999976853 -0.031626999976853 0.99949965551946 19.0955404670493 17.5011425224781)" fill="none" stroke="#070707" stroke-width="1.2" stroke-linecap="square" stroke-linejoin="miter" stroke-miterlimit="2" d="M6.28761 0C-7.00207 13.3367 1.43049 44.8188 25.4032 42.8972"/><path id="shape06" transform="matrix(0.999499622825701 0.0316269989423292 -0.0316269989423292 0.999499622825701 15.3307863776005 14.4446677400939)" fill="none" stroke="#070707" stroke-width="1.2" stroke-linecap="square" stroke-linejoin="miter" stroke-miterlimit="2" d="M8.07325 0C-7.99699 13.8493 2.16417 46.0216 18.9858 46.9256"/><path id="shape10" transform="translate(46.0394329912038, 57.4511410300936)" fill="none" stroke="#070707" stroke-width="1.2" stroke-linecap="square" stroke-linejoin="bevel" d="M0 2.82078C8.09036 2.1165 6.83205 5.05277 11.2786 6.95215C14.9556 7.66205 18.2737 6.98611 18.7006 5.24886C18.2913 3.13271 17.4621 2.36614 17.9806 2.00886C21.3256 1.84423 20.2169 -0.810214 16.0728 0.248771C14.7702 1.49141 14.6867 2.43966 15.9401 3.84205C14.5046 4.07986 14.5964 5.09705 11.9206 4.28886C10.4527 3.37298 10.0009 2.50235 8.20057 1.64886C7.22482 1.18627 6.31834 0.457557 3.72674 0.842745"/>
</svg>
