<?xml version="1.0" standalone="no"?>
<!DOCTYPE svg PUBLIC "-//W3C//DTD SVG 20010904//EN" "http://www.w3.org/TR/2001/REC-SVG-20010904/DTD/svg10.dtd">
<!-- Created using Krita: https://krita.org -->
<svg xmlns="http://www.w3.org/2000/svg" 
    xmlns:xlink="http://www.w3.org/1999/xlink"
    xmlns:krita="http://krita.org/namespaces/svg/krita"
    xmlns:sodipodi="http://sodipodi.sourceforge.net/DTD/sodipodi-0.dtd"
    width="72pt"
    height="72pt"
    viewBox="0 0 72 72">
<defs/>
<path id="shape0" transform="matrix(1.52166419267996 0 0 1.46619313265022 11.4299967836752 4.2701543905118)" fill="none" stroke="#000000" stroke-width="1.2" stroke-linecap="square" stroke-linejoin="bevel" d="M17.46 3.1632C25.9507 2.98541 12.2146 1.81504 11.16 3.2232C10.1567 5.01029 29.8645 4.38373 30.54 2.6832C24.7733 1.03607 9.72981 0.764534 2.04 2.6832C1.39634 4.53672 14.6233 6.08415 16.98 6.2232L17.1474 43.2256M0.13438 38.1344L0 2.3232C2.80654 -0.721319 28.7842 -0.827031 32.16 2.3232L32.2936 38.4739M17.64 41.9832"/><path id="shape1" transform="matrix(1.52166419267996 0 0 1.46619313265022 28.3204677976739 9.50182566240281)" fill="none" stroke="#000000" stroke-width="1.2" stroke-linecap="square" stroke-linejoin="miter" stroke-miterlimit="2" d="M0.12 0L0 1.08"/><path id="shape2" transform="matrix(1.52166419267996 0 0 1.46619313265022 42.1472682854731 8.85256285353848)" fill="none" stroke="#000000" stroke-width="1.2" stroke-linecap="square" stroke-linejoin="miter" stroke-miterlimit="2" d="M0 0L0.0424264 0.975807"/><path id="shape3" transform="matrix(1.52166419267996 0 0 1.46619313265022 11.75737723836 11.082299538715)" fill="none" stroke="#000000" stroke-width="1.2" stroke-linecap="square" stroke-linejoin="miter" stroke-miterlimit="2" d="M0 0C1.65287 3.08815 11.1325 4.39538 16.26 4.5"/><path id="shape0" transform="matrix(1.52166419636776 0 0 1.46619313620357 11.677988216823 16.7461974524601)" fill="none" stroke="#000000" stroke-width="1.2" stroke-linecap="square" stroke-linejoin="miter" stroke-miterlimit="2" d="M0 0C1.65287 3.08815 11.1325 4.39538 16.26 4.5"/><path id="shape01" transform="matrix(1.52166419636776 0 0 1.46619313620357 12.0221477697076 22.5449979787505)" fill="none" stroke="#000000" stroke-width="1.2" stroke-linecap="square" stroke-linejoin="miter" stroke-miterlimit="2" d="M0 0C1.65287 3.08815 11.1325 4.39538 16.26 4.5"/><path id="shape02" transform="matrix(1.52166419636776 0 0 1.46619313620357 11.9308479140279 27.8232934944141)" fill="none" stroke="#000000" stroke-width="1.2" stroke-linecap="square" stroke-linejoin="miter" stroke-miterlimit="2" d="M0 0C1.65287 3.08815 11.1325 4.39538 16.26 4.5"/><path id="shape03" transform="matrix(1.52166422378003 0 0 1.46619316261656 11.9652641203436 33.2801719485896)" fill="none" stroke="#000000" stroke-width="1.2" stroke-linecap="square" stroke-linejoin="miter" stroke-miterlimit="2" d="M0 0C1.65287 3.08815 11.1325 4.39538 16.26 4.5"/><path id="shape04" transform="matrix(1.52166422746782 0 0 1.46619316616991 11.885875097184 38.9440699780945)" fill="none" stroke="#000000" stroke-width="1.2" stroke-linecap="square" stroke-linejoin="miter" stroke-miterlimit="2" d="M0 0C1.65287 3.08815 11.1325 4.39538 16.26 4.5"/><path id="shape01" transform="matrix(1.52166422746782 0 0 1.46619316616991 12.2300346571026 44.742870622902)" fill="none" stroke="#000000" stroke-width="1.2" stroke-linecap="square" stroke-linejoin="miter" stroke-miterlimit="2" d="M0 0C1.65287 3.08815 11.1325 4.39538 16.26 4.5"/><path id="shape02" transform="matrix(1.52166422746782 0 0 1.46619316616991 12.138734799557 50.0211662464446)" fill="none" stroke="#000000" stroke-width="1.2" stroke-linecap="square" stroke-linejoin="miter" stroke-miterlimit="2" d="M0 0C1.65287 3.08815 11.1325 4.39538 16.26 4.5"/><path id="shape011" transform="matrix(1.52166415680726 0 0 1.46619309808523 12.1387330974225 55.853681289667)" fill="none" stroke="#000000" stroke-width="1.2" stroke-linecap="square" stroke-linejoin="miter" stroke-miterlimit="2" d="M0 0C1.65287 3.08815 11.1325 4.39538 16.26 4.5"/><path id="shape021" transform="matrix(1.52166415680726 0 0 1.46619309808523 12.0474332441166 61.1319766681047)" fill="none" stroke="#000000" stroke-width="1.2" stroke-linecap="square" stroke-linejoin="miter" stroke-miterlimit="2" d="M0 0C1.65287 3.08815 11.1325 4.39538 16.26 4.5"/><path id="shape05" transform="matrix(-1.50606542627729 -0.209399388153421 -0.217321677360611 1.45116300689222 59.8750130277297 12.4944223542136)" fill="none" stroke="#000000" stroke-width="1.2" stroke-linecap="square" stroke-linejoin="miter" stroke-miterlimit="2" d="M0 0C2.01304 2.96866 10.8014 4.11324 14.1523 4.2689"/><path id="shape06" transform="matrix(-1.50606545282316 -0.20939939184429 -0.217321681191118 1.45116303247039 59.8457858501812 18.0193535384821)" fill="none" stroke="#000000" stroke-width="1.2" stroke-linecap="square" stroke-linejoin="miter" stroke-miterlimit="2" d="M0 0C2.01304 2.96866 10.8014 4.11324 14.1523 4.2689"/><path id="shape07" transform="matrix(-1.50606545324158 -0.209399391902464 -0.217321681251493 1.45116303287355 59.9078920840707 23.4607440757756)" fill="none" stroke="#000000" stroke-width="1.2" stroke-linecap="square" stroke-linejoin="miter" stroke-miterlimit="2" d="M0 0C2.01304 2.96866 10.8014 4.11324 14.1523 4.2689"/><path id="shape012" transform="matrix(-1.50606547978746 -0.209399395593335 -0.217321685082002 1.45116305845172 59.8786649059989 28.9856753589613)" fill="none" stroke="#000000" stroke-width="1.2" stroke-linecap="square" stroke-linejoin="miter" stroke-miterlimit="2" d="M0 0C2.01304 2.96866 10.8014 4.11324 14.1523 4.2689"/><path id="shape08" transform="matrix(-1.50606540381587 -0.209399385030444 -0.217321674119481 1.45116298524962 59.9165525093159 34.535547381247)" fill="none" stroke="#000000" stroke-width="1.2" stroke-linecap="square" stroke-linejoin="miter" stroke-miterlimit="2" d="M0 0C2.01304 2.96866 10.8014 4.11324 14.1523 4.2689"/><path id="shape013" transform="matrix(-1.50606543036175 -0.209399388721314 -0.217321677949989 1.45116301082778 59.8873253322032 40.0604784831168)" fill="none" stroke="#000000" stroke-width="1.2" stroke-linecap="square" stroke-linejoin="miter" stroke-miterlimit="2" d="M0 0C2.01304 2.96866 10.8014 4.11324 14.1523 4.2689"/><path id="shape022" transform="matrix(-1.50606543078016 -0.209399388779487 -0.217321678010363 1.45116301123094 59.9494315651665 45.5018689392576)" fill="none" stroke="#000000" stroke-width="1.2" stroke-linecap="square" stroke-linejoin="miter" stroke-miterlimit="2" d="M0 0C2.01304 2.96866 10.8014 4.11324 14.1523 4.2689"/><path id="shape014" transform="matrix(-1.50606545732604 -0.209399392470358 -0.217321681840872 1.45116303680911 59.9202043875305 51.0268001400446)" fill="none" stroke="#000000" stroke-width="1.2" stroke-linecap="square" stroke-linejoin="miter" stroke-miterlimit="2" d="M0 0C2.01304 2.96866 10.8014 4.11324 14.1523 4.2689"/><path id="shape023" transform="matrix(-1.50606538116135 -0.209399381880618 -0.217321670850486 1.45116296342095 60.1813597159247 55.8092510532807)" fill="none" stroke="#000000" stroke-width="1.2" stroke-linecap="square" stroke-linejoin="miter" stroke-miterlimit="2" d="M0 0C2.01304 2.96866 10.8014 4.11324 14.1523 4.2689"/><path id="shape015" transform="matrix(-1.50606540770723 -0.20939938557149 -0.217321674680997 1.45116298899912 60.1521325392516 61.3341820720434)" fill="none" stroke="#000000" stroke-width="1.2" stroke-linecap="square" stroke-linejoin="miter" stroke-miterlimit="2" d="M0 0C2.01304 2.96866 10.8014 4.11324 14.1523 4.2689"/><path id="shape4" transform="matrix(1.24847577250173 0 0 1.18752211462179 31.1845573920728 13.5975711753432)" fill="none" stroke="#000000" stroke-width="1.2" stroke-linecap="square" stroke-linejoin="miter" stroke-miterlimit="2" d="M0 0L0 45.24"/><path id="shape09" transform="matrix(1.24847579222247 0 0 1.18752213337971 25.6994258420038 12.644176808064)" fill="none" stroke="#000000" stroke-width="1.2" stroke-linecap="square" stroke-linejoin="miter" stroke-miterlimit="2" d="M0 0L0 45.24"/><path id="shape010" transform="matrix(1.24847579222247 0 0 1.18752213337971 20.7204018509603 11.8380600772162)" fill="none" stroke="#000000" stroke-width="1.2" stroke-linecap="square" stroke-linejoin="miter" stroke-miterlimit="2" d="M0 0L0 45.24"/><path id="shape011" transform="matrix(1.24847579222247 0 0 1.18752213337971 16.3769979438799 10.5281203895886)" fill="none" stroke="#000000" stroke-width="1.2" stroke-linecap="square" stroke-linejoin="miter" stroke-miterlimit="2" d="M0 0L0 45.24"/><path id="shape012" transform="matrix(1.24847577092105 0 0 1.18752211311829 39.6830672653585 11.0527779248322)" fill="none" stroke="#000000" stroke-width="1.2" stroke-linecap="square" stroke-linejoin="miter" stroke-miterlimit="2" d="M0 0L0 45.24"/><path id="shape013" transform="matrix(1.24847577092105 0 0 1.18752211311829 44.9799012983834 10.8512487421203)" fill="none" stroke="#000000" stroke-width="1.2" stroke-linecap="square" stroke-linejoin="miter" stroke-miterlimit="2" d="M0 0L0 45.24"/><path id="shape014" transform="matrix(1.24847577092105 0 0 1.18752211311829 50.2767353314084 10.8512487421202)" fill="none" stroke="#000000" stroke-width="1.2" stroke-linecap="square" stroke-linejoin="miter" stroke-miterlimit="2" d="M0 0L0 45.24"/><path id="shape015" transform="matrix(1.24847577092105 0 0 1.18752211311829 54.8009844657027 10.1458966026285)" fill="none" stroke="#000000" stroke-width="1.2" stroke-linecap="square" stroke-linejoin="miter" stroke-miterlimit="2" d="M0 0L0 45.24"/><path id="shape016" transform="matrix(1.24847577092105 0 0 1.18752211311829 57.6945737529757 9.13824980126437)" fill="none" stroke="#000000" stroke-width="1.2" stroke-linecap="square" stroke-linejoin="miter" stroke-miterlimit="2" d="M0 0L0 45.24"/><path id="shape5" transform="matrix(1.24847577250173 0 0 1.18752211462179 33.3032910052828 10.9195341968119)" fill="none" stroke="#000000" stroke-width="1.2" stroke-linecap="square" stroke-linejoin="miter" stroke-miterlimit="2" d="M0 0L0 0.96"/>
</svg>
