<?xml version="1.0" standalone="no"?>
<!DOCTYPE svg PUBLIC "-//W3C//DTD SVG 20010904//EN" "http://www.w3.org/TR/2001/REC-SVG-20010904/DTD/svg10.dtd">
<!-- Created using Krita: https://krita.org -->
<svg xmlns="http://www.w3.org/2000/svg" 
    xmlns:xlink="http://www.w3.org/1999/xlink"
    xmlns:krita="http://krita.org/namespaces/svg/krita"
    xmlns:sodipodi="http://sodipodi.sourceforge.net/DTD/sodipodi-0.dtd"
    width="72pt"
    height="72pt"
    viewBox="0 0 72 72">
<defs/>
<path id="shape0" transform="translate(4.5775717121966, 5.50287400974107)" fill="#101e54" fill-rule="evenodd" stroke="#080000" stroke-width="1.2" stroke-linecap="square" stroke-linejoin="bevel" d="M21.4638 1.85885C21.8967 0.754681 25.6268 -0.336286 27.7514 0.0974117C31.6848 0.55328 30.9874 0.566346 34.2002 0.0125589C39.2604 -0.109894 39.9014 1.74516 40.7254 1.774L62.8449 40.8599C29.2959 67.5491 34.0244 67.2601 0 40.4357Z"/><path id="shape1" transform="matrix(0.999210259003342 -0.0397348499742256 0.0397348499742256 0.999210259003342 37.1254187687425 62.8363041368821)" fill="#6fffd6" fill-rule="evenodd" stroke="#080000" stroke-width="0.72" stroke-linecap="square" stroke-linejoin="bevel" d="M4.37595 0L0 0.572134L0.296985 1.8025Z"/><path id="shape0" transform="matrix(0.97063495573389 -0.240557083863992 0.240557083863992 0.97063495573389 42.38962002054 60.7385266494174)" fill="#6fffd6" stroke="#080000" stroke-width="0.72" stroke-linecap="square" stroke-linejoin="bevel" d="M4.37595 0L0 0.572134L0.296985 1.8025Z"/><path id="shape01" transform="matrix(0.93391698675295 -0.357489845651542 0.357489845651542 0.93391698675295 47.3528863542282 57.7131204012689)" fill="#6fffd6" stroke="#080000" stroke-width="0.72" stroke-linecap="square" stroke-linejoin="bevel" d="M4.37595 0L0 0.572134L0.296985 1.8025Z"/><path id="shape02" transform="matrix(0.932943574721895 -0.360022519121796 0.360022519121796 0.932943574721895 51.5709502997229 54.2032315291405)" fill="#6fffd6" stroke="#080000" stroke-width="0.72" stroke-linecap="square" stroke-linejoin="bevel" d="M4.37595 0L0 0.572134L0.296985 1.8025Z"/><path id="shape03" transform="matrix(0.92899353255809 -0.370095858332553 0.370095858332553 0.92899353255809 55.8980079404074 50.5377341989944)" fill="#6fffd6" stroke="#080000" stroke-width="0.72" stroke-linecap="square" stroke-linejoin="bevel" d="M4.37595 0L0 0.572134L0.296985 1.8025Z"/><path id="shape04" transform="matrix(0.938632737947048 -0.344918122376461 0.344918122376461 0.938632737947048 60.3543819034997 46.5283026386475)" fill="#6fffd6" stroke="#080000" stroke-width="0.72" stroke-linecap="square" stroke-linejoin="bevel" d="M4.37595 0L0 0.572134L0.296985 1.8025Z"/><path id="shape2" transform="matrix(-0.999210259003342 -0.0397348499742256 -0.0397348499742256 0.999210259003342 34.8854524216493 62.8114513266417)" fill="#6fffd6" fill-rule="evenodd" stroke="#080000" stroke-width="0.72" stroke-linecap="square" stroke-linejoin="bevel" d="M4.37595 0L0 0.572134L0.296985 1.8025Z"/><path id="shape05" transform="matrix(-0.970634955733889 -0.240557083863993 -0.240557083863993 0.970634955733889 29.6212511698517 60.713673839177)" fill="#6fffd6" stroke="#080000" stroke-width="0.72" stroke-linecap="square" stroke-linejoin="bevel" d="M4.37595 0L0 0.572134L0.296985 1.8025Z"/><path id="shape06" transform="matrix(-0.93391698675295 -0.357489845651542 -0.357489845651542 0.93391698675295 24.6579848361635 57.6882675910285)" fill="#6fffd6" stroke="#080000" stroke-width="0.72" stroke-linecap="square" stroke-linejoin="bevel" d="M4.37595 0L0 0.572134L0.296985 1.8025Z"/><path id="shape07" transform="matrix(-0.932943574721894 -0.360022519121796 -0.360022519121796 0.932943574721894 20.4399208906689 54.1783787189001)" fill="#6fffd6" stroke="#080000" stroke-width="0.72" stroke-linecap="square" stroke-linejoin="bevel" d="M4.37595 0L0 0.572134L0.296985 1.8025Z"/><path id="shape08" transform="matrix(-0.92899353255809 -0.370095858332553 -0.370095858332553 0.92899353255809 16.1128632499844 50.512881388754)" fill="#6fffd6" stroke="#080000" stroke-width="0.72" stroke-linecap="square" stroke-linejoin="bevel" d="M4.37595 0L0 0.572134L0.296985 1.8025Z"/><path id="shape09" transform="matrix(-0.938632737947048 -0.344918122376461 -0.344918122376461 0.938632737947048 11.6564892868921 46.5034498284071)" fill="#6fffd6" stroke="#080000" stroke-width="0.72" stroke-linecap="square" stroke-linejoin="bevel" d="M4.37595 0L0 0.572134L0.296985 1.8025Z"/><path id="shape010" transform="matrix(0.477106062624454 0.878845682072033 -0.878845682072033 0.477106062624454 31.3571964750245 52.7602339091022)" fill="#6fffd6" stroke="#080000" stroke-width="0.72" stroke-linecap="square" stroke-linejoin="bevel" d="M8.05804 0C5.50018 0.492647 1.73866 0.294116 0.384459 1.47794C-0.131844 2.57195 -0.461138 4.04815 1.66764 4.49779C3.08248 4.66925 5.91148 1.53763 8.05804 0Z"/><path id="shape011" transform="matrix(-0.477106042299212 0.878845644632241 0.878845644632241 0.477106042299212 40.5914822233306 52.7039933800239)" fill="#6fffd6" stroke="#080000" stroke-width="0.72" stroke-linecap="square" stroke-linejoin="bevel" d="M8.05804 0C5.50018 0.492647 1.73866 0.294116 0.384459 1.47794C-0.131844 2.57195 -0.461138 4.04815 1.66764 4.49779C3.08248 4.66925 5.91148 1.53763 8.05804 0Z"/><path id="shape012" transform="matrix(-0.332726804901773 0.943023178923682 -0.943023178923682 -0.332726804901773 38.6654590013537 51.4268192160632)" fill="#6fffd6" stroke="#080000" stroke-width="0.72" stroke-linecap="square" stroke-linejoin="bevel" d="M8.05804 0C5.50018 0.492647 1.73866 0.294116 0.384459 1.47794C-0.131844 2.57195 -0.461138 4.04815 1.66764 4.49779C3.08248 4.66925 5.91148 1.53763 8.05804 0Z"/><path id="shape013" transform="matrix(0.999999953478608 0 0 0.999999953478608 7.72899668267434 41.0687621964343)" fill="none" stroke="#080000" stroke-width="1.2" stroke-linecap="square" stroke-linejoin="miter" stroke-miterlimit="2" d="M0 0C29.2048 27.2699 27.4741 27.1335 56.542 0.0892149"/><path id="shape3" transform="translate(24.3103307127395, 7.04278339965565)" fill="#893973" fill-rule="evenodd" stroke="#080000" stroke-width="1.2" stroke-linecap="square" stroke-linejoin="bevel" d="M1.99404 0C7.10869 1.18411 15.3009 1.43266 20.8314 0.212132L22.9103 3.64867C14.816 5.1526 8.12871 4.67035 0 3.56382Z"/><ellipse id="shape4" transform="matrix(0.996478579198187 0.083847726261144 -0.083847726261144 0.996478579198187 26.937587922876 8.61878660768495)" rx="1.71000112688972" ry="0.614999675991747" cx="1.71000112688972" cy="0.614999675991747" fill="#00f4c5" fill-rule="evenodd" stroke="#080000" stroke-width="0.48" stroke-linecap="square" stroke-linejoin="bevel"/><ellipse id="shape014" transform="matrix(0.998614150519222 0.052628700496701 -0.052628700496701 0.998614150519222 31.7436252118902 9.08041386304776)" rx="1.71000112688972" ry="0.614999675991747" cx="1.71000112688972" cy="0.614999675991747" fill="#00f4c5" stroke="#080000" stroke-width="0.48" stroke-linecap="square" stroke-linejoin="bevel"/><ellipse id="shape015" transform="matrix(-0.99647859415004 0.0838477275192532 0.0838477275192532 0.99647859415004 44.650551370004 8.7285083104017)" rx="1.71000112688972" ry="0.614999675991747" cx="1.71000112688972" cy="0.614999675991747" fill="#00f4c5" stroke="#080000" stroke-width="0.48" stroke-linecap="square" stroke-linejoin="bevel"/><ellipse id="shape016" transform="matrix(-0.998614165503113 0.0526287012863777 0.0526287012863777 0.998614165503113 39.8445140088767 9.19013557269109)" rx="1.71000112688972" ry="0.614999675991747" cx="1.71000112688972" cy="0.614999675991747" fill="#00f4c5" stroke="#080000" stroke-width="0.48" stroke-linecap="square" stroke-linejoin="bevel"/>
</svg>
